<?xml version="1.0" encoding="UTF-8"?><svg id="Mikrofonhånd_Image" xmlns="http://www.w3.org/2000/svg" viewBox="0 0 381.08 348.73"><defs><style>.cls-1{fill:#093d24;}</style></defs><path class="cls-1" d="m186.96,331.79c-16.16-.21-32.02-2.49-47.8-5.76-10.68-2.21-21.15-5.09-31.28-9.03-8.63-3.36-17.21-6.98-25.44-11.2-7.95-4.08-15.54-8.9-22.45-14.67-1.23-1.02-2.45-2.06-3.74-3-5.87-4.3-10.65-9.61-14.9-15.49-5.26-7.28-9.59-15.11-14.06-22.87-2.73-4.73-5.15-9.59-6.6-14.86-1.65-6.01-3.28-12.02-4.65-18.1-1.19-5.29-2.12-10.65-2.97-16.02-.94-5.96-.67-11.99-.26-17.96.87-12.54,3.02-24.9,6.08-37.1,3.24-12.93,7.96-25.31,14.34-37.01,8.88-16.26,19.83-30.91,33.76-43.28,10.12-8.99,20.51-17.61,31.79-25.1,12.94-8.59,26.83-15.17,41.83-19.34,7.01-1.95,13.98-4.02,21.2-5.08,9.65-1.42,19.27-3,29.01-3.65,7.33-.49,14.66-1.22,22-1.5,3.14-.12,6.33.11,9.49.86,6.22,1.49,12.49,2.86,18.41,5.29,8.79,3.61,17.52,7.39,26.13,11.43,15.52,7.29,29.54,16.88,42.33,28.29,5.13,4.57,10.33,9.06,15.08,14.06,7.75,8.15,14.38,17.14,20.5,26.54.65.99,1.44,1.89,2.16,2.84.15.19.33.36.42.58,3.26,7.02,6.72,13.96,9.71,21.1,5.05,12.09,8.09,24.74,9.64,37.74.94,7.89.59,15.82-.04,23.71-.49,6.05-1.1,12.1-1.98,18.11-1.23,8.45-4.36,16.35-7.61,24.18-1.47,3.54-2.95,7.08-4.56,10.56-4.53,9.8-10.67,18.58-17.61,26.77-6.62,7.81-13.55,15.35-21.01,22.38-9.22,8.69-19.03,16.59-30.31,22.55-5.96,3.15-12.23,5.55-18.48,7.98-10.35,4.03-20.81,7.79-31.57,10.6-8.45,2.21-17.01,3.72-25.74,4.22-6.94.4-13.88.82-20.82,1.23ZM15.22,190.61c0,2.48-.16,4.97.04,7.43.23,2.94.65,5.88,1.2,8.78.91,4.79,1.97,9.55,3,14.31,2.41,11.17,6.22,21.76,12.21,31.59,4.49,7.38,8.81,14.85,14.1,21.7,2.41,3.12,5.04,6,8.01,8.57,8.79,7.61,18.28,14.24,28.37,20.03.83.48,1.68.92,2.56,1.32,5.31,2.41,10.63,4.82,15.96,7.19,9.52,4.22,19.4,7.43,29.46,10.06,3.78.99,7.64,1.72,11.48,2.5,9.56,1.93,19.12,3.83,28.89,4.41.63.04,1.26-.03,1.89-.04-.25-.55-.49-1.11-.77-1.64-1.31-2.52-.57-4.57,2.07-5.58.59-.23,1.24-.43,1.86-.42,1.91.04,3.83.08,5.72.31,2.58.3,5.1.39,7.54-.67,1.9-.83,3.81-1.68,5.75-2.39,1.52-.56,2.09-1.51,1.97-3.11-.14-1.91-.15-3.83-.15-5.75,0-1.7.75-2.48,2.45-2.61.71-.06,1.44,0,2.15.08,3.68.44,6.72,1.92,8.64,5.3,1.14,2,2.9,2.99,5.22,3.39,1.43.24,2.73,1.2,4.11,1.8,1,.44,2.02,1.12,3.05,1.17,2.42.13,4.78-.25,6.63-2.15.61-.62,1.33-1.18,2.09-1.59,2.18-1.19,4.54-1.94,6.84-.64,1.82,1.02,3.11.54,4.56-.59,2.49-1.93,5.29-3.23,8.37-4.01,6.1-1.55,12.32-1.7,18.56-1.83,1.36-.03,2.46.68,3.05,1.61.64.99,1.13.89,1.92.53.36-.16.74-.3,1.11-.45,11.01-4.66,20.85-11.21,29.74-19.1,5.79-5.14,11.36-10.57,16.71-16.18,6.01-6.3,12.11-12.55,17.14-19.72,3.63-5.17,7.55-10.18,10.19-15.95,3.2-6.97,6.14-14.06,9.02-21.16,2.25-5.57,3.86-11.33,4.69-17.31,1.1-7.93,1.77-15.89,2.08-23.88.26-6.8.14-13.59-1.09-20.32-.33-1.82-.34-1.9-2.22-2.09-1.98-.2-3.25-1.26-4.04-2.96-1.24-2.67-1.64-5.5-1.31-8.42.17-1.53.53-2.9,2.09-3.8,1.02-.59,1.52-1.59,1.04-3.07-2.9-8.99-6.31-17.77-10.65-26.18-.35-.68-.85-1.29-1.28-1.93-.42.74-.9,1.44-1.24,2.21-.64,1.46-.94,3.15-1.86,4.38-1.37,1.84-1.19,3.47-.33,5.35.57,1.22,1.13,2.5,1.36,3.81.46,2.67-.83,3.78-3.37,2.93-1.14-.38-1.3.12-1.22.96.16,1.67.4,3.32.6,4.98.28,2.38.77,4.75.76,7.13-.02,4.07-.31,8.15-.6,12.21-.21,2.95-.68,5.87-1.89,8.62-1.16,2.62-3.02,4.51-5.75,5.44-2.56.87-4.64-.28-5.36-2.86-.15-.54-.28-1.09-.36-1.64-.18-1.32-.87-2.04-2.18-2.52-4.19-1.55-4.8-4.05-3.94-7.26.19-.69.38-1.4.46-2.11.17-1.5.4-3.02.36-4.52-.07-3.01-1.41-5.35-4.02-6.93-1.51-.92-3.04-1.62-4.88-1.78-3.52-.32-6.37-1.67-6.94-5.7-.03-.23-.14-.46-.24-.68-1.04-2.33-3.83-3.75-6.17-2.76-5.91,2.51-11.44,5.47-13.24,12.46-.58,2.27-1.86,4.22-3.72,5.75-3.6,2.97-3.76,3.42-1.79,7.69,1.04,2.25,1.58,4.53,1.29,6.97-.2,1.74-.48,3.47-.86,5.18-.51,2.34-1.12,4.66-1.74,6.97-.7,2.62-1.3,5.28-2.22,7.83-1.35,3.73-4.79,5.61-8.76,5.06-2.89-.4-3.68-1.28-3.76-4.23-.05-1.92-.01-3.84-.1-5.76-.16-3.37-1.19-6.4-3.39-9.04-1.38-1.66-2.68-3.39-3.91-5.16-2.13-3.07-5.27-4.3-8.76-4.84-1.74-.27-2.25.07-2.93,1.75-.42,1.03-.64,2.14-1.03,3.19-.75,2.02-2.1,3.42-4.33,3.63-.65.06-1.67-.1-1.94-.52-1.03-1.64-2.78-2.08-4.24-3.01-1.06-.67-2.2-1.41-2.9-2.41-.99-1.42-2.2-1.99-3.83-1.98-2.26.01-3.96-.98-5.3-2.78-.56-.75-1.33-1.38-2.08-1.95-.43-.33-1-.5-1.54-.62-.23-.05-.75.17-.77.3-.19,1.79-.91,3.66.6,5.25,1.97,2.08,3.72,4.41,6.39,5.7.89.43,1.34,1.06,1.36,2.05.05,2.71.1,5.42.22,8.12.18,4.26-.22,8.46-1.18,12.61-.53,2.28-.84,4.58-.14,6.87.73,2.37.54,4.76.29,7.14-.34,3.14-1.55,5.85-4.25,7.73-.65.45-1.3.96-1.81,1.57-2.81,3.36-6.62,4.93-10.66,6.09-3.64,1.05-7.31.69-10.92-.06-3-.63-4.01-2.69-3.13-5.6.12-.38.24-.76.41-1.12,1.08-2.31,2.09-4.67,3.29-6.92,1.07-2.01,1.48-4.07.83-6.24-.73-2.45-1.6-4.85-2.39-7.28-.18-.55-.45-.88-1.02-.5-2.79,1.9-5.97,2.02-9.19,2.17-1.65.08-3.32.51-4.89,1.05-1.92.66-2.24,1.53-1.89,3.64.1.63.08,1.27.09,1.91.02,1.36-.02,2.72.05,4.08.08,1.66.3,1.82,1.87,1.46,1.01-.23,2-.61,3.02-.77,1.17-.19,2.38-.36,3.55-.28,1.41.09,2.65.73,3.25,2.12.61,1.42.07,2.68-.82,3.78-.6.74-1.42,1.3-2.04,2.02-1.5,1.75-3.22,3.39-4.35,5.36-1.29,2.25-2.72,4.31-4.58,6.1-1.38,1.33-2.78,2.66-4.06,4.08-2.63,2.93-5.04,6.01-6.21,9.86-.34,1.1-.38,2.14-.09,3.28.73,2.82,1.96,5.39,3.48,7.86,1.05,1.71,2.04,3.48,1.97,5.58-.09,3.11-.03,6.25-1.03,9.26-1.23,3.72-.87,7.24,1.25,10.56.17.27.29.57.45.85,1.61,2.72,1.69,5.56.84,8.56-1.44,5.1-4.35,9.4-7.34,13.66-.75,1.07-1.8,2-3.16,1.93-2.67-.13-4.01.95-4.71,3.59-.71,2.66-2.58,4.83-5.47,5.13-4.14.44-8.13-.2-11.33-3.33-1.77-1.73-3.71-3.28-5.46-5.02-1.01-1-1.98-2.13-2.63-3.37-1.59-3.05-2.97-6.19-4.44-9.3-1.07-2.26-1.26-4.59-.66-7.01.33-1.32.6-2.65.82-3.99.43-2.66-.04-5.15-1.87-7.17-1.34-1.47-2.81-2.86-4.41-4.03-2.65-1.94-3.85-4.4-3.38-7.66.08-.55.11-1.12.27-1.65.32-1.05-.09-1.66-1.04-2.07-1.17-.51-2.29-1.16-3.47-1.63-2.13-.84-3.21-2.27-2.93-4.62.06-.47.02-.96,0-1.44-.08-1.44-.31-1.63-1.78-1.4-1.72.27-3.22,1.01-4.31,2.38-.75.93-1.42,1.93-2.03,2.96-2.29,3.87-4.87,7.52-8,10.75-6.5,6.69-14.41,8.67-23.3,6.39-8.77-2.25-13.76-10.62-11.69-19.93,1.01-4.54.56-8.52-1.9-12.36-.17-.27-.29-.57-.45-.85-2.1-3.71-2.67-7.6-1.69-11.8.92-3.93,1.72-7.97,5.05-10.61,2.76-2.19,4.75-4.75,6.14-7.96.69-1.59,1.84-2.99,2.9-4.4,1.2-1.59,1.92-3.29,1.82-5.32-.03-.71.1-1.43.17-2.15.15-1.64-.1-3.17-1.13-4.54-.83-1.11-1.26-2.37-1.27-3.8-.04-4.76,3.88-10.35,8.37-11.86,2.03-.68,3.67-.05,4.6,1.86.45.93.73,1.95,1.15,2.9.39.88.82,1.79,1.91,1.98,2.16.38,3.42,1.9,4.65,3.52.72.95,1.51,1.87,2.39,2.66.71.63,1.66,1.15,2.65.72,2.54-1.1,5.27-1.81,7.17-4.13,1.3-1.59,2.87-3.01,4.48-4.31,2.45-1.98,4.29-1.82,6.54.42,1.24,1.24,2.33,2.64,3.55,3.9.77.8,1.58,1.59,2.49,2.23,1.83,1.27,3.71,1.94,5.53-.09.2-.23.52-.38.81-.5,4.29-1.77,8.67-3.33,13.26-3.99,2.52-.36,4.55-1.12,6.33-2.93,1.67-1.71,3.48-3.29,5.36-4.77,2.34-1.86,5.04-2.14,7.95-1.56,2.84.56,4.47,2.3,5.44,4.85.25.67.41,1.38.51,2.09.39,2.82,1.68,5.11,3.79,7.01.88.79,1.73,1.35,2.96,1.3,1.68-.07,3.36-.03,5.04-.11.6-.03,1.41-.1,1.76-.49,1.67-1.87,3.92-2.33,6.18-2.92,1.38-.36,2.71-.93,4-1.54.68-.32.93-.92.57-1.8-.37-.94-.5-2-.6-3.03-.21-2.18.3-2.47-2.66-2.18-3.08.3-6.23.29-9.31-.01-3.14-.31-4.75-2.41-4.34-5.48.33-2.44-.17-4.55-1.27-6.68-1.72-3.3-2.49-6.74-.97-10.37.36-.87-.07-1.03-.85-1.19-2.77-.57-3.58-1.57-3.75-4.38-.02-.4.03-.81-.02-1.2-.16-1.1-.21-2.25-.58-3.28-.65-1.83-1.02-3.66-1.09-5.61-.11-3.04-2.35-4.71-5.34-4.16-.55.1-1.09.25-1.64.34-1.46.25-2.76-.11-3.64-1.31-1.99-2.7-4.96-2.55-7.8-2.8-.71-.06-1.08.39-.88,1.06.41,1.37.73,2.82,1.42,4.05,1.42,2.53,2.58,5.13,3.16,7.99.29,1.47,1.04,2.69,2.24,3.58,3.28,2.43,3.66,5.81,3.1,9.46-.22,1.4-.93,2.58-2.41,3.01-1.27.37-2.7-.32-3.64-1.76-.48-.73-.8-1.56-1.21-2.34-.3-.55-.57-1.09-1.02-.05-.47,1.09-1.32,1.85-2.54,1.93-1.32.09-1.91.94-2.48,1.96-.58,1.04-1.15,2.14-1.97,2.97-1.8,1.83-5.15,1.61-6.91-.31-1.87-2.04-1.65-4.98.51-6.79.37-.31.76-.59,1.18-.83,2.17-1.23,2.88-3.1,2.47-5.48-.56-3.23-.95-6.5-1.73-9.67-.63-2.55-1.65-5.06-3.9-6.71-1.22-.89-2.56-1.65-3.89-2.36-4.13-2.21-8.34-2.3-12.72-.61-2.16.83-3.73,2.35-5.48,3.72-.97.77-1.27,1.38-.92,2.59.39,1.33,1.12,2.23,2.25,2.96,1.47.96,3,1.88,4.26,3.08.88.84,1.63,2.03,1.94,3.2.73,2.78.42,5.59-.82,8.19-1.07,2.25-2.89,3.58-5.49,3.63-.88.02-1.76.09-2.63.11-2.45.06-4.02,1.2-4.75,3.6-.88,2.9-1.95,5.74-2.81,8.65-.7,2.37-1.97,4.15-4.28,5.14-2.2.94-4.39,1.03-6.44-.25-2.07-1.29-4.31-1.96-6.66-2.57-3.77-.97-6.25-3.41-7.07-7.33-.21-1.02-.31-2.05-.51-3.07-.29-1.49-.36-3.09-.99-4.42-1.75-3.72-2-7.57-1.31-11.49.71-4.02.8-7.84-1.05-11.68-1.08-2.24-.32-4.52,1.35-6.43,2.58-2.95,5.83-3.52,9.39-2.51,3.32.94,6.62,1.12,9.95.36,2.79-.64,5.62-1.23,8.3-2.21,2.38-.87,4.53-2.38,6.89-3.33,1.52-.61,3.23-.93,4.87-1.01,2.26-.11,4.25-.53,5.79-2.34,1.05-1.23,2.44-1.72,4.07-1.63,1.11.06,2.24.03,3.35-.09,3.09-.33,3.85-1.06,4.35-4.08.12-.71.14-1.43.27-2.14.54-3.03,3.24-5.71,6.25-6.23,1.69-.29,2.86.34,3.31,1.98.29,1.07.35,2.2.45,3.31.08.95,0,1.93.13,2.87.21,1.46.94,2.31,2.33,2.29,2.88-.03,5.97.49,8.04-2.43.44-.62,1.21-1.03,1.87-1.48,1.54-1.06,3.21-1.39,5.01-.78.45.15.91.32,1.37.43,1.75.45,2.28.25,2.91-1.49.72-2.01,1.95-3.46,3.95-4.23,1.92-.73,3.13-2.14,3.9-4,1.01-2.44,2.01-4.87,3.1-7.27.62-1.38,1.28-2.77,2.16-3.99,1.37-1.93,3.27-2.94,5.75-2.86,1.88.06,3.67.33,5.32,1.21,1.51.81,3.09.68,4.68.55.68-.06.98-.38.66-1.13-.65-1.53-.1-2.98.39-4.42.39-1.13.91-2.24,1.13-3.4.33-1.72-1.08-2.95-2.76-2.5-.69.18-1.35.5-2,.8-3.18,1.46-5.51.69-7.15-2.41-.34-.63-.55-1.34-.92-1.95-.77-1.25-3-2.36-3.86-1.76-1.93,1.34-4.16,2.5-3.87,5.51.2,2.13-.73,3.88-2.39,5.24-.5.4-.97.84-1.48,1.22-2.33,1.74-3.82,4.05-4.71,6.78-.35,1.06-.63,2.15-.98,3.21-.96,2.85-2.64,5.14-5.46,6.35-2.71,1.16-5.48,2.2-8.26,3.19-.88.31-1.89.42-2.83.38-2.24-.09-3.68-1.68-3.66-3.92.01-1.76.73-3.27,1.86-4.57.89-1.03,1.96-1.91,2.76-3,1.04-1.4,1.94-2.91,2.79-4.43.3-.53.32-1.22.39-1.85.09-.77-.17-1.25-1.08-1.03-2.45.58-4.83,1.35-6.32,3.56-2.3,3.43-5.86,4.8-9.52,6.04-1.75.59-3.48.31-5.18-.23-2.9-.93-4.16-2.7-4.04-5.72.04-.96.06-1.95.33-2.85.97-3.23,1.58-6.51,1.71-9.89.09-2.4,1.41-4.13,3.66-4.85,1.57-.5,3.28-.73,4.93-.75,4.48-.06,8.46-1.44,12.07-4.02,1.3-.93,2.64-1.81,3.87-2.83,2.57-2.13,5.47-3.54,8.7-4.38,2.32-.6,4.62-1.32,6.85-2.19,3.38-1.31,6.45-3.18,9.25-5.48,2.68-2.21,5.77-3.57,9.18-3.73,3.01-.14,6.06.15,9.07.51,4.16.49,6.97,2.93,8.69,6.7.86,1.89,1.88,3.71,2.67,5.63.58,1.39,1.13,2.85,1.31,4.32.35,2.93-1.27,5.5-3.97,6.41-.93.31-2.03.12-3.05.22-.21.02-.58.37-.55.47.38,1.2.64,2.41,1.91,3.17,5.64,3.37,12.28.96,15.03-3.41,2.14-3.39,3.8-6.86,3.12-11.02-.08-.47-.01-.96-.07-1.44-.4-3.27,1.09-5.52,3.81-7.13,1.72-1.02,3.45-2.02,5.08-3.18,2.22-1.57,2.8-3.5,1.98-6.08-.24-.76-.62-1.47-.91-2.22-.51-1.26-1.06-2.5-1.49-3.79-1.08-3.29-.39-4.76,2.76-6,.22-.09.48-.1.68-.22.26-.16.48-.39.71-.59-.28-.14-.55-.32-.84-.41-6.71-2.12-13.44-4.16-20.56-4.43-2.31-.09-4.62-.58-6.91-.46-4.87.25-9.72.81-14.58,1.17-10.69.81-21.28,2.48-31.85,4.18-8.86,1.42-17.45,4-25.95,6.78-4.62,1.51-9.11,3.46-13.66,5.19-1.03.39-1.6.97-1.92,2.16-.54,1.95-.92,3.87-.85,5.89.15,4.68-2.01,7.74-6.45,9.24-.9.31-1.79.71-2.63,1.16-2.32,1.24-3.73,3.01-4.11,5.78-.27,2.02-.99,4.06-1.91,5.88-1.39,2.75-4.1,3.76-6.65,2.34-2.13-1.19-3.74-.65-5.54.41-1.23.73-2.5,1.48-3.85,1.9-3.04.95-5.28-.69-5.34-3.89-.03-1.51.25-3.02.35-4.53.03-.37-.06-.76-.09-1.14-.35.16-.75.25-1.03.49-3.7,3.18-7.36,6.4-11.06,9.58-15.32,13.16-27.16,29.03-36.42,46.88-6.63,12.77-11.28,26.27-14.26,40.34-2.63,12.45-4.64,24.99-4.6,37.76ZM192.45,37.96c-5.44.23-7.4.91-11.75,4.22-3.39,2.58-6.97,4.93-11.14,5.95-6.25,1.52-11.79,4.21-16.82,8.25-3.96,3.18-8.66,4.74-13.84,4.49-.71-.03-1.45,0-2.15.11-2.74.45-3.91,1.71-3.96,4.52-.06,2.75-.59,5.39-1.27,8.03-.3,1.15-.51,2.34-.63,3.53-.13,1.3.35,2.5,1.6,2.94,1.32.46,2.87,1.02,4.14.73,3.43-.78,6.74-2,8.92-5.12,2.13-3.04,5.38-4.15,8.83-4.77,1.54-.28,2.48.44,2.62,2.06.11,1.24.01,2.56-.31,3.77-.61,2.28-1.96,4.17-3.59,5.87-.99,1.04-2.01,2.07-2.88,3.21-.74.97-1.32,2.19-.56,3.33.76,1.14,2.07.72,3.09.38,2.72-.92,5.41-1.94,8.08-3.02,2.14-.86,3.42-2.58,4.2-4.68.33-.9.55-1.84.83-2.75,1.08-3.53,2.85-6.61,5.96-8.75,2.01-1.38,2.95-3.19,2.93-5.67-.02-2.35,3.27-6.08,5.55-6.56.46-.1.98-.13,1.43-.02,2.16.53,4.07,1.43,5.03,3.65.28.66.59,1.32,1.01,1.89,1.02,1.39,1.92,1.58,3.51.88.8-.36,1.58-.8,2.41-1.07,3.58-1.17,6.7,1.67,5.87,5.36-.28,1.24-.77,2.44-1.19,3.64-.38,1.08-.72,2.09.1,3.18.22.29.12,1.26-.13,1.4-1.22.7-2.5,1.36-3.84,1.8-2.09.69-4.05-.13-6.06-.69-5.2-1.46-6.75,0-8.57,3.64-.32.64-.51,1.34-.8,2-1.05,2.42-2.08,4.84-3.17,7.25-.81,1.81-2.03,3.29-3.92,4.03-2,.78-3.25,2.07-3.93,4.17-.63,1.94-2.14,2.65-4.18,2.39-.63-.08-1.26-.26-1.85-.49-2.2-.85-3.84-.06-5.29,1.6-.56.64-1.26,1.31-2.02,1.56-2.59.85-5.26,1.37-8.01,1.24-2.04-.09-3.49-1.2-3.99-3.18-.27-1.07-.31-2.21-.42-3.31-.08-.87-.07-1.76-.17-2.63-.11-.89-.6-1.29-1.5-.89-2,.88-3.54,2.18-3.88,4.5-.13.87-.18,1.76-.39,2.61-.65,2.63-2.11,4.48-5.01,4.73-1.27.11-2.55.27-3.82.21-1.62-.07-2.97.3-4.06,1.58-1.39,1.62-3.25,2.29-5.34,2.28-2.55-.02-4.87.67-7.09,1.89-3.66,2-7.56,3.48-11.6,4.49-4.21,1.06-8.47,1.74-12.76.28-.75-.25-1.57-.33-2.36-.4-4.77-.38-7.49,3.39-5.51,7.74,1.1,2.41,1.5,4.86,1.15,7.47-.27,1.98-.47,3.97-.75,5.95-.32,2.28.12,4.42.85,6.58.73,2.18,1.17,4.46,1.71,6.7.19.78.27,1.57.41,2.36.57,3.18,2.51,5.15,5.59,5.85,2.44.56,4.75,1.3,6.85,2.72,1.6,1.09,3.3.92,5.01.07,1.68-.84,2.27-2.33,2.78-3.98.97-3.13,1.99-6.23,3.06-9.32.85-2.44,2.65-3.73,5.2-3.96.95-.08,1.91-.12,2.87-.16,2.9-.14,4.19-1.15,4.87-4,.26-1.08.32-2.21.38-3.32.1-1.81-.59-3.29-2.07-4.34-1.11-.79-2.2-1.61-3.38-2.27-2.44-1.36-3.22-3.67-3.57-6.18-.08-.56.17-1.35.56-1.75,1.32-1.37,2.62-2.84,4.2-3.86,3.65-2.35,7.71-3.44,12.1-3.05.31.03.76,0,.91.19.91,1.09,2.3.95,3.45,1.44,2.8,1.19,5.72,2.27,7.65,4.75,1.72,2.22,2.87,4.79,3.31,7.62.28,1.82.71,3.61.96,5.43.24,1.74.4,3.49.5,5.24.13,2.18-.84,3.86-2.57,5.12-.71.52-1.51.94-2.14,1.53-1.24,1.16-.83,3.06.74,3.72,1.17.5,2.4.22,3.2-.85.48-.63.81-1.37,1.2-2.07.8-1.43,1.67-2.74,3.56-2.83.93-.04,1.42-.67,1.57-1.54.16-.95.17-1.93.44-2.84.16-.52.65-1.23,1.09-1.3.45-.08,1.23.39,1.49.83.64,1.1,1.03,2.33,1.57,3.49.43.94.83,1.92,1.41,2.77.68,1,1.44.82,1.88-.33.76-2.01-.1-5.95-1.79-7.06-1.64-1.08-2.89-2.58-3.32-4.54-.69-3.08-2.06-5.84-3.46-8.64-.8-1.6-1.16-3.48-1.4-5.27-.22-1.65.52-2.37,2.19-2.46,1.35-.07,2.72-.02,4.07.14,2.41.29,4.75.84,6.27,3.02.53.75,1.28.89,2.13.75.39-.07.78-.15,1.18-.23,4.36-.84,7.65,1.77,7.95,6.28.05.8.05,1.63.3,2.37.9,2.66,1.59,5.35,1.58,8.19,0,.99.49,1.65,1.61,1.69,1.16.04,1.86-.34,2.13-1.49.2-.85.29-1.75.26-2.62-.13-4.3.84-8.6-.13-12.91-.58-2.61,2.43-5.68,4.53-5.49,2.07.19,3.27-.95,4.41-2.34,1.32-1.61,2.7-2.85,4.96-3.36,3.31-.75,5.99-.28,8.11,2.31,1.22,1.48,1.36,2.72.44,4.42-.5.91-1.11,1.76-1.62,2.66-1.3,2.35-1.45,4.66.2,6.97,1.21,1.69,2.26,3.49,3.41,5.22.96,1.45,1.47,3.05,1.36,4.76-.17,2.57-.72,5.06-1.93,7.37-.68,1.3-1.58,2.42-2.96,3.03-2.13.95-4.31,1.61-6.69,1.67-4.57.11-8.27-2.15-12.07-4.16-.59-.31-1.14-.72-1.7-1.08-.2.67-.52,1.34-.57,2.02-.06.85-.03,1.76.22,2.57.39,1.3.87,2.59,1.51,3.78,1.13,2.12,1.53,4.3,1.28,6.71-.29,2.8.63,3.71,3.5,3.92.4.03.8.03,1.2.03,2.71-.03,5.42.13,8.11-.51,2.09-.5,2.93.2,3.4,2.3.09.39.11.79.16,1.19.19,1.58.36,3.16.57,4.74.15,1.13-.17,2.11-1.04,2.79-.81.63-1.7,1.23-2.64,1.59-1.41.54-2.94.76-4.35,1.3-1.09.42-2.23.94-3.05,1.73-.95.91-1.93,1.32-3.19,1.3-2-.03-4-.05-6,.02-1.56.05-2.75-.58-3.86-1.6-2.49-2.29-4.25-4.96-4.77-8.36-.11-.71-.28-1.42-.54-2.08-.67-1.77-1.89-2.87-3.82-3.23-2.16-.4-4.18-.19-5.9,1.22-1.79,1.46-3.55,2.98-5.16,4.63-2,2.05-4.29,3.21-7.17,3.42-1.49.11-2.95.61-4.41.99-1.31.34-2.61.76-3.91,1.15-2.07.62-4.2,1.12-5.85,2.63-1.65,1.5-3.42,1.48-5.34.68-1.88-.78-3.5-1.9-4.85-3.43-1.27-1.44-2.52-2.9-3.88-4.25-1.23-1.21-1.73-1.23-3.12-.16-1.14.87-2.32,1.77-3.18,2.9-2.08,2.72-4.89,4.21-7.95,5.53-2.66,1.14-4.84.66-6.81-1.2-.98-.92-1.76-2.06-2.61-3.12-.76-.95-1.53-1.86-2.82-2.07-1.78-.29-2.76-1.51-3.45-3.02-.37-.8-.61-1.65-.95-2.46-.71-1.71-1.27-1.92-2.92-.97-2.05,1.18-3.74,2.77-4.87,4.85-1.34,2.45-1.79,4.96.09,7.41.91,1.19,1.23,2.59,1.18,4.07-.03,1.04-.2,2.08-.14,3.11.16,2.62-.81,4.78-2.25,6.91-1.55,2.31-2.95,4.74-4.17,7.24-.69,1.41-1.45,2.57-2.77,3.47-3.08,2.09-5.23,4.89-5.99,8.63-.25,1.25-.46,2.52-.8,3.75-.76,2.78-.24,5.39.97,7.91.73,1.51,1.49,3.01,2.29,4.48,1.63,3.01,2.07,6.15,1.35,9.51-.37,1.71-.47,3.48-.7,5.21-.88,6.5,4.94,12.93,10.86,14.19,8.05,1.72,15.03-.23,20.75-6.31,2.76-2.93,5.03-6.2,7.13-9.61.71-1.15,1.43-2.32,2.26-3.38,1.73-2.19,4.1-3.27,6.84-3.51,2.28-.19,3.44.84,3.59,3.12.05.72.13,1.45.06,2.16-.13,1.34.49,2.07,1.67,2.55,1.18.49,2.32,1.08,3.46,1.65,2.33,1.17,2.69,1.88,2.22,4.36-.07.39-.16.78-.23,1.18-.46,2.61.24,4.69,2.57,6.2,1.2.78,2.26,1.79,3.31,2.76,3.42,3.15,4.45,7.08,3.61,11.57-.18.94-.42,1.87-.65,2.8-.51,2.09-.38,4.1.59,6.07,1.41,2.87,2.71,5.79,4.15,8.64.5.98,1.2,1.91,1.99,2.67,2.01,1.94,4.11,3.79,6.19,5.66,2.44,2.19,5.47,2.53,8.52,2.43.9-.03,1.94-.78,2.61-1.49.73-.79,1.24-1.86,1.61-2.9,1.2-3.45,1.89-4.09,5.42-4.28,1.13-.06,2.05-.38,2.68-1.3,2.4-3.49,4.71-7.02,6.28-11.01,1.36-3.45,1.38-6.68-.81-9.78-.14-.19-.22-.43-.33-.64-1.58-2.93-2.05-5.96-1.28-9.27.64-2.79.98-5.65,1.36-8.5.29-2.14-.34-4.1-1.48-5.93-.88-1.42-1.75-2.88-2.44-4.4-1.31-2.86-2.49-5.78-.69-8.91.11-.2.12-.46.18-.69.64-2.34,1.61-4.55,3.14-6.42,2.12-2.59,4.4-5.06,6.59-7.59,1.3-1.51,2.9-2.87,3.79-4.59,1.54-2.99,3.67-5.4,6.08-7.64.53-.49,1.09-.96,1.5-1.54.72-1.03.39-1.96-.84-2.09-1.08-.11-2.22.04-3.3.24-1.41.26-2.77.79-4.18,1.03-2,.33-2.7-.17-2.94-2.14-.21-1.74-.22-3.51-.29-5.26-.04-1.03.08-2.06-.8-2.9-.55-.53-.39-1.13.2-1.65.35-.31.7-.67.92-1.08.89-1.66,2.3-2.68,4.08-3.1,1.7-.4,3.44-.82,5.17-.88,2.95-.1,5.67-.62,8.12-2.43,1.6-1.18,2.62-.79,3.28,1.06.87,2.4,1.62,4.85,2.48,7.26,1.32,3.71.96,7.15-1.13,10.55-1.24,2.02-2.1,4.3-3,6.52-.56,1.39-.17,2.15,1.25,2.55.98.28,2.05.29,3.07.41,6.36.76,11.82-1.1,16.37-5.61.57-.56,1.16-1.12,1.81-1.57,2.41-1.68,3.67-4.01,3.77-6.89.07-1.89.05-3.84-.31-5.69-.5-2.56-.61-5.07-.07-7.61.88-4.08,1.37-8.19,1.26-12.37-.04-1.51.18-3.02.25-4.53.04-.88.09-1.78-.06-2.63-.1-.55-.45-1.27-.9-1.51-2.39-1.27-4.12-3.27-5.96-5.15-1.58-1.61-2.45-3.52-2.04-5.87.11-.62-.02-1.27-.03-1.91-.05-1.77.27-2.13,1.98-2.24,2.54-.16,4.56.96,6.04,2.86,1.4,1.79,3.01,2.73,5.3,2.66,1.3-.04,2.63.34,3.37,1.51,1.22,1.93,3.02,3,5.02,3.89.72.32,1.39.79,2.02,1.27,1.57,1.2,2.4,1.1,3.31-.62.37-.7.53-1.5.83-2.24.38-.96.72-1.95,1.21-2.85.8-1.49,2.13-2.17,3.8-1.93,4.3.62,8.24,1.95,10.97,5.66,1.51,2.06,3.11,4.07,4.65,6.1,1.68,2.22,2.73,4.71,2.96,7.48.21,2.63.25,5.26.37,7.9.07,1.6.37,1.91,1.97,2.07,2.85.28,5.2-1.11,6.25-3.76.38-.96.7-1.96.96-2.96,1.11-4.33,2.23-8.67,3.26-13.02.75-3.18.9-6.33-.82-9.32-.32-.55-.5-1.18-.72-1.77-1.06-2.89-.64-5.48,1.79-7.33,2.65-2.01,4.1-4.61,4.99-7.67.67-2.27,1.86-4.27,3.64-5.83,2.9-2.54,6.06-4.74,9.71-6.06,1.16-.42,2.52-.71,3.72-.55,3.4.45,5.79,2.32,6.5,5.8.44,2.17,1.81,3.08,3.75,3.47.94.18,1.93.16,2.84.41,3.96,1.11,7.18,3.2,8.6,7.26.8,2.29.92,4.7.44,7.1-.3,1.49-.61,2.98-.98,4.45-.27,1.07.05,1.93.86,2.56.62.48,1.32.97,2.06,1.15,2.09.5,3.04,1.91,3.45,3.86.1.47.15.95.29,1.41.47,1.61,1.3,2.02,2.89,1.36,1.7-.7,2.91-1.93,3.71-3.59,1.05-2.19,1.64-4.51,1.79-6.92.25-3.83.38-7.66.69-11.49.22-2.74.05-5.42-.54-8.09-.32-1.48-.5-2.99-.71-4.49-.17-1.25-.13-2.47-.92-3.64-.76-1.13-.02-2.25,1.41-2.22,1,.02,1.99.43,2.98.7.68.19.93-.04.7-.68-.54-1.5-1.13-2.98-1.69-4.48-.44-1.17-.6-2.44.15-3.47,1.88-2.58,2.36-5.75,3.78-8.52.72-1.4.7-2.69-.18-4.06-4.86-7.62-9.89-15.11-15.71-22.05-7.74-9.24-16.66-17.24-25.88-24.93-8.12-6.77-16.7-12.88-25.93-18.09-10.88-6.15-22.33-11.08-33.77-16.04-.59-.25-1.19-.49-1.81-.63-.45-.1-.96-.15-1.4-.04-1.22.31-2.41.76-3.63,1.08-2.76.73-3.05,1.19-2.05,3.83.65,1.72,1.46,3.37,2.14,5.08,1.12,2.82.92,7.07-2.72,9.3-1.7,1.04-3.34,2.21-5.09,3.17-2.36,1.29-3.27,3.2-2.77,5.79.91,4.72-.69,8.77-3.13,12.7-3.68,5.93-11.21,8.56-18.44,4.43-1.16-.66-2.07-1.55-2.51-2.8-1.55-4.48-4.03-8.44-6.84-12.21-.46-.62.04-1.05.44-.96.98.22,2.09.47,2.8,1.1,1.29,1.17,2.34,2.61,3.46,3.95.66.8,1.2,1.71,1.93,2.44,1,1,1.81,1.01,3.03.31,1.82-1.05,2.6-3.09,1.64-5.45-1.29-3.18-2.81-6.27-4.35-9.33-.95-1.88-2.6-3.05-4.67-3.44-2.27-.42-4.56-.71-6.84-1.06Zm-4.17,291.06c0,.09,0,.19,0,.28,4.31-.24,8.61-.53,12.92-.69,9.2-.36,18.33-1.33,27.31-3.42,8.33-1.94,16.49-4.5,24.51-7.48,5.39-2,10.76-4.07,16.13-6.13.41-.16.73-.52,1.09-.79-.44-.4-.85-.86-1.34-1.19-.23-.15-.62-.05-.94-.06-1.68-.03-3.36-.19-5.03-.07-3.26.23-6.54.43-9.76,1-3.81.67-7.33,2.21-10.46,4.56-1.67,1.25-3.39,1.65-5.34.53-2.05-1.17-4.04-.63-5.86.57-.93.61-1.69,1.46-2.56,2.16-3.02,2.46-8.01,2.57-11.18.39-.96-.66-2.09-1.37-3.2-1.47-3.17-.29-5.39-1.84-6.95-4.47-1.7-2.85-4.37-3.82-7.49-3.96-1.46-.06-1.58.14-1.51,1.67.08,1.83.17,3.67.14,5.5-.03,1.74-.83,3.04-2.51,3.72-2.52,1.02-4.97,2.22-7.54,3.06-1.56.51-3.29.61-4.95.65-1.42.03-2.85-.37-4.29-.41-1.58-.05-3.21-.13-4.73.19-1.68.36-2.01,1.47-1.01,2.87,1.26,1.77,2.98,2.92,5.22,2.96,3.12.05,6.23.01,9.35.01Zm1.88-179.53c7.44-.41,8.62-2.9,9.59-8.24.38-2.11.05-4.08-1.31-5.89-1.24-1.66-2.25-3.49-3.39-5.23-1.43-2.19-1.58-4.51-.6-6.86.55-1.32,1.3-2.55,2.01-3.8.91-1.6.91-2.16-.46-3.3-.72-.6-1.57-1.18-2.46-1.42-.78-.21-1.89-.24-2.49.18-1.49,1.01-2.84,2.26-4.12,3.54-1.54,1.54-2.93,3.07-5.45,2.99-1.9-.06-2.93,1.5-2.72,3.41.18,1.58.37,3.17.35,4.75-.05,3.03-.17,6.07-.42,9.09-.1,1.15-.47,2.36-1.01,3.38-.44.83-.2,1.13.29,1.78,1.75,2.29,4.3,3.26,6.79,4.31,1.75.74,3.51,1.62,5.39,1.31ZM84.63,59.98c0-.14,0,.09,0,.33-.03,2.69.95,3.33,3.42,2.15,1.22-.58,2.38-1.29,3.56-1.96,1.93-1.09,3.8-1.29,5.87-.16,1.98,1.08,3.36.59,4.28-1.44.69-1.51,1.28-3.15,1.45-4.78.41-3.75,2.52-6.1,5.69-7.71,1.13-.58,2.33-1.04,3.51-1.52,2.58-1.05,3.85-2.98,3.91-5.74.03-1.28.04-2.55.09-3.83.03-.76.11-1.53.16-2.29-.73.28-1.47.55-2.2.83-.15.06-.29.14-.43.21-8.69,4.31-16.47,10.03-24.39,15.56-3.1,2.16-4.37,4.83-4.77,8.27-.06.55-.09,1.11-.17,2.05Zm278.18,90.53c-.7-3.22-1.34-6.27-2.02-9.31-.11-.51-.41-.97-.62-1.46-.45.41-.98.76-1.31,1.25-.4.58-.89,1.29-.87,1.93.06,2.4.38,4.78,1.64,6.92.54.92,1.36,1.36,2.4,1.23.28-.03.53-.37.78-.56Z"/><path class="cls-1" d="m354.3,170.72c-.02.14,0,.56-.13.93-1.44,4.42-.77,8.89-.04,13.28.79,4.77.87,9.54.8,14.33,0,.48-.05.96-.14,1.43-.3,1.53-1.07,2.21-2.6,2.33-.08,0-.16,0-.24,0-3.98.11-8.55-4.71-8.18-8.69.1-1.1.36-2.21.68-3.28,1.41-4.8.3-9.09-2.46-13.11-.39-.56-.61-1.31-.69-1.99-.12-1.03-.04-2.07-.07-3.11-.03-1.05.36-1.77,1.31-2.34,1.29-.78,2.4-1.88,3.71-2.62,1.16-.65,2.46-1.23,3.77-1.42,2.84-.42,4.4,1.14,4.27,4.24Zm-8.11,23.54c-.11,2.73,2.95,6.1,5.36,6.34.6.06.89-.21.94-.78.05-.56.09-1.11.12-1.67.24-4.4-.15-8.74-.77-13.1-.65-4.55-1.51-9.16.12-13.71.08-.22.08-.47.1-.71.13-1.66-.43-2.21-2.09-1.85-.76.16-1.53.49-2.19.9-1.14.72-2.15,1.66-3.31,2.35-1.1.65-1.26,1.58-1.1,2.64.09.62.33,1.22.56,1.81.82,2.07,1.7,4.12,2.48,6.21,1.1,2.92,1.21,5.9.36,8.92-.28.99-.45,2.02-.59,2.65Z"/><path class="cls-1" d="m112.72,87.27c-.38,1.67-.68,3.39-1.17,5.06-.51,1.75-1.7,3.01-3.24,4-2.61,1.67-5.18,3.42-7.77,5.13-.6.4-1.19.8-1.8,1.18-2.02,1.26-4.12,1.61-6.37.57-.44-.2-1.02-.28-1.48-.17-1.3.29-1.77.1-1.85-1.14-.14-1.99.31-3.86,1.82-5.24.99-.91,2.13-1.66,3.29-2.34,1.5-.88,2.57-1.96,3.21-3.66,1.53-4.07,4.54-6.86,8.29-8.91.49-.26,1.02-.48,1.55-.61,2.1-.52,3.9.31,4.65,2.32.44,1.17.57,2.46.86,3.82Zm-2.26.23c-.08-.74-.1-1.14-.16-1.53-.45-2.81-1.65-3.42-4.13-1.95-3.03,1.79-5.54,4.13-6.71,7.54-.76,2.2-2.17,3.65-4.14,4.73-.9.5-1.89,1-2.54,1.76-.63.73-.88,1.79-1.3,2.7.76.38,1.49.97,2.29,1.09.9.13,1.92,0,2.77-.32.95-.36,1.79-1.03,2.64-1.62,2.64-1.8,5.23-3.65,7.89-5.41,1.19-.79,2.09-1.76,2.48-3.11.4-1.37.65-2.79.89-3.87Z"/></svg>