<?xml version="1.0" encoding="UTF-8"?><svg id="Layer_1" xmlns="http://www.w3.org/2000/svg" viewBox="0 0 388 453"><defs><style>.cls-1{fill:#fffaef;}</style></defs><path class="cls-1" d="m268.31,314.78l7.49,20.57c-74.49,27.11-156.86-11.3-183.97-85.79-27.11-74.49,11.3-156.86,85.79-183.97l7.49,20.57,11.49-4.18-14.19-38.98-11.49,4.18c-84.66,30.81-128.31,124.42-97.5,209.08,21.04,57.81,71.37,96.49,128.12,105.4v36.26h-45.15v12.06h110.61v-12.06h-45.15v-34.36c20.08.6,40.62-2.51,60.65-9.8l11.49-4.18-14.19-38.98-11.49,4.18Z"/><path class="cls-1" d="m236.6,197.42v30.16h53.02c-1.47,14.97-8.49,27.82-21.07,38.56-12.58,10.65-26.77,15.98-42.56,15.98-18.55,0-35.76-7.11-51.65-21.35-16.99-15.33-25.48-34.84-25.48-58.53s7.62-42.05,22.86-57.29c15.24-15.51,34.11-23.27,56.6-23.27,25.07,0,46.32,11.62,63.76,34.84l22.86-21.9c-13.31-15.24-26.86-26.26-40.63-33.05-14.41-6.79-29.93-10.19-46.55-10.19-30.94,0-57.2,10.79-78.78,32.36-21.58,21.48-32.36,47.65-32.36,78.5s10.6,56.1,31.81,77.67c21.21,21.48,46.69,32.23,76.44,32.23s55.59-11.11,75.33-33.33c8.72-9.92,14.92-20.57,18.59-31.95,3.76-12.3,5.65-26.44,5.65-42.42v-7.02h-87.87Z"/></svg>