<?xml version="1.0" encoding="UTF-8"?><svg id="Mikrofonhånd_Image" xmlns="http://www.w3.org/2000/svg" viewBox="0 0 164 287"><defs><style>.cls-1{fill:#fffaef;}</style></defs><path class="cls-1" d="m27,126.48c-.52-.6-.98-1.26-1.56-1.79-2.7-2.51-5.19-5.21-7.41-8.16-2.52-3.35-4.56-6.95-5.6-11.05-.38-1.5-.51-3-.26-4.52.09-.55.24-1.1.46-1.6.65-1.47,1.69-2.01,3.29-1.74.55.09,1.06.35,1.61.46.37.07.76.01,1.36.01-.46-.76-.8-1.37-1.18-1.96-1.82-2.88-2.98-5.99-3.44-9.38-.24-1.79-.04-3.53.5-5.21.81-2.54,2.67-4.12,5.13-5,3.43-1.23,6.9-1.15,10.37-.11.68.2,1.35.46,2,.69.47-.51.1-.97-.03-1.37-.71-2.28-.64-4.61-.26-6.9.88-5.26,6.04-7.92,9.97-7.48,1.64.18,3.26.58,4.96.89,1.41-3.08,2.97-6.14,6.9-6.99,4.06-14.2,10.55-27.5,15.97-41.33.45-.05.91-.19,1.37-.15,7.75.64,15.39,1.75,22.69,4.65,3.49,1.38,7.08,2.5,10.63,3.72,5.92,2.04,11.44,4.93,16.85,8.05.75.43,1.44,1.01,2.05,1.63.38.38.25.89-.44,1.3-.23-.09-.6-.19-.94-.35-2.17-1.01-4.37-1.99-6.51-3.06-4.65-2.32-9.38-4.47-14.32-6.13-3.56-1.2-7.1-2.47-10.61-3.79-4.21-1.59-8.56-2.57-13-3.25-1.66-.25-3.31-.54-4.97-.8-.54-.08-1.09-.13-1.56-.18-.19.21-.34.3-.38.44-2.01,6.42-4.7,12.57-7.21,18.79-2.66,6.6-5.26,13.22-7.88,19.83-.11.29-.13.61-.18.87.48.65,1.14.67,1.77.75,2.55.33,5.03.98,7.43,1.85,4.8,1.76,9.6,3.54,14.36,5.4,1.63.64,3.16,1.53,4.72,2.34,2.27,1.17,4.52,2.38,6.83,3.6.41-.39.75-.71,1.08-1.03,1.37-1.34,2.68-2.76,4.13-4.01,10.53-9.05,19.95-19.16,28.55-30.05.2-.25.41-.49.65-.69.1-.09.29-.08.61-.17.14.39.45.83.39,1.2-.11.61-.41,1.2-.73,1.74-1.05,1.8-2.4,3.38-3.76,4.95-2.04,2.35-4.02,4.77-6.06,7.13-5.55,6.44-11.89,12.07-18.24,17.7-1.49,1.32-3.06,2.56-4.43,4.26.44.32.77.61,1.15.84.48.29.98.54,1.47.8,6.41,3.45,6.58,3.69,11.57,9.1,4.01,4.36,7.94,8.78,11.59,13.44,5.79,7.4,9.92,15.64,12.49,24.66.55,1.93.77,3.91.79,5.93.02,3.21-.22,6.39-.63,9.56-.43,3.33-.71,6.69-1.36,9.97-1.03,5.17-2.27,10.3-3.51,15.42-.23.97-.26,1.82-.08,2.8,1.26,6.76,2.44,13.52,3.28,20.35.39,3.16,1.24,6.27,1.97,9.38,2.41,10.19,5.35,20.24,8.33,30.28,4.02,13.49,7.34,27.16,10.61,40.84,1.32,5.52,2.88,10.97,4.33,16.46.08.28.13.58.22,1.03-.98-.29-1.39-.89-1.7-1.5-.69-1.35-1.38-2.71-1.93-4.12-1.68-4.25-2.71-8.7-3.77-13.13-3.25-13.69-6.67-27.33-10.67-40.82-2.84-9.58-5.54-19.2-7.76-28.94-.57-2.5-1.08-4.99-1.26-7.56-.29-4-1.45-7.85-2.06-11.8-.27-1.74-.58-3.47-.95-5.19-.59-2.73-1.25-5.44-1.88-8.16-.09-.39-.25-.76-.33-1.15-.3-1.52.16-1.93,1.82-1.64.08.01.16.02.33.05.16-.6.35-1.2.47-1.81,1.24-6.59,2.73-13.14,3.23-19.87.26-3.5.88-6.98.71-10.51-.08-1.59-.21-3.21-.61-4.74-1.88-7.09-4.91-13.69-8.98-19.79-3.69-5.53-7.99-10.6-12.55-15.43-.88-.93-1.77-1.85-2.59-2.84-1.56-1.88-3.45-3.31-5.56-4.5-.83-.47-1.6-1.05-2.39-1.59-1.52-1.03-3-2.12-4.56-3.09-.64-.4-1.44-.54-2.34-.86-.31-.26-.73-.74-1.26-1.04-2.64-1.5-5.29-2.97-7.96-4.42-.84-.46-1.71-.88-2.6-1.23-4.53-1.79-9.06-3.59-13.62-5.32-2.77-1.05-5.62-1.84-8.55-2.32-.86-.14-1.73-.19-2.42-.26-3.7,2.21-5.79,8.32-3.23,12.92,2.22,4,5.37,6.96,9.44,8.91,3.17,1.52,6.46,2.78,9.68,4.18,5.13,2.23,10.26,4.47,15.38,6.72.36.16.67.41,1.03.64.2,1.1.69,2.14-.3,3.13-.17.17-.08.61-.09.93-.12,4.17.17,8.31.72,12.44,1.16,8.67,3.58,17.04,6.23,25.34.41,1.27,1.01,2.48,1.51,3.7-.43.35-.63.03-.83-.18-1.22-1.3-2.04-2.86-2.7-4.5-1.77-4.38-3.08-8.91-4.17-13.5-1.65-6.94-2.62-13.98-2.53-21.14.02-1.35.15-2.71.23-4.12-.55-.61-1.22-.9-2.2-1,.09.45.11.75.21,1.03,1.29,3.55,1.3,7.22,1.02,10.9-.16,2.07-.57,4.11-1.18,6.11-.69,2.27-2.04,3.75-4.39,4.28-.36.08-.7.28-1.18.48.53.69.98,1.25,1.39,1.82,1.54,2.16,2.33,4.56,2.08,7.21-.09.94-.32,1.91-.71,2.76-1.12,2.39-3.34,3.62-6.09,3.35-2.23-.22-4.41-.7-6.49-1.62-7.37-3.29-14.7-6.68-21.88-10.38-1.84-.95-3.62-2.05-5.31-3.25-3.4-2.39-6.73-4.89-10.08-7.34-3.24-2.37-6.09-5.16-8.65-8.14h-5.03c-.89,1.4-.96,2.81-.67,4.25.54,2.69,1.6,5.19,3.01,7.54,2.92,4.85,6.62,9.03,10.93,12.66,5.46,4.59,11.33,8.61,17.3,12.49,2.34,1.53,4.79,2.89,7.61,3.81-.15-1.07-.44-2.05-.38-3.01.07-1.1.39-2.2.74-3.25.32-.98.79-1.92,1.25-2.85.45-.91.83-1.93,2.03-2.32.83.39,1.73.73,2.53,1.21.74.45,1.45,1,2.07,1.61,3.18,3.2,1.13,7.96-1.91,9.2-.64.26-1.29.48-2.12.78,1.89,1,3.75,1.46,5.65,1.65,2.17.21,3.48-.8,3.94-2.97.16-.76.19-1.59.08-2.36-.22-1.5-.57-2.98-.9-4.46-.19-.87-.38-1.71.1-2.71.42.14.9.19,1.24.44.3.22.5.62.65.98.79,1.85,1.36,3.76,1.55,5.77.23,2.49-.04,3.47-1.58,6.25.3.57.67,1.17.96,1.82,1.18,2.59.57,5.08-1.7,6.84-1.28.99-2.73,1.64-4.29,2.06-8.95,2.44-17.71,2.03-26.26-1.7-.8-.35-1.61-.7-2.42-1.05-.07-.03-.15-.03-.23-.04.16.98.17.97.46,1.36,4.35,5.76,9.19,11.08,14.39,16.07,4.73,4.54,9.49,9.05,14.57,13.21.84.69,1.78,1.32,2.38,2.5-1.9.42-3.06-1.03-4.55-1.33-.56.32-.3.84-.27,1.25.54,6.38.38,12.79.52,19.18.22,9.84.3,19.68.55,29.51.19,7.59.56,15.18.85,22.78.13,3.36.21,6.71.39,10.07.13,2.39.36,4.78.62,7.17.1.95.32,1.9.65,2.79.29.79.81,1.49,1.28,2.34-.32-.04-.57,0-.73-.1-1.3-.78-2.1-1.99-2.49-3.4-.49-1.77-.93-3.56-1.19-5.37-.29-2.05-.41-4.14-.52-6.21-.32-6.31-.67-12.62-.87-18.93-.26-8.31-.47-16.63-.57-24.95-.12-10.4-.1-20.8-.17-31.2-.01-2.15-.17-4.31-.26-6.57-.66-.56-1.32-1.12-1.98-1.69-7.33-6.35-14.34-13.01-20.43-20.57-2.26-2.8-4.33-5.75-6.43-8.67-.77-1.07-1.65-1.89-2.85-2.47-1.58-.76-3.1-1.66-4.61-2.55-2.57-1.52-4.82-3.42-6.8-5.66-1.23-1.39-2.28-2.9-2.95-4.63-1.26-3.27-.04-6.51,3.09-8.12.77-.4,1.62-.74,2.47-.9,2.75-.54,5.53-.77,8.34-.58-.24,1.1-1.23,1.18-2.03,1.38-1.63.4-3.3.6-4.92,1.02-1.07.28-2.16.65-3.09,1.22-1.92,1.17-2.45,3.14-1.58,5.2.63,1.49,1.58,2.77,2.66,3.96,2.07,2.26,4.48,4.08,7.14,5.6,4.17,2.39,8.57,4.27,12.97,6.17,7.88,3.4,15.94,3.65,24.14,1.38,1.24-.34,2.4-.88,3.42-1.68.98-.77,1.34-1.79,1.09-2.98-.15-.68-.48-1.31-.68-1.84-.36-.1-.52-.19-.67-.18-1.03.06-2.06.15-2.98.22-.29.99-.38,2-.86,2.76-1.26,2.02-4.91,3.4-7.21,2.89-1.28-.29-2.18-1.03-2.46-2.33-.34-1.6-.14-3.19.53-4.68.1-.22.51-.46.75-.43.23.03.59.38.6.6.05,1.03-.04,2.07,0,3.11.05,1.27.8,1.86,2.08,1.64,1.27-.22,2.47-.68,3.44-1.57.25-.23.35-.61.62-1.11-1.31-.25-2.4-.44-3.49-.66-.86-.17-1.69-.4-2-1.41.37-.25.69-.47,1.13-.77-.57-.24-1.04-.49-1.53-.65-3.53-1.13-6.84-2.72-9.88-4.8-5.2-3.56-10.31-7.28-15.46-10.92-.57-.41-1-1.07-1.82-1.05Zm40.34-.26c2.12,1.1,4.19,1.45,6.35,1.32,1.56-.1,2.44-1.13,2.79-2.57.6-2.49.02-4.79-1.51-6.79-1.79-2.35-3.71-4.6-6.41-6-.71-.37-1.35-.85-2.02-1.3-6.3-4.26-12.34-8.86-17.75-14.24-5.32-5.29-10.8-10.45-15.07-16.67-2.5-1.18-5.07-1.97-7.84-2.05-1.7-.05-3.35.2-4.95.74-2.61.88-4.09,2.72-4.29,5.49-.07.95-.03,1.92.11,2.87.42,2.81,1.51,5.37,3.04,7.75,2.27,3.53,5.06,6.62,8.38,9.16,4.31,3.31,8.74,6.46,13.13,9.66.71.52,1.45,1.01,2.24,1.39,5.3,2.61,10.62,5.2,15.94,7.78.31.15.69.16,1.26.28-.24-1.94.13-3.57.95-5.06.79-1.44,1.53-2.99,3.09-3.56,1.02.53,1.84.96,2.67,1.38.57.29,1.18.52,1.71.86,3.36,2.18,3.29,6.65-.14,8.71-.47.28-.99.48-1.67.81Zm-20.84-61.92c-2.06-.52-4.03-.82-6.02-.57-3.59.46-6.01,3.16-6.26,6.8-.14,2.02.11,3.96.82,5.88.99,2.68,2.53,4.98,4.44,7.06,1.08,1.18,2.25,2.28,3.31,3.47,3.73,4.18,7.79,8.04,11.93,11.81,1.76,1.6,3.65,3.06,5.97,4.68-.68-3.05.84-4.94,2.4-6.76.93-1.09,2.01-2.06,3.07-3.02.4-.36.93-.64,1.45-.8.33-.1.97-.01,1.08.2.36.7.95.68,1.57.85,2.52.68,4.41,2.16,5.43,4.65,1.55,3.78-.95,9.58-6.43,8.75-.79-.12-1.58-.23-2.37-.34-.38-.05-.77-.1-1.3-.16,1.64,1.59,5.43,4.11,7.11,4.65.9.29,1.86.51,2.81.56,1.57.09,2.57-.62,3.13-2.1.31-.82.51-1.68.73-2.53.69-2.67.56-5.4.55-8.11,0-2.87-.87-5.5-2.25-7.99-.44-.79-1-1.38-1.87-1.75-2.58-1.08-5.11-2.27-7.67-3.39-3-1.31-6.05-2.53-9.01-3.92-4.37-2.04-7.95-5.02-10.5-9.18-1.41-2.31-2.26-4.76-2.09-7.5.02-.38,0-.77,0-1.25Zm21.15,30.8c-1.64,1.6-3.12,3.15-4.2,5.04-.98,1.72-.74,2.51,1.03,3.46,1.87,1,3.89,1.38,6,1.36,1.13-.01,1.98-.53,2.6-1.45,1.37-2.05,1.01-4.11-.67-5.87-1.23-1.29-2.8-2.07-4.75-2.54Zm-3,21.77c-.88,1.06-1.41,2.18-1.7,3.44-.45,1.95.03,2.82,1.95,3.36.53.15,1.09.27,1.64.27,1.45.02,2.6-.87,3.03-2.25.34-1.11-.08-2.27-1.25-3.09-1.1-.77-2.32-1.33-3.66-1.73Zm-7.64,14.35c-.48,1.26-.93,2.35-1.32,3.47-.26.75-.47,1.51-.61,2.29-.15.82.22,1.46.89,1.75,1.24.54,2.93.12,3.9-.97,1.08-1.21,1.27-2.91.4-4.15-.74-1.05-1.69-1.86-3.27-2.39Z"/><path class="cls-1" d="m62.74,76.19c-2.38-.05-4.26-.39-6.04-1.12-3.19-1.3-4.57-3.58-4.1-6.98.25-1.81.74-3.58,1.15-5.37.16-.7.31-1.49,1.03-1.8,1.01-.42,1.92-1.21,3.13-1.01.71.12,1.43.21,2.1.47,3.17,1.21,6.01,2.97,8.31,5.47,1.83,1.99,2.15,4.38.97,6.63-1.02,1.95-2.71,3.09-4.85,3.55-.7.15-1.42.14-1.69.16Zm-6.45-14.09c-.82,2.25-1.2,4.28-1.4,6.33-.22,2.22.55,3.44,2.61,4.29,1.86.76,3.81,1.1,5.83.95.39-.03.79-.11,1.16-.24,2.68-.97,4.38-3.9,1.53-6.51-2.26-2.06-4.8-3.66-7.73-4.59-.57-.18-1.22-.14-2-.22Z"/><path class="cls-1" d="m64.35,42.9c-.9-.73-.98-1.57-.77-2.47.18-.78.39-1.55.64-2.31.83-2.58,1.67-5.16,2.51-7.74.12-.37.28-.73.4-1.05.87-.06,1.63-.11,2.4-.17,1.26-.09,1.95.8,1.47,1.99-.27.65-.71,1.24-1.11,1.83-.22.33-.52.6-.77.89.34.73.87,1.4.92,2.11.05.75-.27,1.57-.6,2.28-1.03,2.27-2.66,3.92-5.08,4.63Zm4.58-7.25c-.82.12-1.29.13-1.7.28-.35.13-.7.39-.95.67-.42.46-1.03,2.79-1.15,4.14,1.96-1.07,3.18-2.56,3.8-5.08Zm-1.48-2.32c1.16-.66,1.95-1.42,2.28-2.59-.62-.44-1.15-.21-1.56.14-.7.6-.85,1.42-.72,2.45Z"/><path class="cls-1" d="m84.23,46.21c.55.88,1.36,1.05,2.09,1.35.62.26,1.38.32,1.67,1.05-.35.75-.95.67-1.48.66-.47,0-.96-.07-1.41-.2-2.34-.66-3.12-2.42-2.02-4.61.35-.71.82-1.37,1.3-1.99,1.27-1.64,2.57-3.25,3.86-4.86.14-.18.37-.29.63-.49,1.48.76,3.36.61,4.76,1.9-1.64.76-1.72.76-4.73.13-.26.3-.59.63-.86,1-.23.31-.41.66-.67,1.09.63.34,1.19.62,1.72.94.46.27.9.59,1.57,1.03-1.77.71-3.17.02-4.52-.29q-1.41,1.35-1.91,3.3Z"/><path class="cls-1" d="m97.37,56.87c1.01-2.55,2.57-4.16,3.99-5.86,1.43-1.7,2.88-3.38,4.28-5.24-.81-.61-1.49-1.13-2.12-1.6-.09-.85.41-1.32.96-1.09,2.59,1.1,4.99,2.49,6.39,5.1.02.04-.05.13-.12.33-1.36-.14-2.25-1.35-3.61-1.81-.32.36-.63.69-.93,1.05-2.08,2.54-4.14,5.09-6.22,7.62-.4.49-.87.93-1.37,1.32-.2.15-.56.09-1.26.18Z"/><path class="cls-1" d="m102.15,42.75c-1.28-.33-2.1-.54-2.98-.77-.4.58-.75,1.1-1.11,1.61-1.64,2.35-3.25,4.72-4.93,7.04-.6.84-1.3,1.61-2.03,2.34-.29.29-.79.35-1.36.58-.06-.49-.21-.84-.11-1.06.3-.64.65-1.28,1.08-1.84,1.83-2.41,3.7-4.78,5.55-7.18.47-.61.91-1.25,1.36-1.87q-1.97-1.43-2.22-2.3c.73-.53,1.36-.06,2,.21,2.99,1.23,3.51,1.57,4.75,3.25Z"/><path class="cls-1" d="m78.91,46.41c.64.37,1.32.75,2.09,1.19-.8.95-1.76.7-2.64.44-.72-.21-1.26-.77-1.33-1.55-.06-.62-.03-1.28.12-1.89.19-.77.47-1.53.81-2.25,1.21-2.52,2.47-5.01,3.71-7.52.22-.43.44-.9,1.19-.47.11.99-.24,1.97-.62,2.9-.48,1.18-1.06,2.32-1.61,3.48-.51,1.08-1.05,2.15-1.53,3.25-.32.74-.48,1.52-.2,2.42Z"/><path class="cls-1" d="m74.16,42.74c.63.93,1.82,1.03,2.09,1.99-.17.61-.59.65-.98.65-.84,0-1.55-.36-2.18-.88-.74-.61-1.07-1.42-.81-2.35.19-.69.45-1.37.79-2,1.39-2.52,2.82-5.02,4.25-7.51.14-.24.43-.4.61-.56.71.36.57.9.42,1.3-.33.9-.73,1.77-1.17,2.62-.74,1.42-1.55,2.79-2.29,4.21-.4.76-.93,1.51-.73,2.52Z"/><path class="cls-1" d="m69.71,44.05c-.39-.26-.58-.38-.84-.55.1-.38.14-.78.3-1.13,1.65-3.78,3.32-7.55,4.99-11.32.02-.05.14-.05.36-.13.13.22.37.45.38.7.01.38-.12.78-.23,1.16-.99,3.46-2.36,6.77-4.03,9.96-.21.41-.54.76-.94,1.32Z"/></svg>