<?xml version="1.0" encoding="UTF-8"?><svg id="Mikrofonhånd_Image" xmlns="http://www.w3.org/2000/svg" viewBox="0 0 244 288"><defs><style>.cls-1{fill:#fffaef;}</style></defs><path class="cls-1" d="m114.43,78.96c.36-.32.63-.57.83-.75,0-.23.02-.32,0-.39-1.41-3.34-2.07-6.86-2.61-10.43-1.5-9.98-3.63-19.81-7-29.35-.43-1.2-.93-2.38-1.45-3.55-1.08-2.42-1.82-4.95-2.35-7.54-.39-1.88-.79-3.76-1.13-5.64-.38-2.09-.34-4.13.85-6.03,1.35-2.15,3.32-2.97,5.76-2.22,2.11.65,3.92,1.83,5.38,3.47,1.27,1.44,2.37,3.02,3.11,4.82.88,2.15,1.76,4.29,2.63,6.44.09.22.21.44.26.67.97,4.24,3.12,8.04,4.63,12.08,1.4,3.74,2.81,7.48,4.21,11.22,1.38,3.66,2.43,7.44,4.12,10.99,1.24,2.61,2,5.39,2.51,8.24.27,1.49.59,2.98.95,4.46.28,1.16.66,2.3.96,3.34.88.66,1.66,1.22,2.41,1.82,2.44,1.92,4.14,4.43,5.52,7.17,1.3,2.58,2.87,4.97,4.72,7.2,1.4,1.69,3.08,2.75,5.21,3.15.47.09.94.18,1.42.27,3.43-.76,6.4-2.32,9.06-4.66,4.01-3.54,6.72-7.88,8.6-12.81,1.29-3.36,2.56-6.72,3.94-10.04,1.17-2.82,2.83-5.36,4.69-7.79,2.86-3.73,6.69-5.91,11.15-7.02,2.4-.6,4.79-.13,6.96,1.07.6.33,1.17.89,1.51,1.49,1.11,1.91,1.65,3.97,1.26,6.21-.28,1.59-.73,3.1-1.47,4.54-1.2,2.35-2.35,4.73-3.55,7.07-.51.99-1.12,1.93-1.68,2.91-.87,1.53-1.84,3.01-2.57,4.6-2.14,4.65-4.28,9.29-6.1,14.08-.82,2.18-1.39,4.42-1.72,6.72-.35,2.46-.81,4.88-1.48,7.28-.39,1.38-.69,2.81-.81,4.23-.36,4.54-.83,9.08-.55,13.65.18,3.05-.18,6.07-.59,9.08-.28,2.06-.52,4.12-.81,6.18-.4,2.79-1.24,5.45-2.27,8.06-.86,2.17-2.04,4.16-3.79,5.87.57.49,1.14.87,1.56,1.37.46.55.79,1.2,1.14,1.83.97,1.75,1.85,3.55,2.89,5.25,3.29,5.39,6.53,10.82,9.99,16.1,4.22,6.42,8.2,12.99,12.05,19.62,4.87,8.38,10.37,16.33,15.85,24.31,4.16,6.07,8.2,12.22,12.25,18.36,2.51,3.81,4.59,7.87,6.58,11.97.16.34.23.72.35,1.12-.31.13-.51.22-.81.35-.28-.27-.62-.5-.82-.82-.9-1.42-1.74-2.87-2.63-4.3-1.78-2.85-3.48-5.75-5.38-8.52-5.92-8.64-11.9-17.25-17.89-25.85-3.43-4.93-6.52-10.06-9.63-15.2-3.89-6.43-7.72-12.9-11.85-19.19-3.47-5.28-6.72-10.7-10-16.09-1.28-2.12-2.4-4.34-3.54-6.53-.43-.83-.74-1.73-1.13-2.67-1.48.96-2.97,1.89-4.42,2.86-2.02,1.35-4.24,2.23-6.55,2.91-.93.27-1.87.44-2.99.06-.13-.19-.34-.5-.54-.78.22-.2.34-.39.44-.39.99.07,1.87-.22,2.79-.55,3.29-1.17,6.14-3.08,8.86-5.21,2.17-1.7,3.84-3.83,4.87-6.43,1.28-3.21,2.15-6.52,2.52-9.97.22-2.07.4-4.14.72-6.19.38-2.39.41-4.78.33-7.18-.18-5.37.19-10.71.97-16.02.07-.47.19-.94.29-1.41.47-2.19,1.06-4.36,1.38-6.56.63-4.32,2-8.39,3.74-12.36,1.32-3,2.67-5.99,4.01-8.98.95-2.12,2.03-4.17,3.33-6.1.27-.4.54-.8.76-1.22,1.54-3.07,3.14-6.12,4.57-9.24,1.18-2.57,1.47-5.23-.17-7.95-1.99-1.21-4.19-1.56-6.55-.86-3.96,1.17-7.21,3.34-9.63,6.75-1.87,2.63-3.41,5.41-4.6,8.4-.98,2.45-1.94,4.91-2.83,7.39-.92,2.57-2.1,5.02-3.5,7.36-2.25,3.76-5.33,6.77-8.85,9.34-.58.42-1.22.76-1.85,1.11-3.75,2.15-7.51,1.85-11.22-.04-.9-.46-1.72-1.17-2.43-1.91-2.12-2.2-3.83-4.71-5.23-7.43-.37-.71-.76-1.41-1.14-2.11-.92-1.7-2.06-3.24-3.49-4.54-2.43-2.22-4.05-4.92-4.83-8.12-.37-1.55-.79-3.1-1.14-4.66-.55-2.42-1.26-4.8-2.35-7.04-1.86-3.83-2.83-7.98-4.28-11.96-.14-.37-.21-.77-.36-1.14-2.13-5.35-3.94-10.81-6.35-16.05-.5-1.08-.86-2.24-1.18-3.39-.86-3.09-2.1-6.05-3.47-8.93-1.22-2.56-3.01-4.71-5.59-6.09-1.18-.62-2.37-.96-3.77-.45-1.51,1.22-2.09,2.9-1.75,4.85.92,5.28,1.97,10.51,4.18,15.46,2.09,4.68,3.51,9.61,4.65,14.6,1.15,5.06,2.08,10.18,3.08,15.27.15.78.25,1.58.34,2.37.3,2.63.76,5.22,1.78,7.68.42,1.03.76,2.09,1.13,3.12-.58.9-1.27,1.55-2.03,2.06-2.25.89-3.63-.72-5.37-1.79-.39-.81-.87-1.72-1.28-2.67-1.64-3.82-3.33-7.62-5.62-11.11-2.24-3.41-4.54-6.75-7.5-9.63-2.52-2.45-4.6-5.32-6.54-8.27-1.28-1.94-2.65-3.8-3.92-5.74-1.27-1.94-2.49-3.91-3.68-5.9-1.68-2.83-3.52-5.52-5.86-7.86-1.93-1.93-4.22-3.13-6.82-3.8-.85-.22-1.72-.42-2.68.04-1.04,1.3-1.37,2.95-1.51,4.61-.17,2.09.11,4.15.66,6.17.37,1.33,1.03,2.49,1.82,3.61,2.82,3.98,5.6,7.99,8.36,12.01.77,1.12,1.48,2.29,2.11,3.49,1.54,2.9,3.24,5.7,5.15,8.37,2.1,2.93,3.82,6.09,5.34,9.36,1.99,4.3,4.54,8.27,7.37,12.06.76,1.02,1.47,2.09,2.17,3.16.21.32.33.72.53,1.17-1.71,2.12-3.82,3.84-5.51,5.95-.51-.07-.88-.13-1.26-.19-.24-.4-.44-.73-.64-1.07-.13-.09-.25-.21-.39-.25-4.54-1.46-8.68-3.64-12.44-6.58-2.58-2.01-5.36-3.77-7.74-6.05-1.56-1.49-3.23-2.87-4.85-4.29-.3-.26-.61-.51-.94-.75-3.39-2.42-6.55-5.12-9.63-7.92-2.88-2.62-6.15-4.57-9.84-5.83-1.17-.4-2.34-.59-3.52-.2-2.06.67-3.25,2.63-2.91,4.92.11.77.39,1.56.77,2.25,1.47,2.67,3.15,5.2,5.51,7.2.67.57,1.28,1.21,1.97,1.75,3.52,2.78,6.75,5.88,9.94,9.03,1.53,1.51,3.23,2.87,4.88,4.25,2.94,2.47,5.92,4.88,8.85,7.37.91.77,1.72,1.67,2.53,2.55,1.75,1.91,3.74,3.51,6.06,4.64,1.63.8,3.06,1.71,3.69,3.54.12.35.47.62.74.97-.61,1.85-1.51,3.56-1.72,5.54-.42.29-.87.6-1.26.87-.27-.05-.47-.02-.57-.11-.63-.55-1.4-.73-2.19-.88-1.1-.2-2.19-.44-3.29-.68-1.18-.25-2.29-.63-3.33-1.29-.74-.46-1.58-.78-2.4-1.08-3.61-1.29-7.22-2.61-10.86-3.8-1.76-.57-3.45-1.25-5.08-2.12-2.68-1.43-5.36-2.86-8.08-4.22-2.23-1.12-4.62-1.79-7.12-2.01-1.65-.14-2.22.06-3.78,1.11-.37.6-.27,1.22-.07,1.85.4,1.24,1.03,2.35,1.9,3.3,1.08,1.18,2.16,2.38,3.37,3.4,4.48,3.8,9.41,6.89,14.71,9.41,3.76,1.78,7.43,3.74,10.87,6.1.92.63,1.87,1.24,2.82,1.83,2.4,1.48,4.56,3.24,6.54,5.24,1.18,1.19,2.26,2.5,3.53,3.59,2.67,2.31,5.07,4.88,7.47,7.45,2.68,2.87,5.6,5.49,8.76,7.82,5.3,3.91,9.46,8.81,13,14.3.43.67.82,1.38,1.3,2.01.98,1.26,1.89,2.61,3.04,3.7,3.73,3.51,7.61,6.85,11.9,9.67,2.88,1.89,5.98,3.03,9.46,2.97,1.36-.03,2.72-.03,4.08-.02.71,0,1.44-.05,2.03.46.18.52-.14.82-.49.94-.82.29-1.66.62-2.51.7-1.51.15-3.03.12-4.55.17-.54.02-1.08.05-1.63.07-.03,1.21.49,2.13.83,3.1,3.19,9.06,7.41,17.7,11.04,26.58,1.36,3.33,2.69,6.67,4.04,10.01.66,1.63,1.37,3.24,2.02,4.87,1.43,3.56,2.79,7.15,4.25,10.7,1.65,3.99,3.39,7.94,5.05,11.93,2.16,5.16,4.32,10.32,6.39,15.53,1.21,3.04,2.23,6.16,3.34,9.25.44,1.2.91,2.39,1.36,3.59.11.29.16.59.24.91-.27.15-.46.26-.69.38-1.09-.7-1.6-1.8-2.1-2.87-.97-2.11-1.95-4.22-2.74-6.39-2.29-6.32-5.15-12.4-7.77-18.59-1.71-4.05-3.55-8.05-5.22-12.12-2.64-6.43-5.16-12.92-7.8-19.35-2.3-5.62-4.68-11.22-7.05-16.81-1.59-3.75-3.32-7.45-4.82-11.24-1.32-3.34-2.73-6.66-3.46-10.2-.19-.17-.33-.39-.54-.48-3.84-1.73-7.05-4.39-10.27-7.02-1.8-1.46-3.49-3.05-5.22-4.6-1.74-1.56-3.14-3.4-4.38-5.37-1.92-3.05-3.99-5.99-6.35-8.72-1.74-2.01-3.7-3.76-5.79-5.38-3.17-2.45-6.24-5.01-9.07-7.84-1.07-1.07-2.09-2.21-3.14-3.31-.83-.87-1.58-1.82-2.5-2.59-2.34-1.96-4.41-4.17-6.51-6.37-1.89-1.97-4-3.68-6.33-5.11-1.77-1.09-3.43-2.37-5.23-3.41-2.49-1.43-5.03-2.8-7.62-4.05-5.5-2.65-10.69-5.77-15.38-9.7-1.84-1.55-3.55-3.23-4.89-5.25-.8-1.21-1.43-2.5-1.51-3.99-.09-1.73.48-2.75,2.03-3.44,1.55-.7,3.14-1.05,4.89-.7,2.92.59,5.72,1.43,8.33,2.91,2.43,1.38,4.9,2.7,7.39,3.97,1.2.61,2.48,1.12,3.75,1.56,4.68,1.62,9.44,3.03,13.88,5.29.35.18.73.35,1.12.41,2.05.32,4.11.6,6.17.88.15.02.31-.04.58-.09.7-.95,1.01-2.05.81-3.36-.93-1.4-2.35-2.34-3.73-3.28-2.2-1.5-4.07-3.34-6-5.14-2.75-2.56-5.57-5.06-8.51-7.39-3.71-2.94-7.19-6.1-10.46-9.51-1.1-1.15-2.4-2.11-3.6-3.16-2.1-1.85-4.24-3.66-6.28-5.57-2.13-1.99-3.55-4.53-4.86-7.09-1.01-1.97-.84-4.04.03-6.04.9-2.06,3.72-3.57,6.17-3.32,2.1.21,4.02,1.05,5.89,1.94,2.1,1,4.09,2.21,5.83,3.76,4.07,3.61,8.34,6.97,12.55,10.42,2.35,1.92,4.52,4.06,6.81,6.05.9.78,1.89,1.46,2.86,2.17.39.28.82.5,1.2.79,3.23,2.42,6.8,4.18,10.54,5.65,1.17.46,2.28,1.1,3.47,1.68,1.07-.85,2.12-1.68,3.17-2.52.47-.85.11-1.51-.4-2.19-1.58-2.11-3.18-4.21-4.65-6.4-1.96-2.93-3.52-6.08-5.06-9.25-.91-1.86-1.95-3.66-3-5.45-.6-1.03-1.33-2-2.01-2.98-1.23-1.78-2.42-3.57-3.44-5.48-1.88-3.53-4.09-6.87-6.42-10.12-1.86-2.6-3.7-5.22-5.55-7.83-.28-.39-.59-.77-.77-1.21-1.78-4.17-2.35-8.43-1.01-12.87.84-2.78,2.7-3.81,5.5-3.17,3.62.82,6.7,2.53,9.18,5.33,1.86,2.11,3.5,4.37,4.9,6.81,1.71,2.99,3.49,5.92,5.59,8.66.78,1.01,1.44,2.11,2.16,3.17,2.45,3.66,5.22,7.06,8.32,10.21,3.04,3.1,5.36,6.76,7.53,10.5,1.73,2.99,2.99,6.19,4.16,9.42.59,1.63,1.66,2.68,3.51,3.34Z"/><path class="cls-1" d="m130.24,101.76c.23,1.47.15,2.89-.21,4.29-.27,1.08-.61,2.16-1.08,3.17-3.57,7.61-8.71,13.9-15.73,18.6-.79.53-1.67.94-2.55,1.3-.49.2-1.08.15-1.49.2-.53-.24-.85-.45-.78-.94.09-.13.15-.34.26-.37,1.39-.45,2.59-1.21,3.75-2.08,5.68-4.2,10.08-9.52,13.62-15.58,1.41-2.42,2.71-4.89,3.53-7.58.09-.3.25-.57.39-.85.03-.05.12-.06.28-.14Z"/><path class="cls-1" d="m13.93,146.9c-.11-.19-.28-.36-.33-.56-.16-.62-.37-1.24-.38-1.87-.03-1.19-.09-2.42.13-3.58,1.13-6.07,3-11.92,5.69-17.49.44-.92,1.07-1.78,1.73-2.57.67-.79,1.57-1.03,2.58-.6-.06.21-.06.42-.15.48-1.2.78-1.85,1.95-2.4,3.21-2.03,4.62-3.61,9.39-4.92,14.25-.77,2.84-1.54,5.68-1.94,8.72Z"/><path class="cls-1" d="m138.06,148.19c.09.46.18.91.29,1.45-.44.15-.78.27-1.25.44-.25-.49-.62-.88-.63-1.29-.03-.87.06-1.75.2-2.62.12-.7.34-1.4.6-2.07,1.84-4.81,4.15-9.35,7.43-13.36.96-1.18,2.01-2.25,3.38-2.88.49.33.26.6.09.84-2.94,4.2-5.62,8.55-7.84,13.18-.97,2.03-1.79,4.1-2.27,6.3Z"/><path class="cls-1" d="m135.26,15.84c.03-.48-.03-.75.08-.89.56-.71,1.32-1.16,2.17-1.42,1.37-.43,2.73-.92,4.13-1.16,4.09-.72,8.2-1.23,12.37-1.15,1.85.04,3.65.33,5.39.96.92.33,1.72.84,2.28,1.66.07.1,0,.28,0,.54-2-1.5-4.3-1.71-6.59-1.58-5.01.28-10.03.64-14.95,1.72-1.55.34-3.06.82-4.89,1.32Z"/><path class="cls-1" d="m29.21,151.61c-.84-2.43-.79-4.81-.45-7.19.41-2.84,1.07-5.63,2.13-8.32.47-1.2,1.09-2.31,2.21-3.04.24-.16.55-.22.93-.37,0,.36.08.62-.01.78-2.04,3.42-2.84,7.25-3.56,11.09-.35,1.87-.42,3.8-.63,5.69-.05.45.13.98-.61,1.35Z"/><path class="cls-1" d="m157.96,26.9c-.73.29-1.45.64-2.2.86-3.55,1.03-7.18,1.41-10.87,1.22-.47-.02-.97-.1-1.38-.31-.3-.15-.48-.54-.74-.86.31-.22.48-.42.68-.49.3-.1.62-.15.94-.15,4.15,0,8.26-.56,12.39-.91.36-.03.73.08,1.09.12.03.17.06.34.08.51Z"/></svg>