<?xml version="1.0" encoding="UTF-8"?><svg id="Mikrofonhånd_Image" xmlns="http://www.w3.org/2000/svg" viewBox="0 0 265.58 369.23"><defs><style>.cls-1{fill:#fffaef;}</style></defs><path class="cls-1" d="m157.62,93.24c-2.5,2.91-5.13,5.73-7.43,8.78-4,5.3-7.83,10.72-11.66,16.14-6.09,8.62-12.68,16.87-18.4,25.77-4.93,7.68-9.75,15.42-13.55,23.72-4.43,9.67-8.85,19.34-13.01,29.12-4.56,10.75-8.24,21.82-11.61,33-3.29,10.89-5.98,21.9-7.39,33.19-.87,6.98-1.56,13.98-2.31,20.97-1.07,9.89-1.13,19.81-.69,29.72.31,6.93,1.3,13.84,2.07,20.75.91,8.2,2.45,16.28,4.74,24.21.13.46.27.93.3,1.4.05.74.51,1.78-.58,2.02-.84.18-1.14-.77-1.35-1.44-.85-2.75-1.79-5.48-2.45-8.27-1.48-6.23-2.49-12.54-3.14-18.91-.72-7.08-1.7-14.14-1.98-21.24-.28-7.18-.04-14.4.34-21.58.36-6.7,1.13-13.38,1.84-20.06.93-8.67,2.2-17.28,4.18-25.78.1-.44.1-.91.15-1.36-1.22,2.04-1.79,4.27-2.38,6.49-2.88,10.81-3.25,21.95-4.34,33-.43,4.37-.76,8.76-1.14,13.13-.36,4.14-.96,8.26-.78,12.43.21,4.79.17,9.59.53,14.37.39,5.1.95,10.19,1.74,15.24.73,4.65,1.94,9.22,2.82,13.85.55,2.92,1.23,5.78,2.4,8.52.37.87.58,1.83.7,2.77.05.37-.25,1-.56,1.15-.66.32-1.03-.27-1.21-.8-.84-2.41-1.79-4.8-2.43-7.27-.96-3.71-1.72-7.47-2.51-11.22-1.99-9.49-3.08-19.1-3.34-28.78-.13-4.79-.11-9.61.19-14.39.43-6.86,1.15-13.7,1.79-20.54.39-4.22.94-8.42,1.28-12.64.65-8,2.23-15.8,4.44-23.51,1.96-6.83,3.65-13.74,5.44-20.62.11-.44.2-.99.04-1.37-1.28-3.02-2.7-5.96-5.1-8.3-.46-.44-.84-.96-1.28-1.43-3.33-3.57-6.52-7.27-10.03-10.65-3.22-3.1-6.76-5.87-10.21-8.73-6.84-5.66-13.88-11.09-20.52-16.97-10.9-9.65-19.01-21.33-24-35.06-2.31-6.35-3.76-12.89-3.45-19.72.07-1.47,0-2.94,0-4.72,1.31.73,2.35,1.27,3.36,1.89,3.21,1.96,6.42,3.91,9.59,5.93,8.43,5.37,16.83,10.8,24.54,17.2,7.03,5.84,13.69,12.05,19.34,19.27,6.96,8.88,12.32,18.67,16.29,29.21,2.23,5.92,3.81,12.04,5.11,18.22.14.67.36,1.31.67,2.41,1.49-3.58,2.89-6.71,4.11-9.91,2.82-7.39,5.43-14.87,8.35-22.22,4.12-10.35,9.26-20.19,15.23-29.6,2.78-4.38,5.33-8.94,8.35-13.15,6.38-8.91,12.96-17.67,18.59-27.09.78-1.3,1.69-2.52,2.6-3.74,1.53-2.05,3.12-4.06,4.67-6.09,2.93-3.82,5.99-7.49,9.84-10.45,2.12-1.63,3.91-3.62,5.57-5.77-.95.21-1.83.55-2.68.92-4.63,2.02-9.36,3.69-14.37,4.52-4.81.8-9.54,1.01-14.17-.85-5.1-2.06-9.68-4.93-13.61-8.8-2.3-2.27-4.19-4.85-5.6-7.74-2.85-5.85-2.35-11.5,1.37-16.78,2.65-3.75,5.9-7.01,9.86-9.36,8.49-5.05,17.62-6.95,27.42-5.02.64.13,1.3.19,1.95.28-.68-1-1.49-1.63-2.23-2.33-4.87-4.56-8.26-9.92-9.11-16.69-.94-7.48,2.85-16.93,12.7-18.61,2.99-.51,5.97-1.1,8.98-1.48,6.82-.86,13.37.17,19.65,3.03,5.27,2.4,9.15,6.1,11.18,11.58.75,2.02,1.46,4.07,2.01,6.15,1.34,5.05,1.73,10.23,1.92,15.44.04,1.15-.11,2.33.34,3.72.41-.43.66-.62.81-.87,2.13-3.57,5.29-5.98,8.95-7.72,2.59-1.23,5.29-2.26,7.95-3.35,5.51-2.27,11.21-2.6,16.95-1.3,7.82,1.76,14.19,5.74,18.3,12.83,3.39,5.85,4.76,12.23,4.21,18.92-.44,5.29-2.86,9.68-7.59,12.38-2.27,1.3-4.79,2.18-7.23,3.16-1.16.46-2.4.72-3.6,1.07.97.88,1.85,1.88,2.91,2.64,6.48,4.69,11.92,10.38,16.6,16.85,3.6,4.98,5.74,10.49,6.13,16.65.2,3.16-.2,6.22-1.42,9.16-1.22,2.92-3.23,5.12-6.07,6.53-2.19,1.08-4.51,1.57-6.95,1.64-5.57.16-10.79-1.18-15.67-3.8-2.25-1.21-4.33-2.72-6.54-4.02-4.86-2.87-8.64-6.83-11.73-11.49-2.52-3.8-4.97-7.64-7.47-11.45-.26-.39-.61-.72-1.19-1.39.29,2.29.5,4.12.75,5.93.83,6.06.98,12.1-.27,18.14-1.24,6.03-4.09,11.04-8.94,14.89-2.12,1.68-4.47,2.72-7.13,3.22-3.49.66-6.85.01-10.2-.77-3.19-.75-5.98-2.33-8.19-4.74-1.61-1.76-3.14-3.63-4.47-5.61-2.62-3.91-3.98-8.34-4.95-12.91-1.49-7.02-2.08-14.07-.76-21.19.18-.99.33-1.98.58-3.43-.84.73-1.36,1.09-1.76,1.55ZM5.88,128.41c1.57,9.4,4.75,18.2,9.86,26.3,3.72,5.89,7.53,11.72,12.56,16.59,3.56,3.44,7.27,6.74,11.04,9.95,3.59,3.05,7.38,5.88,11.02,8.87,4.64,3.8,9.45,7.42,13.76,11.57,4.53,4.37,8.59,9.25,12.77,13.97,1.03,1.17,1.73,2.63,2.68,4.1.88-2.08,1.82-3.95,1.21-6.37-1.61-6.43-3.01-12.91-5.21-19.18-5.71-16.26-14.45-30.58-27.16-42.35-6.05-5.6-12.3-10.95-19.22-15.47-5.62-3.67-11.27-7.3-16.87-10.99-2-1.32-3.9-2.78-5.85-4.17-.24-.17-.49-.31-1.1-.69.05,2.86.09,5.4.51,7.88ZM113.3,56.11c-3.44,4.67-4,9.72-1.12,14.84,1.24,2.21,2.75,4.34,4.47,6.19,3.82,4.1,8.54,6.93,13.78,8.89,4.3,1.61,8.68,1.15,13.01.27,2.73-.55,5.45-1.29,8.06-2.24,4.96-1.79,9.81-3.84,14.37-6.54,3.29-1.95,5.91-4.61,8.46-7.37.96-1.04.87-1.22,0-2.66-.24-.4-.62-.91-.55-1.29.39-1.98-.21-3.87-.38-5.8-.03-.38.05-.84-.13-1.14-.83-1.48-.39-2.74.5-4.01.79-1.13.75-1.15-.43-1.95-.07-.04-.13-.1-.2-.13-8.68-4.88-17.68-8.94-27.63-10.48-1.57-.24-3.17-.34-4.34-.46-11.65.58-21.1,4.65-27.9,13.89Zm51.65,27.5c-1.74,2.39-2.41,5.22-3.13,7.98-2.85,10.93-1.47,21.58,2.49,31.98,1.41,3.7,3.7,6.9,6.56,9.66,1.87,1.81,4.02,3.15,6.57,3.8,3.03.78,6.07,1.39,9.23.9,2.36-.37,4.42-1.3,6.29-2.76,4.42-3.46,7-8.02,8.08-13.48.94-4.74,1.12-9.49.63-14.32-.59-5.81-1.2-11.62-2.59-17.3-.8-3.25-1.85-6.45-2.83-9.66-.36-1.17-.62-1.34-1.71-.77-1.15.61-2.16.52-3.16-.12-.95-.62-1.89-.61-2.97-.44-.73.11-1.78.03-2.24-.42-1.09-1.07-2.42-1.47-3.74-2-.37-.15-.73-.35-1.04-.59-1.3-1.01-2.35-2.33-4.12-2.71-.6-.13-1.07-.89-1.67-1.42-4.14,3.4-7.54,7.4-10.65,11.67Zm92.67,30.81c0-5.74-1.74-11.02-5-15.76-4.19-6.09-9.04-11.59-14.93-16.12-1.77-1.36-3.51-2.79-5.34-4.06-1.03-.71-2.24-1.16-3.36-1.73-.43-.22-.89-.38-1.26-.67-3.5-2.76-7.73-3.65-11.91-4.68-1.02-.25-1.82-.07-2.38,1.01-.66,1.27-1.87,1.98-3.25,2.24-1.13.21-1.86.74-2.18,1.86-.11.37-.38.7-.62,1.02-1.14,1.5-2.48,1.98-4.18,1.2-.95-.44-1.57-.43-2.34.27-.57.51-1.71.74-1.85,1.29-.19.74.29,1.68.57,2.5,2.27,6.68,5.01,13.13,9.1,18.94,1.88,2.68,3.58,5.49,5.43,8.19,2.78,4.07,6.12,7.57,10.41,10.11,2.2,1.31,4.29,2.79,6.52,4.03,4.26,2.37,8.88,3.52,12.99,3.72,9.23-.06,13.59-4.98,13.6-13.37ZM190.49,22.11c-.62-2.14-1.45-4.23-2.32-6.28-1.32-3.12-3.54-5.48-6.47-7.17-5.68-3.28-11.76-4.82-18.35-4.44-3.84.22-7.62.81-11.36,1.67-6.49,1.49-10.36,6.3-10.59,12.99-.12,3.69.71,7.12,2.48,10.35,2.11,3.85,4.85,7.13,8.52,9.58,5.79,3.87,11.76,7.4,18.33,9.82,1.35.5,2.72.95,4.02,1.57,1.6.76,2.94.82,4.66-.09,1.99-1.06,4.34-1.76,6.56-.12.25.19.75.12,1.12.06,1.72-.29,3.43-.65,5.16-.91.57-.09.9-.29.91-.86.01-.88.01-1.76-.03-2.63-.05-1.12-.16-2.23-.24-3.35-.28-6.78-.49-13.59-2.4-20.17Zm55.87,20.78c-3.94-6.96-10.2-10.59-17.87-12.08-4.84-.94-9.56-.47-14.13,1.38-2.81,1.14-5.64,2.26-8.39,3.54-4.97,2.32-8.05,6.43-10.32,11.25-.17.36-.29.74-.39,1.13-.78,3.1-.78,3.13,2.42,3.2,1.66.04,3.03.54,3.67,2.15.32.8.89,1.06,1.61,1.23,1.9.45,3.4,1.43,4.13,3.31.29.74.83.83,1.49.96,3.28.64,4.72,2.37,4.33,5.72-.22,1.91,1.31,2.98,1.61,4.58.03.14.55.24.85.27,4.69.47,9,2.18,13.17,4.23,1.47.72,2.85,1,4.37.54,2.75-.83,5.57-1.49,8.21-2.6,6.49-2.75,9.33-7.52,8.97-15.07.04-4.59-1.25-9.35-3.73-13.74Zm-54.38,34.38c.83.56,1.56.55,2.43.03.67-.4,1.46-.61,2.21-.85.52-.16.61-.41.33-.85-.13-.21-.23-.45-.34-.68.51-.05,1.03-.16,1.53-.1.15.02.33.51.35.79.01.18-.31.36-.37.57-.1.31-.23.72-.11.97.28.58.82.4,1.22.13.46-.31.83-.74,1.26-1.09,1.04-.87,1.32-.89,2.55-.21,1.77.98,2.23.84,3.05-.92.1-.22.18-.44.24-.67.35-1.33,1.07-1.98,2.59-1.88,1.27.08,2.29-.6,2.77-1.88.48-1.28.24-1.95-.99-2.76-1.1-.73-1.13-.81-.61-2.1.18-.44.44-.87.52-1.32.32-1.77-.68-3.09-2.52-3.35-.39-.06-.8-.06-1.2-.07-.9-.03-1.53-.38-1.69-1.35-.31-1.87-1.58-2.72-3.3-2.95-1.25-.17-2.06-.66-2.39-1.94-.29-1.1-1.2-1.43-2.25-1.35-.87.06-1.74.21-2.61.32-.92.11-1.66-.13-1.66-1.19,0-1.28-.85-1.5-1.75-1.38-1.26.17-2.51.48-3.72.88-1.13.38-2.06.61-3.03-.44-.65-.71-3.63-.4-4.26.31-.21.23-.23.74-.16,1.08.45,2.29.44,2.32-1.83,2.72-.54.09-1.13.16-1.6.42-.72.39-1.39.87-.44,1.8.6.58.34,1.33.01,2.01-.3.61-.42,1.24.12,1.78.84.83.66,1.7.2,2.63-.35.69-.52,1.35.46,1.73.99.38,1.16,1.22,1.11,2.16-.03.56-.06,1.12,0,1.67.09.78.38,1.41,1.36,1.26.84-.13,1.37.27,1.69,1.01.67,1.53,1.99,2.25,3.5,2.66.95.25,1.75.59,2.46,1.34.39.41,1.22.41,1.45.47,1.57-.35,2.54,0,3.42.6Zm-98.64,114.47c3.79-8.46,7.49-16.95,11.37-25.37,3.78-8.22,8.48-15.93,13.42-23.5,7.47-11.46,15.99-22.16,24.03-33.21,1.08-1.49,2.21-2.94,3.23-4.47,4.06-6.08,8.72-11.64,14.21-16.48,1.05-.92,1.83-1.94,1.95-3.82-.89.94-1.51,1.62-2.15,2.28-1.22,1.26-2.34,2.66-3.71,3.72-3.71,2.87-6.64,6.45-9.49,10.11-1.57,2.02-3.17,4.01-4.71,6.05-1.06,1.4-2.13,2.81-3.01,4.32-5.56,9.46-12.13,18.21-18.52,27.1-3.02,4.21-5.56,8.76-8.34,13.14-5.2,8.17-9.73,16.71-13.45,25.65-2.09,5.01-3.84,10.15-5.73,15.24-.13.34-.18.71-.27,1.06.08.03.17.06.25.08.32-.64.66-1.26.95-1.91Zm-15.81,44.95c1.01-3.33,1.99-6.67,3.02-9.99,1.05-3.35,2.11-6.7,3.23-10.03,1.13-3.37,2.34-6.72,3.52-10.08-5.17,9.41-7.62,19.71-9.77,30.1Z"/><path class="cls-1" d="m77.51,210.97c-.06-.52-.02-1.07-.2-1.54-.63-1.64-1.2-3.32-2.04-4.86-2.82-5.19-5.6-10.42-8.67-15.46-3.82-6.26-8.71-11.63-14.39-16.28-6.87-5.63-13.57-11.45-19.6-17.99-2.38-2.59-4.69-5.25-7.05-7.85-.66-.73-1.4-1.39-2.41-1.79.43.64.85,1.28,1.29,1.91,6.93,9.82,15.44,18.12,24.77,25.61,6.54,5.26,12.26,11.23,16.71,18.36,2.71,4.34,5.29,8.75,7.83,13.19,1.25,2.19,2.27,4.5,3.39,6.76.13-.02.25-.03.38-.05Z"/><path class="cls-1" d="m141.05,58.34c7.94-.05,15.72.47,23.24,2.97.3.1.63.25.92.22.34-.04.66-.26.99-.41-.18-.33-.27-.81-.54-.95-1.06-.55-2.14-1.08-3.27-1.46-5.12-1.7-10.41-2.43-15.77-2.55-4.15-.1-8.3.05-12.45.18-1.26.04-2.53.32-3.75.65-.43.11-.73.7-1.09,1.07.42.18.84.5,1.27.51,2.55.02,5.11,0,7.66-.06.96-.02,1.91-.12,2.79-.18Z"/><path class="cls-1" d="m178.41,103.77c-.06,2.23.3,3.18.92,3.02,1.04-.26,1.14-1.26,1.32-2.08,1.19-5.2,2.32-10.42,3.53-15.62.36-1.55.88-3.06,1.33-4.59.16-.53.37-1.06.5-1.6.13-.52.4-1.25-.33-1.4-.35-.07-1.02.44-1.22.84-.75,1.58-1.53,3.18-2.02,4.85-1.17,3.97-2.23,7.98-3.24,12-.42,1.69-.6,3.45-.79,4.57Z"/><path class="cls-1" d="m232.71,99.94c.56-1.35.07-2.3-.45-3.16-.71-1.15-1.48-2.28-2.36-3.3-4.46-5.16-9.42-9.78-14.95-13.77-.84-.6-1.74-1.16-2.68-1.56-.63-.27-1.38-.29-2.08-.31-.25,0-.62.26-.71.49-.06.17.18.62.39.71,2.61,1.14,4.67,3.05,6.81,4.84,5.76,4.82,10.91,10.26,16.04,16.06Z"/><path class="cls-1" d="m169.52,26.94c.49,1.17.78,2.18,1.3,3.04,2.15,3.55,4.4,7.04,6.57,10.57,1.46,2.38,2.87,4.79,4.33,7.17.18.29.55.47.83.7.24-.37.73-.79.67-1.11-.16-.92-.4-1.89-.86-2.69-2.21-3.79-4.46-7.56-6.77-11.29-1.18-1.9-2.5-3.7-3.8-5.52-.32-.45-.75-.84-1.21-1.14-.16-.11-.55.13-1.06.27Z"/><path class="cls-1" d="m231.88,47.58c-6.29.48-12.21,1.31-17.71,3.94-1.5.72-2.92,1.66-4.26,2.65-.59.44-1.06,1.22-1.28,1.93-.33,1.04.48,1.85,1.61,1.8.2,0,.55-.17.57-.3.35-2.1,2.27-2.5,3.71-3.28,3.91-2.13,8.2-3.11,12.56-3.79,3.4-.54,6.8-.98,10.23-.13.27.07.83-.25.91-.5.09-.27-.12-.84-.37-.99-.6-.36-1.28-.67-1.97-.8-1.41-.26-2.84-.38-4-.53Z"/><path class="cls-1" d="m205.5,71.05c-.15-.7-.17-1.11-.32-1.46-.56-1.34-1.7-1.8-3.03-1.93-1.36-.13-2.74-.22-3.66,1.08-.2.29-.34.8-.21,1.08.09.2.66.29,1.01.28.93-.03,1.86-.22,2.79-.18.63.03,1.24.35,1.27,1.16.03.68.25,1.45,1.01,1.25.51-.13.84-.91,1.15-1.27Z"/><path class="cls-1" d="m193.43,61.41c1.01,0,2.23-.13,2.48,1.57.04.24.82.61,1.09.51.42-.17.93-.66.99-1.07.16-1.02-1.09-2.37-2.46-2.89-1.35-.52-2.46-.33-3.26.58-.1.12-.23.25-.26.39-.05.3-.15.67-.02.9.08.16.51.15.79.17.15.01.31-.07.64-.15Z"/><path class="cls-1" d="m182.03,62.81c-.01.75.47,1.02,1.19.73.63-.26,1.3-.41,1.94-.65.83-.31,1.38-1.13,1.24-1.79-.17-.79-1.1-1.23-2.11-1-1.2.27-2.23,1.52-2.25,2.71Z"/><path class="cls-1" d="m192.07,71.5c.2-.22.41-.36.48-.54.54-1.45-.75-3.41-2.28-3.41-.67,0-1.25.26-1.31,1.05-.05.68.25.83.96.93.53.08.97.85,1.45,1.31.22.21.44.42.7.66Z"/><path class="cls-1" d="m189.12,55.18c-.45.13-.96.18-1.33.43-.26.18-.4.63-.43.98-.01.12.45.37.72.41.61.11,1.25.19,1.87.18.34,0,.67-.21,1.01-.33-.15-.41-.2-.95-.49-1.21-.32-.28-.87-.31-1.35-.46Z"/><path class="cls-1" d="m183.93,72.27c.15.63,1.49,1.23,2.03.98.27-.12.57-.57.56-.86-.02-.66-.79-1.04-1.64-.8-.38.11-.68.47-.95.67Z"/><path class="cls-1" d="m203.54,62.91c-.1.41.97,1.67,1.38,1.58.12-.02.26-.19.29-.31.15-.79-.55-1.6-1.32-1.53-.12.01-.23.17-.35.26Z"/><path class="cls-1" d="m179,58.28c-.38.32-.69.46-.75.67-.05.17.21.59.36.6.23.02.58-.16.68-.36.08-.16-.14-.47-.29-.91Z"/></svg>