<?xml version="1.0" encoding="UTF-8"?><svg id="Layer_1" xmlns="http://www.w3.org/2000/svg" viewBox="0 0 804.5 231"><defs><style>.cls-1{fill:#fffaef;}</style></defs><path class="cls-1" d="m803,164.28c-1.28-4.4-.53-10.08,0-17.19v-17.28c-.82-8.34-3.12-17.94-8.56-28.94-21.76-43.99-73-.35-73-.35-48.79-89.87-73.58-41.16-114.8-40.54-41.22.62-40.89-29.67-73.73-43.58-32.84-13.91-43.85,47.89-43.85,47.89-71.43-70.48-89.3,2.68-89.3,2.68-72.23-58.38-113.44-32.09-119.1,9.44-5.65,41.53-49.79,14.49-49.79,14.49,0,0-65.48-32.56-58.29,22.87,5.39,41.57-21.86,35.18-35.83,29.39-5.94-2.47-12.5-3.07-18.83-1.89-118.21,22.06,14.55,54.28-7.81,66.39-23.01,12.47-95.08,19.11-95.08,19.11-2.8.75-5.51,1.49-8.15,2.22h796.11v-64.72Z"/></svg>