<?xml version="1.0" encoding="UTF-8"?><svg id="Mikrofonhånd_Image" xmlns="http://www.w3.org/2000/svg" viewBox="0 0 380.47 466.81"><defs><style>.cls-1{fill:#ffc4e7;}</style></defs><path class="cls-1" d="m113.36,230.03c-.24-2.17-1.91-2.35-3.37-2.91-5.21-2-9.69-5.18-13.73-8.96-4.09-3.83-7.73-7.99-10.02-13.25-1.56-3.59-4.04-6.6-7.18-9.03-1.58-1.22-3.3-1.99-5.3-2.18-11.88-1.1-21.63,2.95-28.98,12.33-2.88,3.67-4.43,8.03-5.11,12.69-.65,4.43,1.08,8.24,2.87,12.06.24.51.6.96.86,1.46,3.2,6.22,8.41,9.88,15,11.77,5.65,1.62,10.21,4.72,13.46,9.7,1.24,1.89,2.8,3.56,4.02,5.46,2.32,3.63,3.86,7.61,5.14,11.73,2.94,9.52,4.66,19.32,6.65,29.05,2.48,12.19,7.15,23.46,14.22,33.73,3.72,5.4,7.46,10.81,12.33,15.25,8.97,8.18,19.16,14.25,31,17.36,4.22,1.11,8.38,2.43,12.58,3.6,2.61.73,4.96,1.95,7.13,3.54,2.22,1.62,4.51,3.18,6.54,5.02,4.5,4.07,9.89,6.24,15.72,6.98,5.67.72,11.44.86,17.17.98,4.6.1,9.22-.03,13.81-.39,5.64-.45,10.75,1.16,15.56,3.73,9.68,5.17,18.74,11.32,26.05,19.57,3.73,4.2,6.72,9.09,9.78,13.83,3.11,4.82,5.89,9.85,8.81,14.79,2.17,3.67,4.87,6.86,8.42,9.25,1.17.79,2.35,1.75,3.95,1.47.69-1.16.36-2.27-.13-3.28-.81-1.67-1.7-3.31-2.64-4.9-1.28-2.15-2.69-4.23-3.96-6.39-.61-1.04-1.12-2.15-1.55-3.28-.38-.99-.62-2.09.25-2.96.87-.88,1.94-.6,2.95-.25.46.16.9.38,1.32.6,9.57,5.1,18.92,10.56,27.78,16.82,2.71,1.91,5.43,3.81,8.19,5.64,2.38,1.58,5.01,2.63,7.83,3.11,1.53.26,2.02-.21,1.57-1.66-.33-1.07-.79-2.14-1.43-3.05-1.44-2.05-3.01-4.01-4.54-5.98-1.14-1.47-2.43-2.84-3.44-4.39-.97-1.47-1.86-3.05-2.45-4.7-.98-2.78.64-4.99,3.6-5.2,1.77-.13,3.35.51,4.83,1.38,1.88,1.1,3.7,2.32,5.58,3.42.89.52,1.87.87,3.2,1.48-.14-1-.12-1.63-.32-2.17-1.16-3.08-3.35-5.31-6.09-7.02-2.88-1.79-5.84-3.46-8.71-5.28-1.5-.95-2.95-2-4.28-3.16-.83-.73-1.53-1.69-2.04-2.67-1.06-2.07-.26-3.92,2.03-4.48,1.22-.3,2.57-.31,3.82-.14,2.88.4,5.72,1.09,8.6,1.46,1.58.2,3.22.09,4.81-.06,1.23-.12,1.9-1.05,1.63-2.25-.26-1.14-.66-2.34-1.33-3.27-1.33-1.85-3.39-2.65-5.5-3.33-7.39-2.36-14.76-4.77-22.14-7.13-2-.64-4.04-1.16-6.04-1.77-4.24-1.29-8.48-2.6-12.72-3.92-.38-.12-.75-.3-1.11-.48-1.55-.78-2.33-1.82-2.09-2.93.32-1.5,1.54-2.16,2.86-2.22,4.51-.2,9.03-.3,13.55-.31,1.93,0,3.87.28,5.8.41.48.03,1.03.1,1.44-.08.61-.27,1.5-.7,1.57-1.17.09-.52-.48-1.43-1-1.7-1.05-.55-2.25-1.02-3.42-1.09-4.27-.25-8.57-.63-12.83-.39-6.62.36-12.56-1.1-18.27-4.5-4.34-2.58-8.29-5.62-12.27-8.66-2.7-2.06-5.39-4.14-7.93-6.39-6.86-6.08-11.99-13.5-16.47-21.44-4.94-8.75-10.37-17.16-17.66-24.21-1.27-1.23-2.39-2.63-3.81-4.21-.61.81-1.21,1.5-1.69,2.27-2.29,3.64-4.43,4.54-8.59,3.35-6.58-1.88-11.58-5.94-15.45-11.49-.65-.93-1.3-1.86-1.87-2.83-4.45-7.48-11.15-11.42-19.63-12.76-5.25-.83-10.48-.6-15.72-.2-5.96.46-11.92.99-17.88,1.48-.19.02-.39-.13-1.07-.37,1.09-.43,1.78-.74,2.49-.98,4.86-1.62,9.91-2.32,14.99-2.75,3.22-.28,6.45-.39,9.68-.52,4.49-.18,8.85.68,13.15,1.88,6.08,1.7,10.88,5.23,14.53,10.33,1.13,1.58,2.15,3.23,3.24,4.83,3.43,5.02,7.8,8.83,13.7,10.66.84.26,1.73.42,2.6.49,1.22.11,2.21-.4,2.9-1.42.32-.47.6-.96.9-1.44,2.67-4.24,7.6-5.83,12.24-3.92.82.34,1.61.77,2.36,1.24,5.75,3.64,11.91,4.22,18.41,2.63,3.31-.81,5.69-2.51,6.61-5.99.98-3.72,3.6-6.02,6.99-7.58,3.59-1.66,7.43-2.14,11.3-2.53,3.6-.36,6.98-1.3,9.71-3.9,1.58-1.51,2.55-3.31,2.98-5.43.7-3.45.64-6.91.25-10.38-.11-.96-.2-1.93-.21-2.9-.01-2.59,1.03-4.68,3.03-6.33,2.7-2.23,5.93-3.25,9.25-4.04,2.99-.71,6.04-1.18,8.97-2.06,1.89-.57,3.75-1.5,5.39-2.6,1.81-1.21,2.53-3.15,2.06-5.33-.39-1.81-.88-3.6-1.42-5.37-.35-1.16-.9-2.25-1.29-3.4-.85-2.5-.53-4.87,1.32-6.77,1.34-1.37,2.85-2.67,4.51-3.6,2.1-1.17,4.42-1.95,6.67-2.87,1.12-.46,2.3-.78,3.41-1.25,2.01-.86,2.76-2,2.46-4.2-.28-2.07-.6-4.2-1.34-6.13-1.81-4.73-.67-8.78,2.59-12.31,1.74-1.88,3.71-3.63,5.82-5.09,3.78-2.63,7.75-4.98,11.62-7.48,1.42-.92,2.83-1.88,4.14-2.95,1.55-1.26,2.16-2.89,1.85-4.96-.62-4.13-2.75-7.56-4.83-11.02-1.12-1.87-2.42-3.64-3.51-5.53-2.67-4.62-2.18-8.6,1.76-12.22,1.94-1.78,4.27-3.17,6.48-4.64,1.95-1.29,4.09-2.31,5.96-3.71,1.26-.94,2.33-2.24,3.22-3.55.94-1.39.69-2.42-.75-3.28-1.37-.82-2.88-1.48-4.4-1.97-2.07-.67-4.23-1.07-6.33-1.66-4.56-1.3-5.7-3.27-4.09-7.74,2.29-6.36,5.55-12.2,10.19-17.2,1.54-1.66,3.05-3.35,4.47-5.11.8-1,1.53-2.11,2.04-3.28,1.04-2.4-.24-4.41-2.84-4.15-2.38.24-4.8.8-7.03,1.67-2.39.93-4.61,2.32-6.84,3.63-3.21,1.89-6.4,3.79-10.16,4.42-4.47.74-7.35-2.04-6.41-6.47.46-2.18,1.24-4.37,2.28-6.35,1.42-2.71,3.18-5.25,4.86-7.82,5.58-8.52,11.28-16.96,16.77-25.55,4.43-6.93,7.68-14.4,9.36-22.49.39-1.89.62-3.83.74-5.76.07-1.19-.1-2.43-.39-3.59-.51-2.04-1.59-2.61-3.38-1.61-1.53.86-3,1.93-4.25,3.16-4.93,4.84-9.17,10.26-12.57,16.27-5.46,9.64-10.9,19.29-16.14,29.04-10.5,19.58-22.72,38.03-36.39,55.52-9.51,12.17-19.24,24.17-28.93,36.19-9.47,11.76-20.14,22.36-31.8,31.91-12.58,10.29-25.2,20.54-38.15,30.36-14.48,10.99-30.28,19.83-47.15,26.67-1.49.61-3.04,1.12-4.6,1.53-1.22.32-2.5.66-3.9-.14.19-.37.3-.91.53-.97,7.91-2.04,15.03-5.89,22.19-9.61,14.33-7.43,27.79-16.19,40.3-26.41,9.26-7.58,18.68-14.97,27.93-22.56,14.01-11.48,26.41-24.53,37.63-38.73,7.77-9.83,15.63-19.6,23.37-29.46,15.76-20.1,29.36-41.6,41.22-64.21,3.79-7.23,7.85-14.32,11.95-21.38,3.38-5.83,7.53-11.12,12.34-15.84,1.42-1.4,3.05-2.68,4.8-3.65,3.86-2.13,7.07-.48,7.84,3.88.67,3.74.1,7.42-.73,11.06-1.76,7.81-4.89,15.08-9.14,21.82-5.34,8.48-10.95,16.79-16.42,25.19-1.85,2.84-3.75,5.67-5.41,8.62-.9,1.6-1.49,3.41-1.94,5.19-.66,2.61.64,3.97,3.29,3.37,1.87-.42,3.71-1.14,5.45-1.97,1.82-.87,3.51-2,5.23-3.06,3.34-2.03,6.86-3.63,10.75-4.27,1.27-.21,2.58-.36,3.85-.27,3.44.25,5.6,3.1,4.71,6.46-.45,1.67-1.34,3.3-2.35,4.72-1.41,1.96-3.06,3.76-4.71,5.53-4.32,4.62-7.35,10.02-9.66,15.85-1.43,3.61-1.07,4.22,2.7,5.26,2.26.62,4.56,1.13,6.76,1.92,1.58.57,3.13,1.36,4.48,2.34,1.96,1.41,2.36,3.36,1.41,5.6-.84,1.99-2.21,3.61-3.94,4.83-1.98,1.39-4.1,2.58-6.13,3.9-1.83,1.18-3.7,2.33-5.41,3.67-.99.78-1.83,1.83-2.53,2.9-1.19,1.82-1.39,3.78-.24,5.73,1.07,1.81,2.22,3.57,3.27,5.39,1.5,2.58,2.96,5.19,4.4,7.81.35.63.58,1.33.82,2.02,2.01,5.8,1.13,8.89-3.9,12.34-4.13,2.83-8.45,5.39-12.64,8.13-1.62,1.06-3.2,2.21-4.64,3.51-1.25,1.13-2.39,2.42-3.36,3.8-1.52,2.16-1.85,4.5-1.05,7.14.8,2.61,1.41,5.32,1.69,8.03.34,3.36-1.04,5.28-4.22,6.55-1.8.72-3.72,1.15-5.47,1.97-2.33,1.09-4.71,2.19-6.76,3.7-2.62,1.92-2.79,3.5-1.67,6.59.79,2.2,1.65,4.4,2.15,6.68,1.18,5.38-.82,9.21-5.99,11.16-2.93,1.1-6.06,1.68-9.11,2.46-2.03.52-4.11.9-6.11,1.51-1.3.39-2.56.99-3.76,1.65-2.88,1.58-4,4.01-3.51,7.3.55,3.69.58,7.4.01,11.11-.87,5.67-4.3,9.16-9.49,10.89-2.57.86-5.37,1.09-8.08,1.48-2.98.42-5.88,1-8.6,2.37-2.43,1.23-4.25,2.99-4.95,5.66-1.19,4.54-4.37,6.81-8.68,7.83-4.98,1.17-9.97,1.24-14.83-.44-1.96-.68-3.79-1.78-5.64-2.77-1.94-1.04-3.87-1.94-6.52-1.04,1.09,1.23,1.96,2.35,2.97,3.32,7.67,7.37,13.31,16.22,18.48,25.4,5.38,9.53,11.87,18.11,20.86,24.58,2.16,1.56,4.28,3.2,6.31,4.92,3.36,2.85,7.2,4.91,11.02,7.02,3.33,1.84,6.9,2.68,10.7,2.66,4.6-.02,9.21-.05,13.81.05,1.6.03,3.26.23,4.78.71,1.34.43,2.75,1.14,3.7,2.13,2.24,2.32,1.35,5.63-1.76,6.48-1.58.43-3.35.3-5.03.24-4.03-.15-8.06-.46-12.1-.6-1.52-.05-3.05.21-5.15.37.92.54,1.32.89,1.79,1.04,4.17,1.27,8.34,2.51,12.52,3.74,1.55.46,3.12.85,4.65,1.35,7.77,2.5,15.52,5.04,23.29,7.54,2.52.81,4.73,2.05,6.46,4.09,1.33,1.56,1.92,3.34,1.81,5.37-.11,2.08-.96,3.5-2.97,3.9-1.95.39-4.01.5-5.99.31-2.89-.28-5.73-.96-8.61-1.41-1.17-.18-2.4-.46-3.51.4.07,1.51,1.15,2.33,2.17,3.06,2.04,1.45,4.16,2.79,6.28,4.12,2.05,1.29,4.19,2.45,6.22,3.77,2.91,1.89,5.2,4.36,6.48,7.65.35.89.64,1.86.69,2.8.11,2.19-1.5,3.53-3.62,2.96-1.23-.33-2.43-.9-3.55-1.52-1.76-.98-3.42-2.16-5.18-3.14-.97-.54-2.05-1.02-3.13-1.23-1.6-.31-2.4.62-1.79,2.11.54,1.33,1.28,2.62,2.13,3.79,1.48,2.02,3.14,3.91,4.67,5.9,1.18,1.54,2.37,3.08,3.39,4.73.67,1.08,1.21,2.3,1.54,3.53.91,3.39-.99,5.41-4.43,4.8-3.56-.63-6.81-1.99-9.79-4.03-5.14-3.51-10.19-7.17-15.47-10.46-5.96-3.72-12.13-7.11-18.22-10.63-.33-.19-.71-.31-1.41-.6.25.78.31,1.32.57,1.74,1.38,2.28,2.89,4.49,4.19,6.82,1.18,2.1,2.24,4.29,3.17,6.51.35.84.39,1.92.25,2.85-.36,2.33-2.19,3.52-4.43,2.8-1.51-.49-3-1.23-4.31-2.13-3.32-2.26-6-5.17-8.09-8.6-2.95-4.83-5.98-9.62-8.71-14.57-6.37-11.57-14.92-21.04-26.11-28.14-3.89-2.47-7.6-5.22-11.91-6.95-3.7-1.49-7.48-2.43-11.53-2.28-5.89.22-11.8.41-17.69.38-4.11-.02-8.23-.44-12.34-.69-.55-.03-1.11-.1-1.84-.17,0,1.85.62,3.41,1.18,4.95.64,1.75,1.41,3.44,2.07,5.18.34.9.71,1.84.79,2.79.11,1.32.5,2.47,1.08,3.65.86,1.71.68,2.94-.28,3.49-.86.5-1.92.12-3.17-1.14-1.01-1.02-2.18-1.92-2.99-3.08-.81-1.16-1.28-2.57-1.86-3.89-.5-1.14-.44-2.74-2.15-2.86-1.52-.11-1.96,1.25-2.56,2.25-1.69,2.83-1.6,4.65.6,7.04,1.29,1.4,2.12,3.25,4.04,4.08.79.34,1.07,1.22.78,2.09-.31.94-1.11,1.1-1.97.98-.7-.09-1.38-.25-2.26.03.79.48,1.6.93,2.37,1.44.86.57,1.79,1.1,2.49,1.83.36.38.54,1.28.34,1.74-.19.43-.98.7-1.55.82-.53.12-1.12-.05-1.81-.1-.25,1.18.12,1.91,1.39,2.24.69.18,1.4.47,1.98.87.32.22.61.84.53,1.19-.08.34-.64.8-1,.81-1.37.03-2.75-.03-4.1-.19-1.43-.17-2.85-.48-4.27-.75-.71-.14-1.45-.24-2.11-.5-4.05-1.58-7.57-3.98-10.63-7.05-2.38-2.38-3.66-5.28-3.79-8.69-1.02-.41-1.97-.86-2.95-1.18-3.95-1.31-5.87-3.71-6.1-7.74-.26-4.64.92-8.65,4.98-11.42.67-.45,1.23-1.06,1.88-1.53,3.58-2.56,4.57-6.27,4.78-10.69-1.67-.74-3.3-1.65-5.04-2.19-4.4-1.37-8.82-2.65-13.27-3.84-8.94-2.39-16.94-6.62-24.49-11.93-10.6-7.47-17.8-17.74-24.23-28.67-6.25-10.6-9.46-22.27-11.6-34.27-1.55-8.69-3.51-17.27-6.32-25.63-1.82-5.41-4.58-10.33-8.56-14.5-1-1.04-1.76-2.32-2.8-3.31-2.09-1.99-4.74-3.05-7.42-3.99-.99-.35-1.99-.66-3-.97-7.85-2.41-12.68-8.02-16.1-15.14-.31-.65-.59-1.32-.85-1.91-9.26-.69-18.41-1.38-27.62-2.07-.06-1.43.95-2.13,1.82-2.74,2.64-1.86,5.28-3.75,8.08-5.33,3.79-2.15,7.74-4.02,11.62-6.03.42-.22.88-.48,1.14-.86,1.49-2.18,3.48-3.05,5.81-2.49,2.09-2.69,3.83-5.45,6.07-7.71,7.42-7.48,16.46-10.89,27.02-10.1,3.98.3,7.28,2.11,10.08,4.8,2.34,2.25,4.46,4.74,5.78,7.73,3.45,7.87,9.43,13.41,16.41,18.03,2.34,1.55,4.83,2.88,7.62,4.54.1-1.26.27-2.12.23-2.96-.27-5-.37-10.02-.92-14.99-1.03-9.32-2.09-18.64-3.55-27.9-1.87-11.81-4.14-23.56-6.25-35.33-2.69-15.04-5.29-30.09-8.12-45.1-1.99-10.56-4.2-21.08-6.53-31.57-2.66-11.99-5.6-23.92-8.34-35.89-1.46-6.39-2.69-12.82-2.92-19.39-.05-1.52.08-3.07.29-4.58.11-.77.46-1.56.88-2.23,1.23-1.94,3.13-2.27,4.99-.91,1.82,1.33,2.98,3.19,3.78,5.25.58,1.5,1.05,3.06,1.48,4.61,2.78,10.14,5.88,20.16,9.67,29.98,1.71,4.44,2.94,9.07,4.52,13.57.77,2.2,1.79,4.32,2.84,6.41.58,1.16,1.49,2.38,2.9,2.29,1.59-.1,2.23-1.62,2.51-2.93.62-2.83,1.13-5.71,1.43-8.59.89-8.77,1.95-17.51,3.89-26.12.8-3.56,1.92-7.02,4.04-10.07,1.91-2.76,4.43-4.66,7.89-4.29,3.68.4,5.95,2.94,7,6.27.92,2.9,1.46,5.97,1.81,9,.95,8.19,1.68,16.4,2.55,24.59.15,1.43.41,2.9.92,4.24.62,1.64,1.77,1.86,2.95.55,1.29-1.43,2.34-3.07,3.51-4.62,1.07-1.41,2-2.98,3.27-4.18,1.99-1.89,4.38-2.76,7.11-1.53,2.72,1.22,4.11,3.41,4.08,6.33-.02,2.09-.39,4.18-.63,6.26-.2,1.77-.56,3.52-.64,5.29-.06,1.36.04,2.76.35,4.08.66,2.84,2.31,3.89,5.17,3.39,2.15-.37,4.26-1,6.41-1.28,1.66-.21,3.42-.3,5.04.01,4.38.83,6.47,3.87,5.87,8.28-.43,3.2-1.14,6.37-1.4,9.58-.15,1.89.14,3.87.58,5.73.56,2.38,2.28,3.63,4.75,3.77,1.53.08,3.06.22,4.6.26,5.07.14,10.75,5.17,9.37,12.8-.49,2.73-1.71,5.38-2.9,7.92-1.77,3.75-3.38,7.52-3.77,11.7-.11,1.2-.2,2.42-.2,3.63,0,3.64,1.49,6.36,4.89,7.96,5.28,2.49,7.63,7.05,8.37,12.53.23,1.72-.13,3.55-.42,5.29-.5,3.08-.27,6.1.28,9.15.57,3.17.96,6.38,1.31,9.59.46,4.26-.4,8.36-1.65,12.41-2.22,7.18-4.38,14.38-6.61,21.55-.48,1.54-1.09,3.04-1.76,4.51-.3.67-.87,1.22-1.49,1.72-.13-3.5.64-6.79,1.56-10.02,1.52-5.36,2.9-10.79,4.91-15.98,2.89-7.45,3.37-14.92,1.46-22.59-1-4-1.17-7.99-.37-12.02.59-2.97.21-5.76-1.1-8.48-1.17-2.42-2.83-4.29-5.3-5.44-.87-.41-1.73-.89-2.51-1.45-2.77-2-3.93-4.84-4.07-8.16-.21-4.85.68-9.49,2.68-13.92,1.06-2.36,2.25-4.66,3.25-7.04.92-2.18,1.5-4.43.97-6.85-.77-3.51-3.19-5.89-6.74-6.36-1.6-.21-3.23-.15-4.84-.27-4.16-.32-6.53-2.3-7.49-6.34-.92-3.86-.48-7.71.31-11.54.26-1.27.6-2.52.8-3.79.58-3.67-1.04-5.83-4.79-5.98-1.9-.08-3.84.36-5.74.68-1.43.24-2.81.76-4.24,1.01-3.24.58-5.72-.73-7.14-3.7-1.16-2.43-1.19-5.02-.89-7.61.29-2.49.76-4.95,1.09-7.43.16-1.2.31-2.43.2-3.62-.33-3.32-3.8-4.95-6.42-2.92-1.3,1.01-2.22,2.52-3.24,3.86-1.42,1.86-2.61,3.92-4.19,5.61-2.45,2.62-5.92,1.91-7.05-1.53-.79-2.42-1.03-5.05-1.3-7.61-.93-8.84-1.73-17.69-2.69-26.53-.18-1.66-.65-3.37-1.36-4.87-2.25-4.7-6.84-5.09-10.02-.96-2.12,2.75-3.35,5.96-3.95,9.3-1.29,7.15-2.37,14.34-3.44,21.53-.58,3.91-.85,7.88-1.44,11.79-.23,1.48-.78,3-1.52,4.3-1.9,3.33-4.84,3.64-7.57.92-.68-.68-1.28-1.47-1.74-2.31-.7-1.27-1.38-2.58-1.84-3.95-3.83-11.33-7.68-22.65-11.38-34.02-1.42-4.37-2.41-8.89-3.75-13.29-.6-1.99-1.48-3.92-2.43-5.77-.49-.97-1.26-1.9-2.63-1.97-1.39,1.05-1.51,2.64-1.41,4.15.25,3.71.37,7.46,1.08,11.09,1.59,8.08,3.54,16.09,5.28,24.15,3.42,15.8,6.96,31.57,10.12,47.43,2.47,12.36,4.41,24.82,6.62,37.23,2.49,13.92,5.17,27.81,7.48,41.76,1.63,9.8,2.81,19.68,4.15,29.53.44,3.2.68,6.43,1.11,9.64.71,5.42.23,10.82-.14,16.22-.04.56-.33,1.11-.51,1.66-.15.06-.31.13-.46.19Zm62.82,155.03c-.5,3.33-2.63,5.39-5.01,7.28-1.14.9-2.31,1.81-3.26,2.89-1.49,1.68-3.02,3.39-4.15,5.32-2.18,3.75-2.51,10.39,2.14,14.43,2.7,2.35,5.61,4.38,8.87,5.84.94.42,2.01.61,3.04.74.47.06.99-.26,1.49-.41-.71-.68-1.44-.94-2.18-1.09-2.26-.47-4.32-1.38-6.08-2.86-.78-.66-1.49-1.51-1.96-2.41-.27-.52-.19-1.45.13-1.95.2-.31,1.21-.35,1.72-.15,1.95.77,3.84,1.69,5.77,2.53.43.19.92.24,1.38.35-.66-.88-1.48-1.41-2.17-2.07-.93-.88-1.87-1.79-2.61-2.83-.28-.39-.21-1.37.1-1.71.26-.29,1.16-.17,1.69.02.59.21,1.03.79,1.6,1.07.8.39,1.67.64,2.69,1.01-.09-.56-.06-.76-.15-.87-.39-.51-.79-1.02-1.23-1.49-3.73-3.94-3.39-8.01,0-12.17,2.11-2.59,5.68-2.14,7.15.87.46.94.69,1.98,1.07,2.96.34.87.59,1.83,1.84,2.29.56-1.55-.11-2.79-.58-4-1.39-3.52-2.97-6.98-2.95-10.83-2.8-.92-5.46-1.81-8.34-2.75Zm-11.66-8.69c-.88,6.93-1.55,8.12-6.61,12.28-.25.21-.49.43-.75.61-2.64,1.79-3.67,4.38-3.79,7.46-.17,4.46,1.86,7,6.44,7.89.09-.21.21-.43.26-.65.97-4.74,3.66-8.37,7.37-11.34,1.2-.96,2.41-1.91,3.55-2.93.45-.4.88-.96,1.03-1.53.42-1.62.69-3.27,1.05-5.08-2.68-2.11-5.46-4.29-8.54-6.72ZM17.07,223.53c.11.17.23.34.34.52,6.32-2.23,13.26-1.37,19.41-3.86.65-3.06,1.27-5.99,1.89-8.92-1.39-.25-2.06.44-2.68,1.21-.65.82-1.23,1.69-1.89,2.51-1.14,1.4-1.25,1.41-2.96.38-4.68,2.71-9.39,5.44-14.11,8.17Zm19.84-.8c-2.1.47-3.97.98-5.86,1.29-1.9.31-3.83.43-5.74.63,4.1.83,8.18,1.46,12.38,1.36-.04-.53-.02-.77-.09-1-.19-.69-.41-1.37-.68-2.28Z"/><path class="cls-1" d="m162.51,107.34c-1.37,1.34-2.35,2.15-3.15,3.11-1.14,1.36-2.1,2.88-3.23,4.24-3.92,4.7-7.87,4.49-11.42-.57-2.07-2.96-3.34-6.27-4.14-9.76-1.33-5.83-2.55-11.68-3.97-17.49-.55-2.26-1.44-4.45-2.32-6.61-.42-1.02-1.08-2.21-2.39-2.1-1.32.11-2.15,1.19-2.46,2.4-.35,1.39-.66,2.86-.59,4.28.14,3.14.54,6.27.79,9.41.15,1.85.31,3.7.3,5.55,0,.95-.24,1.94-.58,2.83-.75,1.97-2.34,2.66-4.3,1.91-1.72-.66-3.11-1.82-3.9-3.48-1.21-2.55-2.23-5.18-3.36-7.77-.84-1.92-1.56-3.91-2.59-5.73-1.22-2.16-2.6-2.15-4.1-.15-1.52,2.03-1.99,4.4-1.95,6.87.08,5.11.7,10.16,1.98,15.11,1.67,6.4,3.53,12.75,6.44,18.8-1.35.78-2.04.01-2.51-.99-1.06-2.27-2.2-4.52-3.03-6.87-2.87-8.1-5.03-16.37-5.32-25.03-.1-2.8.16-5.52,1.48-8.01,1.09-2.04,2.48-3.92,5.1-3.92,2.46,0,3.72,1.81,4.63,3.75,1.17,2.48,2.09,5.07,3.16,7.6.72,1.71,1.43,3.43,2.27,5.08.63,1.25,1.61,2.19,3.41,2.52.25-.94.66-1.82.68-2.71.03-1.69-.13-3.38-.27-5.07-.25-3.06-.68-6.11-.77-9.17-.06-1.75.13-3.59.69-5.24.44-1.29,1.42-2.55,2.48-3.45,1.67-1.41,3.84-1.24,5.19.47,1.22,1.56,2.35,3.36,2.92,5.23,1.45,4.79,2.58,9.67,3.83,14.52.85,3.28,1.46,6.65,2.58,9.83.85,2.4,2.12,4.73,3.61,6.8,1.91,2.65,3.77,2.6,6,.23.99-1.05,1.8-2.29,2.72-3.41.97-1.18,1.88-2.46,3.01-3.47,2.43-2.16,4.65-1.71,6.01,1.23,1.49,3.22,2.05,6.67,1.55,10.17-.46,3.19-1.31,6.32-1.89,9.5-.63,3.41-1.34,6.83-1.63,10.28-.16,1.95.21,4.04.76,5.95.67,2.36,2.05,2.68,4,1.14,1.14-.9,2.12-1.99,3.22-2.94,1.04-.9,2.07-1.83,3.22-2.56,2.28-1.44,4.16-.99,5.51,1.36,1.44,2.5,2.38,5.26,1.74,8.12-.69,3.05-1.7,6.06-2.83,8.98-1.23,3.17-2.51,6.31-2.94,9.71-.13,1-.02,2.03-.02,3.34.95-.11,1.64-.15,2.32-.28,3.05-.57,4.5.07,5.93,2.83,2.1,4.05,2.4,8.39,1.5,12.75-.55,2.67-1.42,5.32-2.53,7.82-3.09,6.95-5.9,13.99-8.31,21.21-.52,1.56-.95,3.19-2.36,4.89-.33-2.02-.18-3.58.15-5.12,1.28-5.95,3.45-11.6,5.83-17.19,1.52-3.56,3.02-7.14,4.29-10.8,1.14-3.27,1.15-6.69.31-10.05-.29-1.16-.8-2.28-1.36-3.34-.5-.94-1.35-1.35-2.46-.96-.46.16-.94.25-1.41.36-2.91.68-4.61-.53-4.55-3.55.04-2,.34-4.04.86-5.97.61-2.25,1.61-4.39,2.43-6.58.94-2.49,2-4.95,2.79-7.48.81-2.59.27-5.14-.97-7.5-.83-1.58-1.66-1.78-3.12-.71-1.17.85-2.2,1.9-3.27,2.88-1.07.98-2.05,2.09-3.2,2.96-2.61,1.99-5.49,1.42-6.8-1.6-.81-1.88-1.21-4.03-1.35-6.08-.26-3.73.52-7.4,1.35-11.03.77-3.39,1.6-6.76,2.28-10.17.5-2.49.25-5-.43-7.44-.29-1.05-.85-2.03-1.56-3.69Z"/><path class="cls-1" d="m299.28,148.89c.41-.74.73-1.54,1.23-2.2,4.73-6.11,9.93-11.72,16.61-15.79,3.9-2.37,8-4.28,12.51-5.07,1.89-.33,3.88-.47,5.78-.28,5.69.58,8.59,5.03,6.66,10.41-.89,2.47-2.14,4.94-3.74,7.02-5.3,6.84-10.84,13.48-16.27,20.21-1.92,2.39-3.88,4.78-5.61,7.31-1.08,1.58-1.93,3.37-2.6,5.17-.92,2.44-.33,3.55,2.17,4.47,1.44.52,2.96.81,4.43,1.24,1.32.38,2.67.7,3.92,1.24,3.67,1.6,4.43,4.58,1.74,7.51-1.57,1.71-3.4,3.26-5.36,4.51-4.08,2.61-8.33,4.96-12.5,7.43-4.1,2.43-8.25,4.79-12.25,7.37-2.09,1.35-4.03,2.99-5.83,4.72-1.14,1.1-2.04,2.52-2.77,3.94-1.2,2.33-.84,3.65,1.13,5.33.86.73,1.86,1.31,2.67,2.1.98.95,1.99,1.93,2.68,3.09,1.56,2.63.93,5.36-1.71,6.9-1.86,1.09-3.93,1.87-5.98,2.58-3.13,1.07-6.41,1.74-9.46,3-2.59,1.06-5.09,2.48-7.34,4.14-2.57,1.89-3.76,4.56-2.87,7.91.31,1.15.23,2.41.36,3.61.35,3.41-1.02,6.05-3.82,7.85-5.1,3.27-10.21,6.53-15.47,9.54-4.83,2.77-10.28,3.85-15.72,4.7-6.78,1.07-13.6,1.94-20.4,2.91-1.5.22-2.99.53-4.66.5.46-.33.89-.72,1.39-.97,3.22-1.64,6.74-2.22,10.23-2.86,6.04-1.11,12.09-2.18,18.12-3.3,4.99-.93,9.57-2.93,13.9-5.52,3.12-1.87,6.2-3.81,9.28-5.75.89-.56,1.74-1.18,2.57-1.83,1.51-1.17,2.3-2.69,2.13-4.63-.13-1.45-.19-2.91-.47-4.33-.66-3.36.21-6.23,2.53-8.71,2.26-2.42,5.05-4.06,8.09-5.22,3.01-1.15,6.15-1.97,9.21-3,2.14-.72,4.32-1.37,6.34-2.36,2.51-1.22,2.75-2.95.9-5.04-.64-.72-1.44-1.29-2.19-1.9-.82-.66-1.72-1.22-2.49-1.92-2.15-1.94-2.74-4.29-1.75-7.03.87-2.41,2.28-4.49,4.19-6.16,2-1.75,4.05-3.51,6.31-4.9,5.09-3.13,10.35-5.98,15.49-9.04,3.75-2.23,7.43-4.57,11.08-6.96,1.06-.7,1.99-1.66,2.81-2.65,1.19-1.44.96-2.44-.77-3.23-1.16-.53-2.44-.83-3.69-1.17-1.56-.43-3.17-.69-4.7-1.2-4.06-1.35-5.4-3.89-3.93-7.89.8-2.17,1.85-4.36,3.24-6.19,3.37-4.44,7.03-8.66,10.55-12.98,3.73-4.57,7.55-9.08,11.1-13.79,1.53-2.03,2.77-4.39,3.67-6.78,1.35-3.6-.23-6.1-3.98-7.11-2.45-.66-4.83-.22-7.18.37-7.14,1.81-13.24,5.56-18.61,10.5-3.62,3.32-7.06,6.84-10.58,10.26-.11-.03-.22-.07-.34-.1Z"/><path class="cls-1" d="m172.48,265.89c5.2-3.76,10.21-7.8,15.62-11.22,11.06-7,22.33-13.68,33.51-20.49,10.58-6.43,20.97-13.14,30.63-20.9,8.76-7.05,17.21-14.47,25.08-22.5,3.32-3.39,6.2-7.24,9.08-11.03,1.78-2.34,1.96-3.42,2-5.28-3.11-1.52-12.76,1.23-17.95,5.24.05-.61-.07-1.14.14-1.35.67-.69,1.39-1.36,2.2-1.85,3.65-2.18,7.65-3.46,11.79-4.27.94-.18,1.94-.2,2.9-.13,2.29.16,3.36,1.49,2.93,3.76-.21,1.09-.59,2.22-1.17,3.16-1.53,2.47-3.07,4.95-4.85,7.24-4.92,6.37-10.97,11.63-16.82,17.1-14.26,13.31-30.12,24.4-46.83,34.38-14.5,8.66-28.92,17.47-43.38,26.19-1.49.9-3.07,1.63-4.61,2.44-.09-.16-.18-.32-.27-.48Z"/><path class="cls-1" d="m282.98,393.77c.8.2,1.64.3,2.38.62,5.01,2.21,9.49,5.23,13.26,9.2,1.09,1.15,2,2.56,2.65,4,.83,1.85-.16,3.22-2.17,3.26-1.04.02-2.08-.18-3.19-.29-.12.15-.33.3-.39.5-.93,2.85-1.97,3.46-4.82,2.96-4.8-.85-8.36-3.66-11.56-7.09-.6-.64-1.18-1.29-2.19-2.4.11,1.28.21,2.01.23,2.75.05,1.37.25,2.77.04,4.1-.42,2.69-2.33,3.53-4.56,2-1.25-.86-2.37-1.96-3.36-3.12-1.31-1.53-2.49-3.18-3.64-4.85-3.58-5.18-7.84-9.65-13.21-13.01-.32-.2-.58-.51-1.16-1.03.64-.31,1.15-.77,1.47-.67.99.32,1.96.76,2.84,1.31,4.25,2.64,7.68,6.16,10.67,10.12,1.56,2.06,3.04,4.19,4.67,6.2.94,1.15,2.12,2.12,3.19,3.16.18-.08.36-.16.55-.23.03-1,.15-2.01.07-3.01-.14-1.61-.45-3.2-.63-4.81-.12-1.08-.04-2.18,1.14-2.68,1.04-.45,1.89.1,2.59.84.84.88,1.62,1.8,2.43,2.71,1.95,2.18,4.02,4.22,6.62,5.63,1.77.95,3.6,1.75,5.66,1.57.8-1.2-.03-3.21,1.78-3.52,1.3-.22,2.69.1,4.18.19-.3-1.39-1.23-2.32-2.18-3.11-2.85-2.38-5.79-4.65-8.7-6.95-1.62-1.28-3.28-2.52-4.91-3.78.09-.19.18-.38.28-.57Z"/><path class="cls-1" d="m142.88,185.88c-1.65-.04-2.09-1.18-2.29-2.26-.42-2.3-.67-4.62-.94-6.95-.37-3.21-.6-6.44-1.1-9.62-.25-1.57-.79-3.16-1.53-4.56-1.88-3.59-4.83-3.89-7.21-.66-2.52,3.43-3.31,7.29-1.75,11.42.05.12-.05.3-.11.59-.95.34-1.42-.3-1.8-1.01-2.33-4.3.37-12.8,4.75-14.98,2.22-1.1,4.23-.68,6.09.81,1.91,1.53,3.02,3.63,3.54,5.93.64,2.83,1.06,5.71,1.44,8.59.27,2.08.33,4.19.48,6.28.14,2.08.28,4.17.43,6.42Z"/><path class="cls-1" d="m57.6,212.37c0,.78.04,1.56,0,2.33-.07,1.13-.27,2.25-.31,3.37-.13,3.63,1.15,5.2,4.69,5.81.63.11,1.28.18,1.92.19,1.78.03,3.03.73,3.83,2.41.71,1.48,1.57,1.66,2.89.73.78-.55,1.42-1.3,2.11-1.98.98-.96,1.87-2.01,2.92-2.89.69-.57,1.58-.9,2.62-1.46,0,.64.08.89-.01,1.06-1.5,2.91-3.61,5.37-6.18,7.34-2.55,1.97-5.05,1.25-6.5-1.67-.42-.85-.94-1.21-1.82-1.28-.72-.05-1.44-.17-2.16-.29-4.37-.7-6.3-2.74-6.3-7.15,0-1.98.58-3.97.93-5.95.07-.38.27-.74.41-1.11.32.18.64.36.96.53Z"/><path class="cls-1" d="m71.81,211.93c.01,3.53-2.47,6.31-5.65,6.33-3.05.01-5.35-2.44-5.32-5.68.02-3.21,2.7-6.39,5.4-6.42,3.09-.04,5.56,2.53,5.57,5.78Zm-1.59.16c.03-2.13-1.87-4.16-3.88-4.16-1.57,0-3.49,2.49-3.54,4.59-.04,2.2,1.39,3.82,3.42,3.87,2.13.05,3.96-1.92,4-4.29Z"/><path class="cls-1" d="m262.67,381.62c-.24-2.97-1.72-4.76-2.63-7.01.49.05.97-.02,1.29.16,2.15,1.25,3.39,3.19,3.82,5.59.39,2.19-1.06,3.7-3.23,3.25-3.06-.63-5.71-2.15-7.94-4.33-.68-.66-1.03-1.47.04-2.13,1.38.9,2.66,1.87,4.05,2.6,1.32.69,2.77,1.14,4.6,1.87Z"/><path class="cls-1" d="m162.97,360.02c1.98.78,3.96,1.73,6.48,1.21-.8-1.78-1.54-3.44-2.31-5.17,2.6.41,4.98,3.11,4.93,5.44-.03,1.29-.66,2.14-2.01,2.31-2.4.31-4.67-.24-6.72-1.51-.91-.57-.89-.78-.37-2.27Z"/><path class="cls-1" d="m91.43,248.57c1.32,1.97,1.29,5.15,0,6.59-.64.71-1.41,1.01-2.39.72-2.14-.63-5.52-4.41-5.99-6.76.73-.73,1.27-.29,1.81.29.82.88,1.63,1.79,2.51,2.61.62.57,1.35,1.02,2.06,1.54,1.38-1.52.51-3.71,2-4.98Z"/><path class="cls-1" d="m108.7,247.49c2.42,1.47,3.18,4.15,1.98,6.31-1.09,1.96-3.62,2.39-6.22,1.07-2-1.02-2.45-2.1-1.62-3.92.86.66,1.63,1.5,2.6,1.93,2.34,1.04,3.61.16,3.61-2.35,0-.94-.2-1.89-.34-3.04Z"/><path class="cls-1" d="m100.27,305.37c1.25,2.38,1.92,4.7,4.29,6.27.66-1.79,1.24-3.39,1.86-5.08.93,1.82.96,4.83.14,6.19-.68,1.12-1.73,1.53-2.88,1.11-2.45-.89-4.5-5.49-3.42-8.5Z"/><path class="cls-1" d="m239.62,381.23c1.42,1.86,2.67,3.43,5,3.51,1.13-1.65.62-3.38.19-5.48.69.4,1.22.56,1.48.91.42.57.77,1.24.95,1.91.53,1.95.03,3.84-1.21,4.59-1.66,1-3.12.24-4.45-.73-.76-.56-1.42-1.3-2-2.05-.55-.72-.74-1.55.05-2.65Z"/><path class="cls-1" d="m194.05,373.13c2.05.6,3.67,1.88,5.74.7-.24-1.76-.48-3.55-.75-5.54,2,.28,2.36,1.68,2.85,2.87.59,1.46.92,2.99-.29,4.32-1.28,1.42-2.9,1.2-4.49.7-1.37-.43-2.76-.91-3.07-3.06Z"/><path class="cls-1" d="m176.82,326.37c2.05,1.11,3.28,2.4,3.74,4.31.44,1.84-.41,3.08-2.26,3.16-1.9.08-3.68-.45-5.27-1.51-.6-.4-1.15-.9-.76-1.81,1.85.42,3.68.84,6.04,1.37-.56-2.08-.98-3.64-1.49-5.53Z"/><path class="cls-1" d="m146.39,346.19c2.2,1.38,3.91,2.46,6.36,1.99-.38-.93-.71-1.71-1.01-2.5-.28-.73-.79-1.51.26-2.08,1.91.87,3.22,2.82,3.13,4.65-.06,1.28-.76,2.05-2.06,2.29-1.9.35-5.28-1.19-6.29-2.89-.14-.24-.15-.57-.37-1.46Z"/><path class="cls-1" d="m122.08,340.27c2.39,1.47,3.99,4.96,3.29,7.03-.22.64-.96,1.35-1.6,1.53-1.78.51-4.65-1.39-5.09-3.22-.08-.33.08-.71.17-1.37,1.32,1.16,2.32,2.4,4.28,2.32-.34-2.04-.66-3.99-1.04-6.29Z"/><path class="cls-1" d="m136.26,325.08c1.57.75,2.97,1.43,4.37,2.1.16-.15.31-.3.47-.46-.72-1.45-1.44-2.91-2.25-4.54.49-.04.92-.22,1.18-.08,2.06,1.1,3.22,2.88,3.53,5.16.15,1.13-.56,1.87-1.63,2.02-1.77.25-5.06-1.67-5.73-3.37-.08-.19.02-.46.05-.84Z"/><path class="cls-1" d="m115,297.55c1.27.82,2.37,1.75,3.64,2.27,1.5.62,2.02.14,2.06-1.54.01-.48-.05-.96-.12-1.43-.06-.38-.18-.75-.29-1.17,2.04.51,2.94,2.09,2.5,4.26-.37,1.85-1.54,2.65-3.53,2.36-1.56-.23-2.9-.93-3.9-2.18-.63-.79-.84-1.65-.37-2.57Z"/><path class="cls-1" d="m116.64,325.94c.98.48,1.59.57,1.74.89.65,1.36,1.43,2.75,1.65,4.2.31,2.01-1.43,3.15-3.28,2.27-.92-.44-1.75-1.14-2.48-1.86-.55-.55-.99-1.3-.3-2.25,1.06.72,2.13,1.43,3.19,2.15.15-.09.29-.17.44-.26-.28-1.51-.57-3.01-.97-5.15Z"/><path class="cls-1" d="m197.03,354.8c1.1.48,2.01,1.46,3.4.37-.28-.81-.64-1.68-.87-2.59-.08-.31.09-.77.31-1.02.13-.15.61-.11.88-.02,1.13.4,2.35,2.36,2.34,3.7,0,1.28-.69,2.15-1.84,2.58-1.44.53-2.88.49-4.08-.58-.7-.63-1.09-1.4-.13-2.44Z"/><path class="cls-1" d="m91.76,273.26c.16,1.33-.1,2.85,1.54,3.53,1.32-.94,1.31-3.13,3.16-3.65.43,2.02-.12,4.28-1.34,5.46-.23.22-.49.43-.77.56-1.29.57-2.92-.38-3.77-2.18-.82-1.72-.52-2.78,1.19-3.72Z"/><path class="cls-1" d="m234.6,362.8q2.13,1.64,3.92,1.88v-4.54c2.23,1.31,3.17,3.36,2.35,5.26-.28.66-.96,1.37-1.63,1.61-2.06.75-4.77-1.64-4.65-4.21Z"/><path class="cls-1" d="m164.25,307.74c1.45.65,2.4,1.08,3.88,1.75-.48-2.33-.85-4.09-1.28-6.18,1.61.44,2.31,1.5,2.88,2.69.17.36.32.74.41,1.13.51,2.05.12,3.56-1.03,4.09-1.27.58-3.27-.27-4.29-1.87-.2-.31-.26-.71-.57-1.6Z"/><path class="cls-1" d="m94.52,234.84c1.47.16,2.51.28,3.62.4.85-1.97-.77-3.4-.87-5.36.55.25,1.07.37,1.42.68,1.58,1.44,2.21,3.31,2.22,5.4,0,1.03-.46,1.6-1.6,1.67-2.04.12-3.52-.63-4.79-2.8Z"/><path class="cls-1" d="m107.35,273.9c.89,1.57,1.32,3.42,3.46,3.43,1.23-.91.53-2.36.9-3.52,1.71.99,2.25,2.69,1.38,4.36-.77,1.49-2.19,1.87-3.92,1.06-1.99-.94-2.91-2.55-2.46-4.43.06-.26.32-.48.63-.91Z"/><path class="cls-1" d="m128.94,252.25c.33-1.99-.33-3.25-1.38-4.76,1.78.11,2.59,1,3.2,2.12.6,1.11.89,2.31.2,3.45-.3.49-.92,1-1.46,1.1-1.68.31-3.19-.26-4.41-1.44-.24-.23-.21-.85-.12-1.26.03-.12.7-.2,1.04-.12.91.23,1.8.55,2.93.9Z"/><path class="cls-1" d="m214.49,334.99c.46.26.84.49,1.23.7,1.8.95,2.62.54,2.97-1.51.13-.76.18-1.53.28-2.34,1.77.65,2.28,1.7,1.86,3.54-.5,2.17-1.82,3.22-3.7,2.94-1.87-.28-2.69-1.27-2.64-3.33Z"/><path class="cls-1" d="m148.31,305.74c-.28-.79-.52-1.46-.76-2.14,1.81.23,2.64.95,2.72,2.31.07,1.28-.82,2.39-2.29,2.71-1.76.39-3.38-.1-4.82-1.07-.35-.23-.38-.93-.56-1.42.48-.12,1.01-.44,1.44-.34,1.36.33,2.67,1.3,4.28-.06Z"/><path class="cls-1" d="m71.01,238.1c.76,1.58.51,2.77-.83,3.96-1.22,1.08-2.91,1.23-4.25.37-1.09-.7-1.22-1.19-.73-2.76,3.01,1.87,3.3,1.79,5.81-1.56Z"/><path class="cls-1" d="m130.16,278.38c.63.25,1.06.41,1.68.66.44-1,.86-1.93,1.27-2.86,1.51.61,1.75,1.17,1.22,2.87-.52,1.67-1.84,2.55-3.23,2.15-1.15-.33-1.36-.91-.94-2.82Z"/><path class="cls-1" d="m66.06,209.49c1.28-.03,2.34.98,2.32,2.21-.02,1.3-1.2,2.46-2.47,2.43-1.17-.03-2.01-.96-2-2.23,0-1.35.92-2.38,2.15-2.4Z"/></svg>