<?xml version="1.0" encoding="UTF-8"?><svg id="Mikrofonhånd_Image" xmlns="http://www.w3.org/2000/svg" viewBox="0 0 170.04 404.27"><defs><style>.cls-1{fill:#ffc4e7;}</style></defs><path class="cls-1" d="m30.83,243.7c-.58-.65-1.1-1.36-1.74-1.95-3.93-3.69-7.51-7.68-10.09-12.43-1.17-2.16-2.07-4.51-2.74-6.87-.41-1.48-.38-3.19-.14-4.73.37-2.49,1.92-3.33,4.35-2.72.65.16,1.31.32,2.42.59-.76-1.25-1.27-2.05-1.73-2.87-2.16-3.83-3.61-7.82-2.94-12.34.52-3.46,2.55-5.59,5.77-6.69,3.54-1.21,7.08-1,10.6.11.51.16,1.01.32,1.41.45-.1-2.46-.42-4.83-.26-7.17.36-5.36,5.12-9.11,10.49-8.42,1.49.19,2.95.53,4.27.77,1.13-1.63,2.13-3.36,3.4-4.86,1.45-1.72,3.23-2,5.59-1.52,5.44,1.1,10.63,2.87,15.83,4.7.13.05.31-.04.53-.08,0-1.1.07-2.21-.01-3.32-.88-11.41-2.42-22.71-5.05-33.87-1.25-5.28-1.93-10.69-2.79-16.05-1.57-9.79-3.03-19.59-4.61-29.37-1.68-10.35-1.89-20.68.08-31.01.05-.27,0-.57,0-1.28-.85.94-1.44,1.56-2,2.21-5.6,6.62-12.95,10.29-21.17,12.41-1.35.35-2.87.33-4.28.16-2.92-.35-4.37-2.15-4.26-5.09.09-2.43.76-4.73,1.88-6.89,4.27-8.23,10.92-13.85,19.34-17.51.86-.37,1.72-.74,3.07-1.32-1.3-.38-2.09-.61-2.88-.85-4.51-1.33-8.72-3.26-11.97-6.76-1.29-1.38-2.42-3-3.25-4.69-1.73-3.54-1.19-7.02.98-10.23,2.53-3.73,6.39-5.03,10.7-3.72,4.69,1.43,8.22,4.51,11.46,8.01.49.53.94,1.08,1.42,1.62.04.05.13.06.56.25,0-.87,0-1.61,0-2.35-.05-4.2.54-8.29,1.93-12.26.92-2.61,2.29-4.93,4.39-6.77,2.81-2.47,5.61-2.48,8.33.1,3.41,3.25,4.87,7.45,5.43,11.99.46,3.68.33,7.35-.66,10.95-.11.38-.2.77-.26,1.17-.02.15.05.31.11.68.56-.35,1.08-.64,1.56-.98,3.31-2.4,6.75-4.58,10.65-5.92,3.04-1.04,6.1-1.29,9.17-.21,3.17,1.11,4.35,3.36,3.45,6.58-.83,2.99-2.38,5.57-4.51,7.82-4.64,4.9-10.24,8.11-16.85,9.54-.39.08-.78.17-1.16.29-.14.04-.25.19-.56.44.56.64,1.12,1.29,1.68,1.93,3.25,3.76,6.33,7.65,8.58,12.1.79,1.56,1.5,3.2,1.89,4.89,1.13,4.84-1.91,9.02-6.83,9.62-3.71.46-6.96-.75-9.87-2.92-3.68-2.74-6.2-6.42-8.16-10.51-.34-.71-.66-1.42-1.24-2.64-.97,3.34-1.75,6.19-1.91,9.18-.35,6.81.11,13.56,1.05,20.32,2.26,16.17,6.3,31.98,9.38,47.99.09.45.21.9.39,1.64.38-.52.64-.8.81-1.13,2.36-4.36,5.71-7.86,9.46-11.05,6.64-5.64,14.06-9.98,22.01-13.5,4.47-1.98,8.98-3.83,13.83-4.63.94-.15,1.29-.78,1.88-1.29.77-.67,1.75-.25,1.63.75-.14,1.16-.52,2.33-1.03,3.4-2.21,4.66-5.2,8.84-8.62,12.66-4.16,4.65-8.42,9.21-12.88,13.56-5.5,5.38-12.11,9.14-19.21,12-1.84.74-3.82,1.11-5.87,1.69.4,4.1.93,8.28,1.17,12.47.24,4.14.17,8.3.24,12.41,2.94,1.59,5.67,3.06,8.4,4.54,3.52,1.9,7.05,3.77,10.55,5.7,2.59,1.43,4.96,3.1,7,5.34,5.81,6.39,11.76,12.66,16.67,19.8,4.38,6.38,7.56,13.33,9.69,20.77,1.12,3.93.92,7.94.57,11.92-.87,9.97-2.6,19.8-5.38,29.43-.19.65-.12,1.41-.02,2.1,1.08,6.95,2.06,13.91,3.33,20.83.92,5.02,2.07,10.02,3.42,14.95,3.22,11.8,6.75,23.51,9.9,35.32,3.17,11.89,6.01,23.87,9.03,35.8.86,3.41,1.84,6.79,2.75,10.18.11.42.15.86.29,1.65-1.5-1.01-2.14-2.22-2.58-3.47-1.22-3.46-2.59-6.9-3.44-10.46-5.03-21.24-10.95-42.24-16.9-63.23-1.26-4.46-2.32-8.98-3.24-13.52-.69-3.36-.92-6.81-1.52-10.19-.77-4.41-1.67-8.79-2.57-13.18-.53-2.58-1.17-5.13-1.8-7.69-.58-2.37-.4-2.63,2.22-2.57,1.04-6.09,2.14-12.22,3.09-18.37.48-3.08.71-6.19,1.01-9.29.55-5.73-.8-11.1-2.98-16.34-3.07-7.37-7.1-14.14-12.34-20.17-3.35-3.86-6.76-7.68-10.19-11.48-.74-.82-1.6-1.59-2.53-2.19-4.96-3.2-9.8-6.54-15-9.4-7.32-4.03-15.06-6.99-22.85-9.84-2.69-.98-5.55-1.47-8.33-2.19-1.5-.39-2.58.17-3.56,1.32-2.8,3.3-3.41,7.55-1.43,11.4,2.37,4.63,6.21,7.65,10.9,9.68,7.48,3.24,14.97,6.45,22.46,9.68,2.71,1.17,2.72,1.25,1.87,4.22-.17.6-.08,1.27-.09,1.91-.15,8.71,1.34,17.2,3.62,25.56,1.38,5.06,3.02,10.05,4.58,15.18-.35-.31-.81-.57-1.06-.97-.76-1.21-1.61-2.41-2.13-3.73-4.31-11.13-6.81-22.63-6.79-34.62,0-1.43.14-2.87.23-4.44-.62-.31-1.23-.61-1.95-.97-.07.39-.2.63-.14.81,1.82,5.25,1.47,10.54.37,15.86-.2.98-.25,2.06-.08,3.04,1.12,6.76.9,13.53.47,20.33-.75,11.76.74,23.3,3.86,34.64.76,2.77,1.79,5.46,2.48,8.24.32,1.3.52,2.76-.84,3.9-.77.65-1.22,1.67-1.87,2.48-.47.59-1.02,1.1-1.58,1.69-7.38-16.99-9.84-34.67-10.49-52.69-7.92-.91-14.29-5.13-21.18-8.03-.37-.15-.7-.4-1.06-.55-9.02-3.64-16.59-9.57-24.21-15.4-2.71-2.08-5.06-4.62-7.7-7.08-.96,0-2.15.07-3.33-.02-1.09-.08-1.76.37-1.85,1.39-.09,1.18-.16,2.41.08,3.55.87,4.07,2.97,7.56,5.46,10.83,2.93,3.83,6.19,7.37,10.09,10.22,5.61,4.1,11.33,8.06,17.09,11.96,1.81,1.22,3.77,2.3,6.15,2.81-1.37-4.11.58-7.3,2.36-10.51.42-.76,1.13-1.09,2.02-.47,1.18.81,2.59,1.35,3.58,2.33,2.98,2.92,2.04,7.59-1.76,9.34-.57.26-1.19.44-1.99.73,1.92,1.17,3.9,1.57,5.92,1.7,1.83.12,2.95-.86,3.51-2.64.58-1.86,0-3.64-.34-5.43-.26-1.38-.49-2.77-.74-4.17,1.6-.52,2.03.42,2.36,1.29,1.54,3.97,2.65,7.95-.13,11.91.24.4.45.73.63,1.07,1.81,3.4,1.08,6.18-2.23,8.17-3.17,1.91-6.79,2.36-10.35,2.76-6.82.76-13.39-.33-19.65-3.18-.77-.35-1.57-.63-2.47-.79,8.92,12.63,20.52,22.63,32.32,32.96-2.23.46-3.41-.99-5.14-1.29,0,.6-.01,1.11,0,1.62.17,6.15.37,12.31.51,18.46.34,14.47.62,28.95,1.02,43.42.19,7.11.56,14.22.88,21.33.07,1.6.15,3.21.47,4.77.37,1.83,1,3.61,1.56,5.55-1.23-.52-2.14-1.55-2.55-2.89-.62-2.06-1.31-4.16-1.47-6.27-.5-6.61-.78-13.25-1.12-19.87-1.04-20.78-1.03-41.58-.96-62.37.01-3.55-.93-6.1-3.85-8.55-9.64-8.1-18.29-17.2-25.31-27.74-.73-1.1-1.66-1.87-2.85-2.47-3.95-1.98-7.79-4.16-10.74-7.53-1.25-1.43-2.44-2.99-3.29-4.68-1.93-3.84-.41-7.66,3.64-9.13,1.7-.61,3.57-.81,5.39-1.01,1.5-.17,3.02-.08,4.54-.11-.6.45-1.14,1.07-1.81,1.31-1.05.37-2.2.41-3.28.7-1.54.4-3.14.71-4.55,1.4-2.35,1.15-3.03,3.33-1.86,5.64.64,1.27,1.48,2.47,2.41,3.56,2.05,2.39,4.48,4.37,7.31,5.76,4.73,2.32,9.5,4.58,14.33,6.7,4.16,1.83,8.61,2.46,13.13,2.34,4.01-.1,8-.62,11.68-2.32,2.86-1.32,3.21-3.04,1.43-5.85-1.12.09-2.28.18-3.26.26-.36,1.09-.44,2.16-1,2.84-1.79,2.18-4.21,3.14-7.03,2.78-1.4-.18-2.48-1.06-2.54-2.48-.07-1.48.25-2.98.51-4.46.04-.23.68-.36,1.26-.64.06.81.13,1.35.14,1.88.01.64-.04,1.28-.04,1.92,0,.91.39,1.53,1.34,1.7,1.56.28,3.85-1.03,4.53-2.54-1.51-1.19-4.05-.02-5.2-2.2.38-.33.67-.57,1.15-.99-4.92-1.35-9.22-3.64-13.25-6.41-4.54-3.13-8.98-6.42-13.47-9.62-.63-.45-1.33-.81-2-1.21Zm40.28.13c2.03.38,3.72.83,5.44.98,2.27.2,3.54-.96,3.9-3.28.36-2.35-.32-4.44-1.74-6.28-1.9-2.48-4.14-4.54-6.85-6.22-11.98-7.47-21.97-17.23-31.29-27.72-.84-.95-1.49-2.08-2.26-3.09-.33-.43-.67-.94-1.13-1.16-3.41-1.56-6.95-2.39-10.71-1.59-4.65.98-6.53,3.53-5.98,8.23.14,1.18.44,2.36.81,3.49,1.3,3.96,3.66,7.29,6.58,10.18,6.05,6,13.17,10.6,20.22,15.3.2.13.42.23.63.34,3.51,1.73,7.01,3.49,10.53,5.19,1.64.79,3.32,1.48,5.2,2.31-.06-3.84,1.29-6.72,3.96-8.87,1.16.58,2.04,1.08,2.96,1.47,2.19.93,3.95,2.27,4.06,4.84.11,2.64-1.35,4.32-3.74,5.27-.06.03-.11.11-.59.63Zm-1.38-19.73c2.53,2.15,5.03,4.28,8.31,5.01,2.56.58,3.9-.27,4.71-2.77,1.02-3.17,1.04-6.45,1.01-9.73-.02-2.61-.74-5.03-1.86-7.37-.61-1.28-1.46-2.18-2.81-2.75-4.86-2.05-9.65-4.25-14.5-6.3-2.98-1.26-5.76-2.81-8.1-5.03-3.77-3.57-6.58-7.64-6.15-13.2,0-.13-.14-.27-.34-.63-1.26-.14-2.68-.37-4.1-.43-4.5-.2-7.63,2.7-7.86,7.18-.25,4.8,1.71,8.78,4.88,12.11,5.17,5.44,10.52,10.72,15.88,15.98,1.61,1.58,3.49,2.9,5.42,4.31.22-5.04,3.42-7.7,6.76-10.22.34-.25,1.39-.21,1.5,0,.47.95,1.4.61,2.03.97,1.31.74,2.71,1.44,3.74,2.49,1.97,2.01,2.26,5.14,1.02,7.59-1.31,2.59-3.21,3.52-6.58,3.19-.99-.1-1.97-.26-2.96-.39Zm-5.42-177.82c.22-.96.4-1.9.66-2.81.43-1.5,1.23-2.79,2.55-3.66.92-.61,2.29-.72,2.23-2.35,0-.24.87-.73,1.34-.73.94,0,1.92.12,2.81.41,1.17.39,2.28.98,3.39,1.49,3.13-5.64,4.22-10.77,3.48-16.92-.47-3.87-1.62-7.52-4.42-10.41-1.99-2.06-3.5-2.03-5.55-.05-2.08,2.02-3.13,4.61-3.86,7.34-1.28,4.78-1.34,9.64-.74,14.52.15,1.25.36,2.51-.75,3.65-.4-.28-.8-.44-1-.73-2.47-3.57-5.45-6.67-8.82-9.39-2.26-1.83-4.74-3.22-7.62-3.9-1.68-.4-3.19-.08-4.59.78-2.65,1.63-5.12,5.86-2.96,9.83.83,1.52,1.89,2.97,3.1,4.21,2.62,2.7,5.95,4.31,9.48,5.45,3.71,1.19,7.48,2.18,11.27,3.27Zm60.67,69.06c-.1-.13-.2-.26-.29-.39-.81.22-1.64.42-2.44.68-6.03,1.95-11.69,4.76-17.31,7.64-6.02,3.08-11.37,7.14-16.42,11.6-2.96,2.62-5.37,5.69-7.25,9.18-1.62,3.01-1.59,6.06-.41,9.48,1.52-.46,3-.77,4.37-1.34,6.62-2.74,12.81-6.25,18.13-11.09,6.7-6.1,12.81-12.75,18.11-20.12,1.29-1.79,2.35-3.75,3.52-5.63Zm-56.22-63.45c-.8-.59-1.88-1.03-2.39-1.84-1.13-1.8-2.71-2.02-4.52-1.78-1.34.18-2.75.25-3.97.75-2.95,1.2-5.93,2.41-8.67,4.01-5.48,3.19-9.91,7.55-12.86,13.21-.87,1.67-1.4,3.56-1.83,5.41-.51,2.22.28,3.28,2.47,3.38,1.33.06,2.72-.16,4-.53,8.21-2.34,15.17-6.58,20.41-13.48,2.36-3.11,4.9-6.09,7.37-9.14Zm1.43.36c.13,4.33,1.38,8.03,2.82,11.66,1.68,4.22,4.16,7.91,7.73,10.77,2.16,1.74,4.64,2.84,7.48,2.8,4.23-.07,6.59-3.26,5.39-7.32-.38-1.29-1.01-2.52-1.64-3.71-2.35-4.49-5.55-8.37-8.84-12.18-1.5-1.73-2.99-3.48-4.58-5.32-2.01,2.54-4.79,3.65-8.36,3.3Zm10.39,127.34c0-4.12.37-8.3-.08-12.38-.88-8.01-1.99-16.01-3.42-23.94-1.58-8.8-3.44-17.55-5.49-26.26-2.34-9.97-3.91-20.05-4.91-30.23-.78-8.01-.75-15.99,1.94-23.68.8-2.29.24-4.14-.59-6.75-.7,1.42-1.38,2.34-1.61,3.35-2.65,11.85-2.66,23.75-.66,35.7,1.44,8.58,2.72,17.19,4.11,25.79,1.03,6.38,1.85,12.81,3.22,19.12,2.65,12.21,4.59,24.48,5.01,36.98.06,1.85.08,1.85,2.48,2.3Zm-1.44-131.43c1.47.36,2.76,1.1,3.84.88,6.96-1.43,13.1-4.5,17.98-9.81,1.7-1.85,2.95-3.97,3.67-6.38.59-2,.06-2.98-1.94-3.65-2.04-.69-4.11-.66-6.12,0-6.84,2.27-12.43,6.35-17.18,11.84,1.27,2.28,1.13,4.51-.25,7.11Zm9.7,247.63c1.29-1.2,1.33-2.3.95-3.55-.7-2.29-1.32-4.61-1.96-6.92-3.09-11.17-4.47-22.54-3.85-34.13.33-6.22.86-12.44.06-18.66-.08-.6-.22-1.2-.34-1.85-1.43.56-2.67,1.04-4.06,1.59,1.97,2.35,3.41,4.79,3.53,7.82.13,3.15-1.16,5.54-3.69,7.1,1.26,16.61,3.03,32.93,9.35,48.6Zm-17.26-83.84c-1.59,2-2.98,3.53-4.13,5.24-1.25,1.85-.97,2.88,1.13,3.72,1.67.66,3.5,1.05,5.3,1.25,1.85.21,2.97-.72,3.6-2.48.72-1.98.09-3.7-1.41-4.95-1.25-1.04-2.78-1.74-4.49-2.77Zm6.01-167.61c-.03-1.99-2.65-4.52-4.41-4.19-1.09.2-2.17.51-3.21.88-2.41.86-3.69,4.61-2.29,6.58,1.12,1.58,3.81,2.4,5.8,1.76,2.3-.73,4.15-2.99,4.12-5.03Zm-9.3,189.47c-.61,1.62-1.21,2.9-1.56,4.25-.34,1.33.15,2.14,1.4,2.63.66.26,1.38.42,2.08.46,1.51.09,2.65-.7,3.14-2.06.45-1.24.08-2.43-1.23-3.29-1.05-.69-2.24-1.18-3.84-2Zm-7.4,14.27c-.74,2.31-1.43,4.14-1.91,6.02-.29,1.15.29,1.78,1.43,2.02,1.38.29,2.89-.37,3.68-1.62.88-1.4.9-2.73-.19-3.94-.76-.84-1.76-1.47-3.02-2.49Z"/><path class="cls-1" d="m66.01,193.62c-1.77-.42-3.61-.68-5.31-1.29-3.34-1.2-4.74-3.6-4.25-7.1.24-1.73.66-3.44,1.1-5.14.49-1.86,2.37-3.14,4.29-2.92.86.1,1.8.24,2.52.66,2.39,1.4,4.81,2.8,7.01,4.48,2.12,1.62,3.04,3.94,2.08,6.6-.99,2.74-3.13,4.12-5.97,4.46-.47.06-.95,0-1.43,0-.02.08-.03.16-.05.24Zm.05-2.49c.02-.08.04-.15.05-.23.32,0,.64.03.95,0,1.87-.2,3.35-1.03,4.07-2.84.72-1.8-.29-3.07-1.52-4.17-2.04-1.81-4.31-3.25-6.9-4.16-.45-.16-.91-.3-1.38-.37-.81-.13-1.43.16-1.61,1.02-.36,1.79-.8,3.58-.99,5.39-.23,2.1.53,3.35,2.51,4.1,1.54.58,3.2.85,4.81,1.26Z"/><path class="cls-1" d="m50.42,32.3c3.15.51,10.47,6.32,11.53,9.03-3.79-3.28-7.95-5.79-11.53-9.03Z"/><path class="cls-1" d="m72.26,32.9c-.96-3.5.03-6.75,1.31-9.95.64,2.84-.02,8.27-1.31,9.95Z"/><path class="cls-1" d="m83.12,148.46c.23-.53.35-1.14.7-1.57,1.16-1.42,2.31-2.87,3.64-4.13,4.85-4.58,10.22-8.44,16.16-11.49.33-.17.7-.28,1.24-.09-3.72,2.77-7.55,5.41-11.14,8.33-3.55,2.89-6.86,6.07-10.28,9.12l-.33-.18Z"/><path class="cls-1" d="m60.46,53.38c-4.39,3.43-8.53,6.66-12.68,9.9-.09-.07-.19-.14-.28-.21.32-.48.6-.99.96-1.43,2.37-2.93,5.2-5.37,8.36-7.4.93-.6,1.91-1.41,3.63-.86Z"/><path class="cls-1" d="m84.05,69.36c-2.95-4.2-5.91-8.4-8.84-12.62-.15-.22-.09-.58-.15-1.11.58.07,1.16-.04,1.38.19,3.67,3.81,6.53,8.12,8.22,13.13-.21.14-.41.27-.62.41Z"/><path class="cls-1" d="m94.67,34.99c-.69,3.03-4.5,6.99-7.63,7.98.16-.63.12-1.24.4-1.51,2.3-2.13,4.66-4.19,7.23-6.48Z"/></svg>