<?xml version="1.0" encoding="UTF-8"?><svg id="Mikrofonhånd_Image" xmlns="http://www.w3.org/2000/svg" viewBox="0 0 132 280"><defs><style>.cls-1{fill:#ffc4e7;}</style></defs><path class="cls-1" d="m31.54,65.74c-.19.64-.33,1.08-.44,1.53-.11.47-.15.95-.26,1.42-1.45,5.92-7.05,7.75-11.57,3.62-1.62-1.48-2.77-3.48-4.1-5.27-.41-.55-.69-1.19-1.46-1.74-.04,1.55-.17,3.1-.11,4.64.18,4.87.29,9.75.7,14.6.42,4.9,1.91,9.59,4.08,13.98,2.61,5.27,4.18,10.87,5.87,16.46,1.18,3.89,2.33,7.82,3.85,11.58,2.06,5.11,5.37,9.43,9.39,13.19.12.11.22.26.36.32,2.79,1.08,2.73,3.36,2.71,5.84-.1,9.6-.05,19.2-.06,28.79-.02,27.92-.06,55.84-.01,83.76,0,4.78.44,9.56.69,14.47-1.26-.18-1.69-1.31-1.92-2.28-.49-2.09-.92-4.23-1.03-6.37-.27-4.95-.47-9.91-.47-14.86-.02-21.92-.04-43.84.08-65.76.08-13.59.41-27.19.63-40.78-7.96-4.89-12.1-12.49-14.74-21.08-1.58-5.11-2.74-10.35-4.3-15.47-.76-2.5-1.82-4.95-3.06-7.25-3.06-5.7-4.38-11.81-4.71-18.19-.2-3.75-.53-7.52-.31-11.26.38-6.41-.52-12.77-.42-19.14.07-4.11.64-8.31,1.68-12.29,1.66-6.29,7.38-7.64,12.19-3.18.81.75,1.49,1.64,2.45,2.7.28-1.67.51-3.13.78-4.57.71-3.83,2.09-7.38,4.57-10.44,2.52-3.11,5.65-4,9.43-2.67,3.07,1.08,5.46,2.95,6.91,5.93.19.4.43.77.74,1.33.84-2.16,1.5-4.1,2.33-5.96.94-2.11,2.45-3.73,4.57-4.73,4.01-1.9,8.89-.76,11.85,3.03,1.49,1.9,2.58,4.11,3.9,6.26.22-.51.46-1.16.77-1.76,1.06-2.05,1.97-4.22,3.28-6.1,1.79-2.55,4.32-3.81,7.59-3.81,4.61,0,8.12,2.1,11.16,5.24,1.05,1.08,1.99,2.31,2.75,3.62,5.03,8.63,8.67,17.81,10.5,27.66.47,2.51.81,5.07.87,7.61.07,2.54-.29,5.09-.47,7.85,1.67.85,3.44,1.7,5.18,2.64,1.48.8,2.9,1.69,4.35,2.53,3.73,2.16,4.9,5.69,5.2,9.69.58,7.53-1.07,14.65-4.3,21.38-1.34,2.78-3.25,5.31-5.06,7.84-2.68,3.74-4.75,7.72-5.98,12.19-1.02,3.71-3.15,6.8-6.33,9.08-.45.32-.87.7-1.48,1.2.74,5.29,1.46,10.68,2.24,16.05,2.21,15.11,4.58,30.19,6.63,45.32,1.89,13.97,4.84,27.7,8.22,41.37,1.83,7.37,3.28,14.84,3.41,22.48.03,1.81,0,3.62,0,5.39-1.33.23-1.46-.58-1.55-1.27-.18-1.35-.27-2.7-.37-4.06-.69-8.88-2.57-17.55-4.8-26.15-2.53-9.76-4.75-19.58-6.22-29.55-1.21-8.22-2.33-16.46-3.53-24.69-1.08-7.36-2.26-14.7-3.31-22.05-1.01-7.04-1.9-14.1-2.86-21.15-.02-.14-.16-.26-.35-.56-8.09,3.67-16.63,4-25.32,2.88-.8-.1-1.55-.52-2.36-.8.45-1.23,1.24-1.02,1.91-1.03,3.52-.02,7.04.01,10.56-.02,5.63-.05,10.9-1.56,15.85-4.15,3.56-1.86,6.14-4.82,7.14-8.66,1.76-6.78,5.73-12.25,9.63-17.82,2.9-4.15,4.3-8.92,5.33-13.76.83-3.91.81-7.92.1-11.91-.4-2.22-1.55-3.81-3.4-4.97-5.79-3.66-11.91-6.52-18.67-7.87-1.96-.39-3.92-.77-6.1-1.19-.24.98-.46,1.95-.72,2.92-.76,2.84-2.5,4.39-5.42,4.6-1.58.11-3.21.07-4.78-.15-3.5-.5-4.81-2.45-4.12-5.92.18-.91.47-1.79.3-2.97-.54.5-1.26.91-1.58,1.52-1.01,1.96-1.56,4.02-.64,6.22.91,2.17,2.02,4.21,3.94,5.63,2.76,2.04,5.59,4,8.43,5.93.5.34,1.17.45,1.78.6.69.18,1.42.23,2.11.43,2.85.85,5.74,1.33,8.74,1.16.91-.05,1.85.23,2.67.35.44,1.41-.38,1.76-1.19,2.17-3.19,1.63-6.37,3.29-9.69,5.01.57-2.22,2.6-3.11,4.21-4.48-8.39-.78-14.45-5.62-19.99-11.05-3.66-3.59-4.85-8.19-2.98-13.21-.69-1.23-1.35-2.4-2.17-3.87-.47.98-.82,1.73-1.19,2.48-.52,1.08-.96,2.21-1.6,3.22-2.41,3.8-6.58,4.68-10.39,2.24-2.05-1.31-3.68-3.06-5.04-5.08-.3-.44-.67-.84-1.29-1.62-.18,1.59-.33,2.76-.43,3.93-.22,2.42-.77,4.73-2.19,6.77-1.81,2.6-4.18,3.81-7.43,3.14-2.53-.52-4.7-1.57-6.32-3.59-1.34-1.66-2.61-3.37-4.04-5.22Zm62.09-3.76c4.23,1.01,8.6,2.06,13.16,3.15.11-2.37.51-4.7.29-6.97-1.14-11.6-4.61-22.48-10.4-32.62-1.7-2.99-3.92-5.51-6.91-7.16-5.25-2.89-10.06-2.31-12.74,3.2-1.18,2.43-2.23,4.97-2.9,7.58-1.59,6.17-1.28,12.53-1.45,18.82-.04,1.5.28,3.01.5,4.5.29,1.97.6,3.94,1.01,5.89.21.98.67,1.9,1.01,2.83,3.48-1.14,3.48-1.12,6.99-.82,2.99.26,5.99.46,9,.68,1.19-3.86.36-8.09,2.3-12.19.4.72.74,1.05.73,1.36-.16,3.8-.37,7.6-.59,11.72Zm-44.5-30.72c-.66-1.35-1.27-2.64-1.93-3.9-1.4-2.7-3.63-4.42-6.53-5.26-2.4-.7-4.39-.05-5.98,1.91-1.9,2.34-3.03,5.04-3.81,7.92-1.2,4.46-.99,9.03-1.03,13.57-.05,5.16.92,10.17,2.46,15.07,1.13,3.57,3.17,6.63,5.79,9.26,3.97,3.99,8.73,2.76,10.29-2.6.18-.61.28-1.25.37-1.88.19-1.5.18-3.06.55-4.51.8-3.1.5-6.05-.14-9.16-1.41-6.79-1.2-13.65-.06-20.42Zm21.09,12.74c.04-5.22.82-10.41-.1-15.68-.54-3.11-1.62-5.73-3.79-7.77-5.13-4.8-10.53-2.53-12.47,2.3-.42,1.03-.87,2.07-1.15,3.14-2.15,8.3-2.66,16.69-1.16,25.15.66,3.74,1.89,7.3,4.28,10.29,1.17,1.47,2.63,2.8,4.18,3.86,1.93,1.31,4.27,1.13,5.47-.42,2.37-3.05,3.79-6.6,4.73-10.34.04-.15,0-.32,0-.48,0-3.35,0-6.7,0-10.05Zm-56.66,5.14c-.19,6.5,1.26,12.57,4.75,18.05,1,1.57,2.41,3.03,3.96,4.05,2.34,1.54,4.51.67,5.63-1.92.34-.8.56-1.67.7-2.53.57-3.37.93-6.67.06-10.14-.85-3.38-1.22-6.92-1.42-10.42-.16-2.88-1.31-5.36-2.49-7.83-.48-1-1.55-1.85-2.54-2.45-3.63-2.2-6.05-1.26-7.32,2.77-.34,1.06-.6,2.16-.72,3.27-.26,2.38-.4,4.77-.6,7.16Zm76.6,14.72c-2.11-.32-4.22-.64-6.33-.95-.39-.06-.79-.1-1.19-.12-1.29-.06-2.19.7-2.62,1.72-.55,1.29-1.08,2.72-.28,4.13.18.31.58.58.93.71,2.32.79,4.7,1.04,7.01.1,2.02-.82,1.97-2.91,2.41-4.65.06-.22.04-.46.07-.93Z"/><path class="cls-1" d="m75.61,94.5c-2.66.94-4.21,3.1-5.52,5.35-2.36,4.06-4.58,8.21-6.67,12.41-1.49,3-2.08,6.3-2.45,9.64-.62-2.17-.54-4.35-.01-6.47,1.82-7.34,5.45-13.75,10.29-19.49.65-.77,1.56-1.35,2.43-1.89.61-.38,1.36-.54,1.94.45Z"/></svg>