<?xml version="1.0" encoding="UTF-8"?><svg id="Mikrofonhånd_Image" xmlns="http://www.w3.org/2000/svg" viewBox="0 0 156 364"><defs><style>.cls-1{fill:#ffc4e7;}</style></defs><path class="cls-1" d="m21.11,206.48c-.57-.65-1.1-1.36-1.73-1.95-3.86-3.64-7.32-7.6-10.01-12.2-1.26-2.15-2.18-4.44-2.82-6.85-.4-1.49-.53-3-.26-4.51.11-.62.29-1.26.56-1.82.6-1.24,1.57-1.74,2.95-1.56.55.07,1.07.32,1.61.43.45.09.91.08,1.62.14-.49-.82-.84-1.43-1.21-2.02-1.82-2.88-2.98-5.99-3.44-9.38-.24-1.79-.04-3.53.5-5.21.81-2.54,2.68-4.12,5.14-5,3.43-1.22,6.9-1.15,10.37-.11.68.2,1.35.46,2,.68.43-.43.14-.82.03-1.16-.68-2.11-.62-4.26-.42-6.42.49-5.13,5.15-8.31,9.63-8.21.87.02,1.75.18,2.61.35.85.17,1.68.43,2.7.7.16-.33.38-.72.56-1.13.7-1.65,1.7-3.08,3.01-4.29,1.45-1.35,3.03-1.83,5.05-1.15,1.88.63,3.89.85,5.99,1.29.07-.53.19-.97.19-1.42.01-3.68.06-7.35-.01-11.03-.05-2.47-.32-4.94-.42-7.41-.19-4.55-.43-9.11-.48-13.67-.08-7.36-.22-14.73.03-22.08.21-6.16.17-12.31.25-18.46.02-1.29.23-2.55.86-3.7,1.11-2.04,3.26-2.49,5.01-.94,1.01.89,1.86,1.98,2.8,2.96.42.43.71,1.08,1.54,1.01.09-.2.25-.41.26-.62.09-3.5.16-7.01.24-10.67-.57-.07-1.02-.13-1.47-.18-2.22-.21-4.17-1.09-5.87-2.5-2.72-2.25-3.55-5.24-3.05-8.62.36-2.43,1.54-4.54,3.14-6.37,1-1.14,2.07-2.22,3.13-3.31,4.35-4.49,6.72-9.85,7.05-16.1.06-1.12.16-2.23.29-3.34.03-.29.22-.58.39-.84.2-.29.91-.17,1.01.16.09.3.18.61.19.92.04,1.36.08,2.72.08,4.08.01,5.73.85,11.29,3.03,16.64,1.09,2.66,1.95,5.42,2.34,8.29.09.63.17,1.27.19,1.91.13,3.84-1.73,6.56-5.41,7.84-.9.31-1.83.54-2.86.84-.42,4.12-.29,8.21-.44,12.57,1.07-.49,1.59-1.18,2.12-1.85.54-.69,1-1.46,1.58-2.12,1.69-1.93,4.59-1.41,5.36,1.02.56,1.75.83,3.57.82,5.43-.04,6.32-.09,12.64.02,18.96.06,3.59.41,7.18.62,10.77.07,1.2.08,2.4.15,3.59.27,4.39.54,8.77.83,13.16.26,3.91.64,7.81.8,11.72.22,5.51.31,11.03.42,16.55.03,1.44-.09,2.88-.13,4.31-.02.79,0,1.59,0,2.45.35.23.66.47,1.01.65,3.23,1.75,6.47,3.49,9.71,5.23,3.26,1.75,6.21,3.83,8.68,6.67,4.31,4.94,8.83,9.69,12.87,14.87,5.73,7.34,9.9,15.46,12.51,24.39.63,2.17.94,4.37.94,6.62-.01,2.8-.18,5.59-.52,8.37-.58,4.68-.91,9.39-1.98,14-.98,4.2-1.99,8.4-3.05,12.58-.2.8-.26,1.52-.1,2.34,1.33,6.91,2.52,13.83,3.37,20.82.38,3.08,1.22,6.11,1.94,9.14,2.42,10.19,5.35,20.24,8.34,30.28,4.02,13.49,7.35,27.15,10.61,40.84,1.32,5.52,2.88,10.97,4.33,16.46.08.29.11.59.24,1.31-.64-.54-1.06-.76-1.27-1.11-.66-1.09-1.38-2.18-1.8-3.37-1.05-2.93-2.1-5.87-2.88-8.88-2.24-8.67-4.22-17.4-6.52-26.05-2.72-10.19-5.76-20.3-8.52-30.48-1.88-6.94-3.58-13.93-5.26-20.92-.47-1.93-.56-3.95-.89-5.92-.64-3.78-1.33-7.55-2.01-11.33-.23-1.26-.47-2.52-.74-3.77-.63-2.96-1.28-5.93-1.94-8.89-.12-.55-.32-1.07-.44-1.62-.42-1.83-.01-2.22,2.08-1.88.16-.59.35-1.18.47-1.78,1.25-6.59,2.75-13.14,3.24-19.87.25-3.42.81-6.82.75-10.27-.03-1.94-.28-3.82-.82-5.68-2.46-8.56-6.43-16.34-11.85-23.4-4.05-5.28-8.55-10.16-13.05-15.03-1.32-1.42-2.92-2.48-4.59-3.44-.76-.44-1.53-.89-2.2-1.44-2.48-2.05-5.24-3.63-8.11-5.07-2.14-1.07-4.21-2.29-6.3-3.47-2.09-1.18-4.25-2.19-6.51-3.04-3.74-1.4-7.44-2.91-11.17-4.36-3.06-1.19-6.24-1.99-9.46-2.62-1.7-.33-2.92.14-3.95,1.51-2.62,3.51-3.31,7.22-1.26,11.22,2.25,4.38,5.83,7.36,10.26,9.36,2.91,1.31,5.89,2.49,8.82,3.76,5.06,2.19,10.11,4.4,15.16,6.63,1.26.56,2.09,1.96,1.48,3.06-.42.76-.57,1.42-.59,2.2-.18,6.03.59,11.97,1.7,17.87,1.25,6.61,3.23,13.03,5.24,19.43.4,1.28,1.01,2.49,1.51,3.71-.4.37-.62.06-.82-.16-1.33-1.43-2.16-3.15-2.89-4.94-.44-1.07-.65-2.27-1.61-3.51-.12.85-.19,1.36-.27,1.87-.14.87-.23,1.75-.43,2.6-.51,2.13-1.84,3.3-4.01,3.51-.95.09-1.92.06-2.88.06-2-.01-4-.02-6-.08-.71-.02-1.42-.18-2.13-.25-2.05-.21-3.07-1.55-3.62-3.35-.28-.91-.47-1.85-.73-2.89-2.86-1.29-5.79-2.56-8.67-3.93-5.49-2.6-10.97-5.23-16.41-7.93-1.43-.7-2.77-1.61-4.06-2.54-3.51-2.51-6.98-5.08-10.47-7.63-2.92-2.14-5.53-4.61-7.89-7.34-.26-.3-.46-.65-.55-.78-1.52,0-2.71.02-3.9,0-1.09-.02-1.46.21-1.76,1.2-.33,1.1-.33,2.2-.08,3.32.59,2.68,1.65,5.18,3.07,7.51,2.81,4.62,6.32,8.67,10.44,12.14,6,5.06,12.43,9.55,19.1,13.67,1.56.96,3.25,1.71,4.9,2.53.39.2.85.27,1.56.49-1.1-2.56-.59-4.77.38-6.92.74-1.64,1.17-3.5,2.96-4.59,1.01.49,2.06.89,2.98,1.48,1.98,1.26,3.45,2.92,3.26,5.46-.18,2.42-1.37,4.22-3.65,5.2-.57.25-1.18.43-1.92.69,1.92,1.05,3.85,1.52,5.85,1.68,1.94.15,3.2-.81,3.66-2.73.2-.83.26-1.75.15-2.6-.2-1.5-.56-2.98-.9-4.46-.2-.87-.37-1.71.06-2.69.36.06.75.07,1.09.2.2.08.38.31.48.52,1.45,3,2.41,6.12,1.73,9.49-.22,1.07-.82,2.06-1.34,3.29.26.5.66,1.18.97,1.9,1.04,2.41.47,4.79-1.57,6.47-1.38,1.14-2.98,1.83-4.71,2.29-8.97,2.4-17.73,1.94-26.26-1.84-.85-.37-1.66-.89-2.91-1.07.51.76.83,1.29,1.2,1.78,4.25,5.63,9.01,10.81,14.09,15.7,4.73,4.54,9.49,9.05,14.58,13.21.84.69,1.76,1.34,2.42,2.5-1.96.48-3.16-1.16-4.72-1.32,0,1.35-.03,2.62,0,3.89.06,2.08.2,4.15.24,6.23.14,6.08.26,12.15.37,18.23.11,6.08.13,12.16.29,18.23.17,6.63.47,13.27.7,19.9.08,2.16.13,4.32.21,6.47.12,3.28.2,6.55.38,9.83.13,2.39.36,4.78.62,7.17.1.95.32,1.9.64,2.79.29.79.8,1.49,1.28,2.35-.32-.04-.57,0-.74-.1-1.3-.79-2.1-1.99-2.49-3.41-.49-1.77-.93-3.56-1.19-5.37-.29-2.05-.41-4.13-.52-6.21-.32-6.31-.66-12.62-.87-18.93-.26-8.15-.46-16.31-.57-24.47-.12-9.92-.1-19.84-.17-29.76-.02-2.4-.18-4.79-.2-7.19,0-.98-.4-1.61-1.12-2.24-3.35-2.97-6.7-5.95-9.96-9.02-6.37-5.99-12.08-12.57-17.04-19.78-.32-.46-.66-.9-.96-1.37-.62-.97-1.44-1.66-2.49-2.17-1.58-.78-3.11-1.64-4.63-2.53-2.64-1.55-4.97-3.49-7-5.79-1.23-1.39-2.28-2.9-2.95-4.63-1.26-3.27-.03-6.51,3.1-8.12.77-.4,1.62-.74,2.47-.9,2.75-.54,5.53-.77,8.34-.58-.24,1.1-1.23,1.18-2.03,1.38-1.63.4-3.3.61-4.92,1.02-1.07.28-2.16.65-3.09,1.22-1.92,1.17-2.54,3.18-1.56,5.18.66,1.34,1.52,2.63,2.49,3.78,2.03,2.4,4.55,4.23,7.27,5.79,4.1,2.35,8.43,4.2,12.75,6.08,7.94,3.46,16.08,3.81,24.36,1.44,1.2-.34,2.34-1,3.41-1.67,1.05-.65,1.38-1.75,1.12-2.94-.14-.68-.47-1.32-.74-2.04-1.32.07-2.5.13-3.57.18-.3,1-.39,2.01-.86,2.77-1.24,2.01-4.9,3.41-7.2,2.9-1.28-.28-2.19-1.01-2.47-2.31-.35-1.6-.14-3.18.51-4.68.1-.23.49-.46.74-.46.45,0,.68.38.67.83-.01.96-.09,1.92-.05,2.87.05,1.28.79,1.87,2.06,1.66,1.28-.21,2.47-.67,3.44-1.56.25-.23.36-.61.64-1.12-1.31-.25-2.4-.45-3.49-.66-.86-.17-1.7-.39-1.99-1.36.16-.16.25-.29.38-.37.19-.13.4-.22.78-.43-.63-.27-1.1-.51-1.59-.67-3.53-1.13-6.84-2.72-9.88-4.8-5.2-3.56-10.31-7.28-15.46-10.92-.57-.41-1-1.06-1.82-1.05Zm56.57-60.86c.08-1.23.18-2.1.18-2.97,0-4.95.02-9.91-.03-14.86-.02-2.39-.11-4.79-.28-7.18-.37-5.18-.86-10.35-1.2-15.53-.27-4.06-.38-8.14-.58-12.21-.13-2.55-.4-5.1-.42-7.65-.08-6.55-.03-13.1-.09-19.66-.01-1.35-.26-2.69-.45-4.03-.05-.38-.27-.74-.46-1.09-.18-.32-.78-.4-1.06-.13-.28.27-.54.58-.78.9-.58.76-1.15,1.53-1.73,2.3-1.33,1.74-3.13,2.09-5.15,1.69-1.21-.24-2.21-.91-3.03-1.83-.85-.95-1.67-1.94-2.56-2.86-.36-.37-.86-.59-1.31-.89-1.37,1.16-1.38,2.63-1.4,4.05-.09,5.83-.18,11.66-.2,17.5-.03,8.71-.05,17.42.01,26.13.02,3.35.31,6.7.41,10.05.09,3.19.17,6.39.12,9.58-.05,3.03-.28,6.06-.41,9.1-.02.53.1,1.07.15,1.57,6.76,2.54,13.5,4.76,20.28,8.03Zm-16.22,60.61c1.95,1.08,3.86,1.32,5.77,1.37,1.92.05,3.07-1.05,3.44-2.99.46-2.43-.17-4.63-1.66-6.53-1.18-1.5-2.52-2.88-3.82-4.29-.26-.29-.64-.47-.97-.69-3.18-2.14-6.44-4.18-9.52-6.46-3.4-2.52-6.67-5.2-9.8-8.09-4.47-4.13-8.58-8.6-12.76-13.01-1.09-1.16-2.17-2.39-2.96-3.75-.83-1.42-1.97-2.22-3.45-2.7-.38-.12-.75-.27-1.14-.38-3.06-.91-6.13-1.08-9.22-.15-2.94.89-4.51,2.9-4.64,5.98-.04.87.02,1.76.15,2.62.43,2.81,1.54,5.36,3.08,7.74,2.29,3.52,5.09,6.6,8.41,9.14,4.25,3.25,8.61,6.37,12.95,9.51.9.66,1.85,1.27,2.85,1.76,4.94,2.44,9.9,4.85,14.87,7.25.48.23,1.02.34,1.55.51.65-4.91,1.83-7.19,4.31-8.55,1.04.5,2.02.96,3,1.44.5.25,1.02.48,1.48.79,3.23,2.18,3.16,6.51-.13,8.59-.47.29-.99.5-1.78.89Zm-1.63-19.41c.1.23.12.42.22.48,2.01,1.3,3.98,2.68,6.08,3.82,1.01.55,2.27.77,3.44.88,1.56.15,2.59-.59,3.15-2.05.32-.82.51-1.68.74-2.53.7-2.67.56-5.4.56-8.11,0-2.87-.87-5.5-2.22-8-.48-.88-1.14-1.45-2.08-1.86-5.07-2.17-10.09-4.45-15.16-6.62-4.99-2.14-9.11-5.26-11.95-9.96-1.36-2.25-2.15-4.63-2-7.28.02-.39,0-.78,0-1.13-2.13-.78-4.98-1.07-6.67-.62-2.75.73-4.76,2.33-5.39,5.2-.43,1.96-.42,3.95.14,5.93.91,3.23,2.59,6,4.86,8.44,1.31,1.41,2.65,2.78,3.96,4.18,4.97,5.33,10.14,10.43,15.94,14.87.32.25.72.4,1.37.76-.59-2.31.3-3.93,1.47-5.4,1.05-1.31,2.22-2.51,3.39-3.71.44-.45.98-.84,1.55-1.11.65-.32,1.34-.55,1.84.37.14.26.66.39,1.02.44,1.4.22,2.55.91,3.61,1.79,2.39,1.98,3.22,5.26,2.02,8.02-1.11,2.57-3.1,4.18-6.78,3.62-1.01-.15-2.03-.29-3.11-.44Zm4.66,23.13c.19,2.78.8,3.52,3.07,3.88.47.08.95.14,1.43.14,2.4.01,4.79,0,7.19,0,.32,0,.64,0,.96-.05,1.62-.23,2.27-.75,2.59-2.36.26-1.33.4-2.68.52-4.03.11-1.21.25-2.39,1.22-3.25-2.91-10.25-4.68-20.59-3.85-31.14-.7-.52-1.29-.87-2.18-.86.1.44.13.74.23,1.02,1.28,3.54,1.28,7.22,1,10.89-.17,2.23-.6,4.43-1.34,6.56-.64,1.87-1.87,3.12-3.79,3.68-.51.15-1.01.36-1.64.59.55.71,1.01,1.25,1.41,1.84,1.81,2.61,2.61,5.47,1.84,8.62-.73,3.01-3,4.76-6.1,4.71-.79-.01-1.58-.15-2.57-.25Zm-4.07-163.05c.08-.34.18-.56.18-.79,0-1.87.8-3.39,2.06-4.7.66-.69,1.35-1.36,2.02-2.05,1.2-1.24,2.03-2.66,2.11-4.44.02-.39.06-.82.23-1.16.12-.24.46-.45.73-.5.46-.09.73.25.83.67.08.31.1.63.1.95,0,1.31.4,2.52.91,3.69.35.8.77,1.58,1.18,2.35.38.7.83,1.37,1.18,2.08.36.76.64,1.55,1.05,2.57.38-.54.67-.82.81-1.16.36-.9.42-1.84.36-2.82-.19-3.4-1.25-6.58-2.38-9.73-1.03-2.87-1.8-5.79-2.18-8.81-.03-.27.02-.67-.43-.61-.14.13-.31.21-.36.35-1.57,3.83-3.92,7.11-6.89,9.98-.52.5-1.03,1.02-1.45,1.59-.71.96-1.4,1.94-1.99,2.98-1,1.73-1.2,3.63-.85,5.57.31,1.71,1.11,3.1,2.77,3.99Zm1.3,128.25c-1.68,1.61-3.26,3.28-4.35,5.35-.68,1.29-.46,2.06.76,2.82,2.03,1.25,4.28,1.69,6.64,1.62.94-.03,1.66-.47,2.24-1.19,1.45-1.81,1.31-4.29-.44-6.07-1.31-1.33-2.88-2.22-4.85-2.52Zm5.82-135.97c-.44.5-.89,1.03-1.36,1.53-.55.58-1.14,1.12-1.69,1.7-.44.46-.88.93-1.26,1.44-.7.94-.97,2.02-.77,3.17.08.44.31,1.05.64,1.2.7.3,1.51.42,2.29.49.67.06.83-.62,1.16-1.06.11-.16.36-.22.54-.32.37.39.69.72.98,1.03.23-.04.4-.05.54-.11,2.24-.89,2.82-2.17,1.81-4.3-.71-1.51-1.57-2.96-2.37-4.43-.07-.12-.25-.17-.5-.33Zm-8.71,157.59c-1.08,1.32-1.57,2.55-1.84,3.89-.29,1.47.13,2.32,1.46,2.84.51.2,1.07.33,1.62.4,1.72.23,3.04-.57,3.57-2.11.44-1.27-.07-2.53-1.51-3.4-1.01-.61-2.12-1.05-3.3-1.62Zm-7.58,14.49c-1.07,1.83-1.63,3.71-2.04,5.63-.18.84.17,1.48.82,1.79,1.21.58,2.92.19,3.92-.88,1.01-1.08,1.32-2.8.62-3.94-.76-1.23-1.82-2.14-3.31-2.61Z"/><path class="cls-1" d="m56.86,156.2c-2.37-.05-4.25-.39-6.04-1.12-3.18-1.29-4.57-3.59-4.1-6.98.25-1.81.74-3.58,1.15-5.37.16-.7.31-1.49,1.04-1.8,1.01-.43,1.92-1.21,3.13-1.01.71.12,1.44.21,2.1.46,3.17,1.21,6.01,2.97,8.31,5.47,1.83,1.99,2.15,4.37.97,6.63-1.02,1.95-2.71,3.09-4.85,3.55-.7.15-1.42.14-1.7.17Zm-.23-2.49c.29-.02.86.01,1.39-.12,1.62-.41,2.92-1.24,3.46-2.94.51-1.62-.34-2.74-1.39-3.79-.06-.06-.11-.12-.17-.17-2.13-1.83-4.45-3.34-7.13-4.24-.37-.13-.76-.24-1.15-.3-.89-.13-1.44.15-1.62.99-.39,1.78-.81,3.57-1.01,5.38-.23,2.1.54,3.29,2.47,4.14,1.54.68,3.18.99,5.14,1.05Z"/></svg>