<?xml version="1.0" encoding="UTF-8"?><svg id="Mikrofonhånd_Image" xmlns="http://www.w3.org/2000/svg" viewBox="0 0 257.67 320.07"><defs><style>.cls-1{fill:#ffc4e7;}</style></defs><path class="cls-1" d="m96.56,189.72c-.52.56-.98.99-1.37,1.49-1.88,2.4-4.02,4.55-6.26,6.61-3.83,3.51-8.22,6.07-13.06,7.89-1.51.57-3.07.82-4.7.81-3.14-.02-6.21-.41-9.19-1.46-1.16-.41-1.32-.29-1.16.86.45,3.27-.11,6.37-1.47,9.34-.94,2.06-2.28,3.68-4.29,4.98-4.73,3.05-9.8,5.4-14.81,7.88-5.29,2.62-9.93,6.11-14.27,10.05-3.05,2.76-4.43,6.4-5.31,10.28-.53,2.33-1.1,4.67-1.37,7.04-.4,3.5-.36,6.95,1.2,10.32,1.83,3.96,4,7.61,7.08,10.75,1.61,1.64,3.05,3.53,4.23,5.5,2.09,3.48,4.83,6.36,7.7,9.15.4.39.83.76,1.18,1.19.51.63.54,1.3.17,1.76-.37.46-1.05.49-1.74.06-.14-.08-.26-.18-.38-.29-3.08-2.7-6-5.55-8.17-9.04-1.7-2.73-3.55-5.32-5.81-7.61-3.69-3.75-5.84-8.37-7.54-13.23-1-2.88-.64-5.88-.21-8.79.47-3.15,1.27-6.26,2-9.36.98-4.18,3.14-7.63,6.4-10.45,4.56-3.95,9.38-7.46,14.85-10.05,2.82-1.34,5.6-2.74,8.34-4.23,1.96-1.07,3.82-2.32,5.72-3.5,3-1.87,4.07-4.88,4.39-8.14.16-1.63-.26-3.33-.49-4.99-.11-.76-1.77-1.73-2.43-1.48-.15.06-.29.36-.29.56-.02.72.03,1.44.05,2.16.07,3.8-1.23,7.05-3.96,9.7-2.6,2.53-5.54,4.59-8.83,6.13-3.04,1.42-6.14,2.73-9.16,4.19-6.96,3.36-12.44,8.37-16.29,15.09-3.29,5.72-4.14,11.86-2.86,18.31,1.33,6.68,3.97,12.83,7.9,18.37,2.13,3,4.45,5.86,6.79,8.69,1.98,2.4,4.14,4.66,6.2,7,.46.52,1,1.02.84,1.79-3.66-1.26-6.14-3.95-8.59-6.68-3.9-4.36-7.61-8.87-10.38-14.06-2.85-5.33-4.95-10.93-5.67-16.96-.59-4.85-.07-9.59,1.76-14.14,1.51-3.74,3.59-7.13,6.33-10.11,4.18-4.53,8.94-8.2,14.66-10.61,2.5-1.05,4.97-2.21,7.43-3.36,2.77-1.3,5.24-3.06,7.54-5.08,3.82-3.36,4.31-7.62,3.45-12.29-.13-.71-.63-1.08-1.15-1.46-1.45-1.05-2.51-2.45-3.5-3.92-1.01-1.5-1.56-3.15-1.51-4.97.06-2.16.1-4.32.25-6.47.19-2.73,1.41-5.06,3.07-7.17,3.46-4.4,6.94-8.78,10.42-13.17.15-.19.3-.38.46-.55.48-.53.64-1.08.18-1.72-.23-.32-.41-.69-.6-1.04-3.61-6.45-6.27-13.3-8.38-20.36-1.04-3.47-1.63-7.03-1.19-10.66.16-1.33.47-2.7,1.04-3.9,1.24-2.6,3.72-3.55,6.44-2.62,1.77.61,3.28,1.64,4.48,3.1.39.48.79.96,1.55,1.87-.21-1.07-.27-1.61-.43-2.11-1.13-3.75-2.25-7.5-2.87-11.38-.56-3.49-.86-6.98-.19-10.5.35-1.85.99-3.54,2.32-4.91,1.34-1.39,2.92-1.96,4.78-1.25.89.34,1.78.72,2.59,1.22,1.91,1.19,3.6,2.65,5.08,4.36.41.48.82.95,1.52,1.78-.12-.87-.13-1.32-.25-1.74-1.56-5.55-1.73-11.17-1.21-16.89.61-6.75,7.29-9.69,12.18-8.05,2.62.88,5.02,2.06,6.93,4.12.25.27.56.48,1.11.94.13-1.91.27-3.48.35-5.06.27-5.12,4.55-8.8,8.37-9.66,1.95-.44,3.86-.25,5.68.37,3.26,1.1,6.02,2.95,7.9,5.93.13.2.27.4.37.61.51,1.09,1.24,1.63,2.47,1.09.14-.06.32-.09.47-.06,2.4.38,3.77-1.07,5.12-2.74,4.23-5.22,8.53-10.38,12.81-15.56.95-1.15,1.32-2.31,1.2-3.92-.29-3.74-.33-7.51-.22-11.27.1-3.5,1.49-6.69,3.05-9.77,2.95-5.85,6.93-10.98,11.59-15.5,3.88-3.76,8.48-6.53,13.94-7.56.63-.12,1.25-.26,1.86-.45,3.47-1.09,7.04-1.31,10.65-1.43,6.24-.21,11.78,1.75,16.89,5.17,2.86,1.91,5.73,3.84,8.05,6.42,1.22,1.36,2.43,2.79,3.34,4.36,1.31,2.28,2.42,4.69,3.47,7.1.47,1.08.78,2.29.89,3.46.32,3.34.58,6.69.71,10.04.13,3.34-.73,6.5-2.2,9.48-3.3,6.73-7.54,12.82-12.62,18.31-1.51,1.63-3.23,3.12-5.05,4.4-3.07,2.16-6.32,4.07-9.82,5.49-.89.36-1.79.71-2.64,1.15-1.45.76-2.96,1.2-4.6,1.12-.93-.05-1.69.19-2.32.96-2.85,3.47-6.06,6.6-9.34,9.65-.72.67-.69.83.11,1.48.49.41.98.82,1.51,1.19,5.84,4.1,10.27,9.59,14.61,15.13,4.42,5.63,5.95,9.37,7.42,16.93.65,3.37,1.28,6.75,2.01,10.11.96,4.47,1.22,9.03,1.85,13.54.74,5.24,1.15,10.49,1.03,15.78-.02.96.43,1.67.85,2.44,3.9,7.25,7.96,14.43,11.66,21.78,6.25,12.43,12.3,24.96,17.82,37.74,3.43,7.93,6.4,16.04,9.18,24.21.73,2.16,1.12,4.32.68,6.97-.31-.7-.51-1.06-.64-1.45-.38-1.05-.67-2.13-1.1-3.16-1.66-3.98-3.48-7.9-5.03-11.93-4.98-12.92-10.86-25.44-16.87-37.9-3.79-7.85-7.75-15.61-11.65-23.41-1.32-2.65-2.69-5.27-4.05-7.9-.28-.54-.64-1.04-1.08-1.75-.28.86-.44,1.46-.68,2.04-.15.36-.36.73-.65.97-.19.16-.58.17-.86.11-.16-.03-.38-.33-.38-.51-.01-1.12,0-2.24.06-3.35.1-1.75.38-3.51-.19-5.24-.07-.22-.1-.48-.05-.71.71-3.84.05-7.63-.32-11.44-.36-3.66-.68-7.33-1.25-10.96-.65-4.18-1.55-8.33-2.35-12.49-.36-1.88-.77-3.76-1.09-5.65-.8-4.77-2.93-8.94-5.83-12.74-1.6-2.1-3.33-4.09-5.01-6.13-.2-.25-.44-.46-.64-.71-4.83-6.19-11.21-10.43-17.94-14.19-4.4-2.46-8.7-5.05-12.97-7.74-4.8-3.02-9.86-5.63-15.3-7.38-4.3-1.38-8.37-.74-12.23,1.5-1.27.74-2.31,1.74-3.05,3-.53.89-1.05,1.82-1.35,2.8-1.39,4.55-1.46,8.1,3.79,11.63,1.59,1.07,3.26,2.03,4.91,3.01.47.28,1.01.44,1.52.66.94.4,2.01.64,2.79,1.25,1.1.85,2.32,1.39,3.55,1.96,4.36,2,8.74,3.96,13.08,6,1.88.88,3.69,1.91,5.49,2.94.65.37,1.42.71,1.61,1.57-.15.1-.22.2-.27.19-2.34-.6-2.28-.51-2.24,1.75.03,1.51-.1,3.01.29,4.53.25.95-.14,2.05-.09,3.08.14,3.03.35,6.07.56,9.1.13,1.9.31,3.8.49,6-.34-.39-.67-.6-.74-.87-.51-1.93-1.08-3.85-1.4-5.81-.35-2.21-.45-4.45-.68-6.68-.03-.29-.18-.56-.27-.84-.24.16-.54.27-.7.49-.68.99-1.31,2.01-1.97,3.01-4.63,7-9.25,14.02-13.92,21-1.06,1.59-2.28,3.09-3.46,4.6-2.43,3.08-5,6.04-7.3,9.21-4.71,6.5-10.11,12.38-15.55,18.25-1.03,1.11-2.04,2.25-3.03,3.4-.83.97-.82,1,.06,1.97,6.91,7.6,15.22,12.89,25.25,15.31,2.95.71,5.94,1.25,8.91,1.9,1.71.37,3.42.8,5.12,1.22.12.03.31.26.29.33-.06.17-.21.4-.36.43-1,.23-2.01.42-3.21.66.33.86.62,1.59.9,2.32,6.72,17.72,13.27,35.5,18.73,53.65,2.63,8.72,4.88,17.56,7.43,26.31,1.63,5.6,3.51,11.13,5.26,16.69.15.48.22.99.17,1.56-1.33-1.21-2.37-2.62-3.05-4.23-1.18-2.79-2.44-5.58-3.33-8.47-2.55-8.33-4.98-16.7-7.34-25.08-3.39-12.01-7.46-23.8-11.56-35.57-2.84-8.15-5.7-16.3-8.55-24.45-.21-.6-.5-1.19-.65-1.8-.22-.92-.79-1.27-1.68-1.41-2.21-.34-4.42-.7-6.61-1.18-9.82-2.12-18.19-6.85-25.17-14.07-.99-1.03-1.93-2.11-2.96-3.25Zm15.51-62.16l-.08-.08c.16.44.23.96.5,1.31,1.2,1.57,2.78,2.55,4.7,3.12,3.51,1.05,6.27-1.43,6.94-3.89.21-.77.38-1.57.4-2.36.12-5.43.49-10.86-.36-16.28-.48-3.05-.48-2.97-3.12-4.5-2.62-1.52-5.24-3.09-7.66-4.9-3-2.25-4.46-5.38-4.09-9.21.49-5.07,2.49-9.22,7.22-11.68.21-.11.5-.17.61-.35.14-.22.28-.64.17-.78-2.32-2.99-5.16-5.17-8.97-5.98-4.72-1.01-9.4,2.96-9.66,7.37-.26,4.32-.13,8.61.79,12.88,2.06,9.55,5.07,18.82,8.41,27.98.68,1.87,1.61,3.65,2.49,5.45.38.77.78,1.58,1.7,1.91Zm-17.2,15.18c1.07,2.38,2.88,4.13,4.91,5.68.19.14.42.22.64.32,1.2.55,2.31.41,3.37-.37,1.2-.89,1.91-2.12,2.49-3.44.08-.19.07-.48-.03-.66-.05-.08-.43-.08-.59,0-.99.55-2.03.87-3.17.94-2.88.18-5.53-.33-7.68-2.43-.14-.44-.22-.92-.44-1.31-1.46-2.6-1.4-5.38-.82-8.16.2-.97.76-1.95,1.38-2.75,1.71-2.17,4.99-2.33,7.01-.46.96.89,1.61,1.99,2.03,3.21.67,1.96,1.27,3.95,1.91,5.92.15.45.32.9.58,1.29.07.1.72,0,.73-.08.2-1.01.49-2.04.44-3.05-.2-4.14-.51-8.28-.8-12.42-.02-.31-.16-.61-.27-.91-1.13-3.07-2.29-6.13-3.4-9.21-2.85-7.9-5.04-15.98-6.61-24.23.15-2.6-1.45-4.25-3.2-5.81-.18-.16-.35-.33-.54-.48-2.11-1.67-4.46-2.82-7.15-3.11-3.9-.42-7.1,2.11-7.61,5.98-.72,5.45-.44,10.86,1.13,16.14,1.12,3.75,2.44,7.43,3.66,11.14,2.26,6.83,4.77,13.55,7.62,20.16.76,1.76,1.53,3.51,2.41,5.22.53,1.03.89,2.23,1.99,2.88Zm1.01,6.12c-.04,1.36-.05,2.37-.11,3.39-.13,2.41-.56,4.75-1.55,6.98-1.52,3.43-4.85,4.17-7.33,3.26-.67-.25-1.32-.55-1.99-.83-.79-.33-1.07-.18-.96.64.36,2.72.36,5.42-.11,8.12-.56,3.26-2.23,4.92-5.48,5.44-3.47.55-6.54-.41-9.1-2.71-1.59-1.43-2.94-3.15-4.34-4.78-.67-.79-1.21-1.69-1.84-2.51-.29-.37-.65-.42-.98,0-.1.13-.21.24-.31.37-3.37,4.57-6.75,9.12-10.41,13.48-1.46,1.74-2.26,3.85-2.24,6.19,0,1.76-.03,3.52-.08,5.28-.04,1.59.48,2.97,1.43,4.23,2.08,2.77,4.69,4.74,8.14,5.48.3.07.61.17.88.31,2.28,1.22,4.75,1.99,7.26,2.36,3.48.52,6.93.46,10.32-1.11,6.08-2.82,11.06-6.94,15.34-12.02,2.68-3.18,5.4-6.32,8.18-9.41,5.09-5.64,10.25-11.2,14.7-17.39,2.33-3.24,4.94-6.28,7.4-9.43,1.08-1.38,2.19-2.76,3.17-4.22,4.75-7.11,9.47-14.25,14.19-21.38,1.06-1.6,1.94-3.37,3.25-4.73,1.35-1.41,1.74-2.95,1.78-4.74.02-.8.07-1.6.15-2.39.08-.78-.28-1.11-.97-1.4-4.57-1.92-9.11-3.89-13.66-5.85-.88-.38-1.75-.8-2.63-1.16-1.09-.46-1.33-.3-1.16.79.78,4.77.67,9.56.42,14.36-.07,1.36-.13,2.72-.31,4.07-.5,3.83-3.93,7.88-9.15,7.2-2.56-.33-4.72-1.4-6.54-3.21-.39-.39-.67-1.06-1.55-.97.1,1.2.16,2.32.29,3.43.39,3.46.08,6.88-.84,10.21-.4,1.44-1.01,2.9-1.86,4.12-2.49,3.59-5.86,4.67-9.85,1.69-.42-.32-.85-.62-1.56-1.13ZM180.64,11.62c-.88.05-1.75.14-2.63.14-2.84.01-5.49.99-8.24,1.47-3.7.65-7,2.2-10.04,4.34-1.17.82-2.31,1.72-3.38,2.67-.83.73-.81.94-.18,1.81,2.55,3.49,5.26,6.84,8.51,9.73,2.51,2.23,4.88,4.61,7.33,6.91.99.93,1.97,1.88,3.03,2.73,6.94,5.53,13.92,11.02,20.87,16.54,2.52,2,5.31,3.55,8.16,5,.95.48,1.15.46,1.72-.52,1.75-3.05,3.57-6.07,5.11-9.22,1.08-2.23,1.64-4.69,1.51-7.21-.17-3.19-.4-6.38-.72-9.55-.12-1.17-.46-2.37-.92-3.45-.92-2.13-1.89-4.24-3.04-6.25-.82-1.44-1.87-2.79-2.99-4.02-3.06-3.34-6.87-5.71-10.68-8.07-.4-.25-.85-.45-1.3-.61-3.92-1.37-7.77-3.07-12.1-2.43Zm19.3,58.54c-.23-.22-.37-.43-.56-.53-2.37-1.21-4.42-2.87-6.44-4.57-4.28-3.61-8.7-7.05-13.32-10.21-2.57-1.76-5.18-3.48-7.69-5.32-4.54-3.31-8.5-7.28-12.48-11.21-2.74-2.7-5.39-5.47-7.41-8.78-.33-.55-.69-1.08-1.06-1.6-.48-.67-.74-.69-1.25-.02-2.25,2.93-4.13,6.09-5.67,9.44-1.03,2.26-1.86,4.63-1.97,7.13-.14,3.35-.08,6.72-.12,10.08-.03,2.65.49,5.05,2.79,6.75.57.42.98,1.05,1.45,1.59,3.21,3.7,6.77,7.05,10.83,9.8,6.01,4.07,11.89,8.41,19.14,10.18.08.02.14.07.21.11,1.4.74,2.8.51,4.17-.04,4.39-1.76,8.64-3.79,12.57-6.45,2.59-1.75,4.96-3.75,6.82-6.34Zm-114.46,88.57c.75.88,1.63,1.19,2.56,1.36,1.82.34,2.94-.15,3.71-1.84.52-1.15.88-2.4,1.13-3.65.28-1.41.34-2.86.55-4.28.18-1.25.84-2.59.56-3.71-.31-1.23-1.56-2.2-2.18-3.39-1.43-2.77-2.82-5.56-4.06-8.42-3.34-7.71-5.99-15.68-8.71-23.62-.36-1.06-.63-2.08-1.9-2.51-.53-.18-.91-.86-1.33-1.34-2.04-2.28-4.3-4.31-6.97-5.81-2.23-1.26-3.57-1.41-5.08,1.77-.2.43-.37.91-.42,1.37-.18,1.67-.46,3.34-.4,5.01.11,3.2.66,6.35,1.45,9.46,2.3,9.12,5.97,17.71,10.13,26.11.6,1.22,1.3,2.39,1.99,3.56.21.35.56.61.86.93.27-1.24.4-2.37.77-3.4,1.08-3,4.54-4.8,7.76-2.1,2.51,2.11,4.23,4.78,4.84,8.06.54,2.88-.73,4.96-3.54,5.93-.52.18-1.05.32-1.71.51Zm41.59-80.97c.59.18,1.09.39,1.61.49,6.29,1.25,11.94,4.1,17.26,7.47,5.33,3.38,10.96,6.24,16.32,9.56.67.41,1.15.33,1.68-.21,2.82-2.94,5.65-5.86,8.47-8.8.33-.34.67-.71.88-1.13.09-.18-.07-.71-.21-.75-2.8-.82-5.12-2.58-7.65-3.92-8.73-4.61-16.33-10.57-22.43-18.39-.38-.49-.85-.9-1.32-1.4-4.89,5.72-9.7,11.34-14.6,17.08Zm-45.5,87.55c-.15-1.63-.35-3.37-.47-5.12-.07-1.01-.47-1.78-1.16-2.53-3.25-3.56-5.99-7.5-8.04-11.86-1.94-4.11-3.72-8.3-5.55-12.47-.45-1.02-.66-2.15-2.15-2.2-.37-.01-.74-.56-1.06-.91-.6-.64-1.15-1.33-1.75-1.97-1-1.07-2.21-1.84-3.6-2.3-1.93-.64-3.33-.07-4.03,1.83-.41,1.1-.6,2.32-.68,3.5-.22,3.07.39,6.04,1.27,8.97,1.45,4.82,3.21,9.53,5.32,14.11,2.05,4.43,4.41,8.7,7.41,12.56,1.22,1.57,2.55,3.09,4.04,4.39,1.93,1.68,4.24,2.47,6.89,1.97,1.91-.35,3.01-1.42,3.23-3.32.17-1.5.21-3.02.32-4.67ZM154.47,22.7c-.19.09-.45.13-.6.29-.55.58-1.08,1.18-1.58,1.8-.85,1.05-.85,1.06-.05,2.24,2.27,3.3,4.75,6.41,7.63,9.22,4.58,4.47,9.08,9.04,14.27,12.81,7.51,5.45,15.05,10.85,22.17,16.81.85.71,1.8,1.34,2.77,1.89,2.01,1.15,2.13,1.1,3.48-.72.33-.45.66-.91.98-1.36.36-.52.16-.89-.33-1.17-.35-.2-.7-.39-1.05-.57-2.7-1.42-5.22-3.08-7.62-4.98-4.95-3.92-9.91-7.83-14.93-11.67-4.58-3.5-9.05-7.12-13-11.34-.49-.52-1.04-1-1.59-1.46-3.44-2.91-6.44-6.21-9-9.92-.36-.53-.74-1.04-1.13-1.55-.09-.12-.25-.18-.42-.3Zm-53.76,120.71c1.01-.17,2.03-.31,3.04-.51.67-.13.91-.62.72-1.26-.81-2.75-1.6-5.5-2.48-8.23-.21-.66-.67-1.28-1.14-1.79-1.22-1.32-3.25-1.26-4.38.17-.48.61-.82,1.37-1.05,2.12-.48,1.55-.53,3.14-.17,4.73.86,3.82,1.81,4.58,5.47,4.78Zm-21.6,8.52c.03.09.05.72.36,1.11,1.15,1.42,2.39,2.77,3.64,4.11.14.15.55.13.81.07.6-.14,1.18-.4,1.79-.51,1.15-.22,2.07-.8,2.85-1.64,1.09-1.18,1.14-1.48.38-2.91-.63-1.2-1.24-2.42-1.95-3.57-.5-.81-1.08-1.59-1.75-2.26-2.28-2.27-4.61-1.69-5.62,1.36-.1.3-.18.62-.21.93-.1.95-.18,1.9-.31,3.32Z"/><path class="cls-1" d="m124.84,80.36c.38.02.77.05,1.17.07,2.62.14,4.75,1.21,6.32,3.35.52.71,1.1,1.36,1.65,2.05.74.93,1.23,1.87.15,2.92-.2.2-.25.58-.33.89-.78,3.03-2.48,5.49-4.67,7.66-.11.11-.26.21-.34.34-1.14,1.97-2.85,2-4.79,1.48-2.75-.75-5.17-2.05-7.29-3.94-1.79-1.59-2.35-3.58-1.68-5.85,1-3.41,3.1-6.07,5.92-8.17,1.14-.85,2.45-1.13,3.88-.8Zm.03,1.48c-1.11-.18-1.98.25-2.74.84-2.26,1.73-3.98,3.9-4.98,6.6-.66,1.78-.27,3.26,1.25,4.46,2.16,1.71,4.57,2.91,7.17,3.76.64.21,1.06-.01,1.47-.47,1.95-2.13,3.8-4.3,4.86-7.05,1.26-3.27,1.4-2.21-.7-5.02-1.62-2.17-3.77-3.11-6.32-3.12Z"/><path class="cls-1" d="m140.07,175.34c-1.08-1.27-1.39-2.66-1.47-4.07-.1-1.91-.17-3.84,0-5.74.38-4.45.78-8.91,1.86-13.27.24-.99.7-1.93,1.14-2.86.09-.2.55-.33.81-.3.14.02.36.51.3.72-1.35,5.13-1.58,10.41-2.26,15.63-.19,1.42-.38,2.86-.43,4.29-.06,1.79.02,3.59.05,5.61Z"/><path class="cls-1" d="m112.07,127.56c-1.24-2.94-1.64-5.93-.98-9.11.71-3.4,3.72-4.08,6.03-2.92,2.5,1.25,4.3,3.32,5.52,5.79.68,1.37.63,2.96.29,4.46-.37,1.64-1.47,2.71-3.12,2.91-2.14.27-4.31.23-6.41-.36-.51-.14-.94-.56-1.41-.85l.08.08Zm4.61-.78v-.06c.88,0,1.76.07,2.63-.02.97-.09,1.72-.7,1.8-1.66.15-1.64.42-3.36-.95-4.73-.51-.51-.89-1.14-1.41-1.63-.58-.54-1.2-1.08-1.88-1.47-1.79-1.01-3.3-.39-3.93,1.54-.5,1.55-.65,3.17-.37,4.75.52,2.93.71,3.29,3.63,3.28.16,0,.32,0,.48,0Z"/><path class="cls-1" d="m180.89,33.77c-.18-.48-.44-.95-.53-1.44-.35-1.88-.62-3.78-.98-5.66-.23-1.21-.31-1.27-1.55-1.38-1.11-.09-2.23-.08-3.35-.15-.47-.03-.94-.14-1.39-.25-.12-.03-.29-.25-.27-.34.04-.2.15-.49.3-.55.36-.14.76-.21,1.15-.23,1.12-.06,2.23-.09,3.35-.13.42-.02.86-.14.77-.66-.06-.35-.27-.85-.54-.96-.49-.21-1.09-.17-1.64-.27-1.17-.21-2.34-.43-3.51-.67-.09-.02-.19-.25-.19-.39,0-.12.14-.3.24-.32.47-.09.94-.17,1.41-.18.8,0,1.6.04,2.39.09.75.05.98-.31.92-1.01-.02-.2.12-.42.18-.63.24.16.5.3.72.49.11.1.14.29.22.42.59.97,2.01,1.52,3.05,1.18.14-.04.25-.18.36-.29.74-.7.71-.68,1.17-.07.27.35.61.71,1.01.9.7.35,1.55.4,2.21,1.33-.51,0-.85.02-1.19,0-.96-.07-1.02.02-.74.78.29.82.76,1.35,1.65,1.54,1.09.23,2.18.51,3.24.84.57.18,1.29.29,1.38,1.32-1.37-.16-2.7-.32-4.03-.46-.66-.07-.88.18-.65.84.42,1.2.77,2.4.35,4-.38-.5-.66-.76-.8-1.08-.52-1.16-1.02-2.34-1.49-3.53-.2-.5-.53-.75-1.03-.88-2.59-.65-2.55-.35-2.2,1.86.31,1.95.57,3.9,0,5.94Zm.37-11.54c-.29,0-.45,0-.6,0-.39.02-.88.01-.79.56.05.33.31.76.6.89.48.23,1.06.29,1.6.38.63.1.86-.2.65-.82-.31-.92-.4-.98-1.45-1.02Z"/><path class="cls-1" d="m159.79,46.98c-.07,1.02-.15,2.04-.2,3.07-.02.51.16.91.72,1.09.75.25,1.47.55,2.29.86q-1.01.52-1.67.55c-1.24.06-1.31.14-1.16,1.41.02.16.03.32.07.47.61,2.61-.18,2.71,3,2.96.86.07,1.7.3,2.55.59-1.09.43-2.22.59-3.35.65-.6.03-1.11.07-1.22.83,0,.05-.65.15-.8.02-.41-.37-.72-.76-1.34-.88-2.25-.43-2.45-.24-1.83,2.05.03.11-.04.36-.09.37-.22.03-.59.08-.65-.02-.31-.54-.64-1.11-.79-1.71-.19-.8-.63-1.21-1.39-1.46-.67-.22-1.34-.54-1.89-.97-.72-.56-.6-1.37.19-2.01.29-.23.62-.25.65.22.04.57.34.82.85,1,.62.21.98.02.94-.58-.08-1.03-.19-2.07-.26-3.1-.04-.56-.32-.86-.83-1.03-.61-.2-1.23-.37-1.79-.66-.2-.11-.31-.51-.33-.79,0-.1.34-.24.54-.35.06-.03.16-.01.24-.02,1.93-.07,1.92-.07,2-1.84.03-.72.08-1.44.19-2.14.03-.17.32-.41.49-.41.17,0,.45.22.5.39.14.45.23.92.26,1.39.05.64,0,1.28.04,1.92.07,1.11,1.03,1.88,2.08,1.62.24-.06.5-.39.59-.65.33-.95.59-1.93.88-2.89.17.03.35.05.52.08Zm-2.81,5.02c-.81-.03-1.1.17-1.06.89.06,1.03.16,2.06.34,3.08.13.74,1.84,1.21,2.39.7.1-.09.17-.27.16-.4-.12-1.03-.23-2.06-.41-3.07-.19-1.03-.38-1.16-1.41-1.2Z"/><path class="cls-1" d="m68.35,162.68c.18-.99.24-1.71.45-2.38.79-2.45,2.87-3.07,4.82-1.45.37.3.7.65,1.01,1.01,1.63,1.89,2.78,4.07,3.75,6.35.17.41.21.96.08,1.37-.07.21-.67.21-1,.38-.7.36-1.35.81-2.06,1.16-3.23,1.6-4.7,1.07-5.98-2.3-.53-1.39-.76-2.9-1.07-4.13Zm3.23-2.79c-.27.15-.54.21-.66.38-.22.32-.44.69-.5,1.06-.28,2.01.06,3.96.8,5.84.32.81.83.99,1.73.72.68-.2,1.36-.45,2.02-.7,1.5-.56,1.5-.57.78-1.96-.18-.35-.34-.72-.57-1.05-.86-1.23-1.73-2.46-2.65-3.65-.22-.29-.64-.43-.96-.64Z"/></svg>